{"glyphs":{"0":{"ha":891,"x_min":64,"x_max":828,"o":"m 446 996 q 731 868 635 996 q 828 494 828 741 q 730 118 828 247 q 446 -11 632 -11 q 162 118 260 -11 q 64 494 64 248 q 160 868 64 740 q 446 996 257 996 m 446 843 q 309 758 354 843 q 264 494 264 672 q 309 228 264 314 q 446 142 354 142 q 583 228 537 142 q 628 494 628 314 q 583 758 628 672 q 446 843 538 843 z "},"1":{"ha":593,"x_min":8,"x_max":475,"o":"m 475 972 l 475 0 l 269 0 l 269 804 l 41 745 l 8 859 l 345 991 l 475 972 z "},"2":{"ha":747,"x_min":41,"x_max":690,"o":"m 325 989 q 507 951 429 989 q 627 844 585 914 q 669 681 669 774 q 649 549 669 607 q 576 424 629 490 q 425 265 524 357 l 296 149 q 690 175 467 149 l 690 0 l 49 0 l 41 136 l 215 300 q 401 498 350 415 q 453 671 453 581 q 406 785 453 745 q 275 825 359 825 q 174 813 228 825 q 74 778 119 800 l 43 930 q 325 989 178 989 z "},"3":{"ha":748,"x_min":36,"x_max":692,"o":"m 478 511 q 636 427 581 489 q 692 269 692 366 q 588 63 692 136 q 296 -9 485 -9 q 166 1 233 -9 q 40 31 98 11 l 66 176 q 174 154 117 163 q 277 146 231 146 q 427 180 375 146 q 478 281 478 215 q 264 427 478 427 l 191 427 l 191 571 l 254 571 q 404 608 353 571 q 456 714 456 644 q 412 802 456 772 q 293 832 368 832 q 68 785 196 832 l 36 932 q 325 987 178 987 q 573 919 477 987 q 669 730 669 851 q 620 588 669 644 q 478 511 571 532 z "},"4":{"ha":850,"x_min":20,"x_max":825,"o":"m 522 0 l 522 210 l 37 210 l 20 323 l 415 985 l 708 985 l 708 354 l 825 354 l 806 210 l 708 210 l 708 0 l 522 0 m 522 354 l 522 844 l 236 354 l 522 354 z "},"5":{"ha":774,"x_min":47,"x_max":722,"o":"m 432 610 q 584 574 518 610 q 686 474 650 539 q 722 326 722 410 q 623 82 722 171 q 351 -7 524 -7 q 197 8 276 -7 q 47 52 118 24 l 83 200 q 208 163 144 176 q 321 150 271 150 q 466 194 416 150 q 515 322 515 237 q 475 428 515 391 q 358 465 435 465 q 271 453 317 465 q 186 422 225 441 l 87 492 l 134 985 l 682 985 l 682 833 l 290 833 l 265 582 q 432 610 351 610 z "},"6":{"ha":827,"x_min":52,"x_max":787,"o":"m 492 607 q 644 569 576 607 q 749 463 711 530 q 787 309 787 395 q 742 140 787 213 q 614 28 697 68 q 422 -11 530 -11 q 150 95 249 -11 q 52 390 52 201 q 128 697 52 565 q 347 906 204 829 q 685 993 490 982 l 705 838 q 405 746 513 825 q 264 521 296 667 q 371 585 313 562 q 492 607 429 607 m 422 140 q 541 188 494 140 q 587 310 587 236 q 546 429 587 387 q 428 471 504 471 q 337 453 383 471 q 252 401 292 435 l 252 392 q 295 204 252 269 q 422 140 339 140 z "},"7":{"ha":732,"x_min":18,"x_max":710,"o":"m 710 852 l 314 0 l 110 0 l 498 823 l 18 823 l 18 985 l 679 985 l 710 852 z "},"8":{"ha":857,"x_min":54,"x_max":807,"o":"m 608 518 q 754 424 701 481 q 807 271 807 367 q 761 121 807 186 q 629 22 714 57 q 433 -14 545 -14 q 156 62 257 -14 q 54 268 54 138 q 99 409 54 347 q 231 513 144 471 q 127 603 164 549 q 90 741 90 657 q 182 930 90 860 q 429 1000 273 1000 q 609 968 532 1000 q 728 877 686 936 q 770 739 770 818 q 728 617 770 674 q 608 518 686 559 m 429 850 q 319 817 359 850 q 278 730 278 785 q 328 633 278 668 q 476 566 378 599 q 555 641 528 599 q 582 730 582 684 q 540 818 582 786 q 429 850 498 850 m 433 136 q 564 176 513 136 q 615 278 615 215 q 587 357 615 327 q 516 406 558 387 q 396 450 473 425 l 367 458 q 274 371 302 412 q 245 277 245 329 q 297 175 245 213 q 433 136 349 136 z "},"9":{"ha":827,"x_min":40,"x_max":777,"o":"m 406 999 q 678 892 579 999 q 777 597 777 786 q 700 290 777 422 q 481 82 624 158 q 143 -5 338 5 l 122 150 q 423 241 314 162 q 564 467 532 321 q 457 403 515 425 q 336 380 399 380 q 184 419 252 380 q 78 525 117 457 q 40 679 40 593 q 85 847 40 774 q 214 959 131 920 q 406 999 297 999 m 400 517 q 490 535 444 517 q 576 586 536 553 l 576 596 q 533 783 576 720 q 406 847 489 847 q 287 799 334 847 q 240 677 240 751 q 282 559 240 601 q 400 517 323 517 z "}," ":{"ha":312,"x_min":0,"x_max":0,"o":""},"!":{"ha":379,"x_min":85,"x_max":294,"o":"m 85 1028 l 294 1028 l 269 297 l 110 297 l 85 1028 m 86 174 l 294 174 l 294 -9 l 86 -9 l 86 174 z "},"\"":{"ha":614,"x_min":89,"x_max":525,"o":"m 89 1013 l 256 1013 l 241 618 l 103 618 l 89 1013 m 359 1013 l 525 1013 l 511 618 l 374 618 l 359 1013 z "},"#":{"ha":970,"x_min":1,"x_max":970,"o":"m 252 586 l 62 586 l 86 726 l 277 726 l 321 985 l 468 985 l 424 726 l 635 726 l 679 985 l 828 985 l 782 726 l 970 726 l 946 586 l 758 586 l 722 376 l 908 376 l 885 236 l 697 236 l 659 0 l 510 0 l 550 236 l 339 236 l 298 0 l 151 0 l 192 236 l 1 236 l 25 376 l 215 376 l 252 586 m 574 376 l 610 586 l 399 586 l 363 376 l 574 376 z "},"$":{"ha":711,"x_min":37,"x_max":668,"o":"m 668 296 q 604 122 668 191 q 427 37 541 54 l 427 -109 l 311 -109 l 311 33 q 172 54 237 37 q 37 100 107 71 l 86 245 q 231 197 180 210 q 323 184 281 184 q 424 213 387 184 q 461 290 461 241 q 423 361 461 338 q 304 408 385 385 q 176 454 227 431 q 91 528 126 478 q 56 660 56 578 q 126 835 56 770 q 311 916 196 900 l 311 1075 l 427 1075 l 427 918 q 536 902 485 914 q 648 867 587 889 l 606 721 q 399 766 472 767 q 298 742 335 766 q 261 675 261 718 q 280 622 261 643 q 330 589 300 602 q 414 559 359 576 q 545 511 493 536 q 632 435 596 486 q 668 296 668 383 z "},"%":{"ha":1358,"x_min":32,"x_max":1326,"o":"m 325 -1 l 926 1039 l 1034 978 l 433 -64 l 325 -1 m 32 669 q 278 985 33 985 q 461 903 397 985 q 525 669 525 822 q 461 433 525 515 q 278 351 397 351 q 32 669 33 351 m 376 669 q 353 828 376 778 q 278 878 329 878 q 203 828 227 878 q 179 669 179 778 q 203 509 179 558 q 278 460 227 460 q 353 509 330 460 q 376 669 376 558 m 835 307 q 1080 623 835 623 q 1263 541 1200 623 q 1326 307 1326 460 q 1263 71 1326 153 q 1080 -11 1200 -11 q 835 307 835 -11 m 1179 307 q 1156 465 1179 415 q 1080 515 1132 515 q 1005 465 1029 515 q 982 307 982 415 q 1006 146 982 196 q 1080 97 1029 97 q 1156 146 1132 97 q 1179 307 1179 196 z "},"&":{"ha":918,"x_min":21,"x_max":920,"o":"m 700 89 q 404 -16 589 -16 q 121 61 221 -16 q 21 273 21 138 q 195 543 21 450 q 123 648 144 599 q 102 755 102 697 q 140 876 102 822 q 251 962 178 930 q 427 994 325 994 q 663 925 579 994 q 747 737 747 856 l 555 737 q 520 819 555 789 q 427 850 485 850 q 336 821 372 850 q 300 747 300 791 q 330 655 300 700 q 435 546 359 611 l 657 354 q 673 536 674 432 l 850 536 q 798 233 850 360 l 920 129 l 804 -3 l 700 89 m 403 134 q 581 196 518 134 l 307 436 q 236 364 258 403 q 214 277 214 325 q 266 174 214 214 q 403 134 318 134 z "},"'":{"ha":344,"x_min":89,"x_max":256,"o":"m 89 1013 l 256 1013 l 241 618 l 103 618 l 89 1013 z "},"(":{"ha":407,"x_min":45,"x_max":397,"o":"m 397 1038 q 251 715 294 861 q 208 396 208 568 q 251 81 208 228 q 397 -245 294 -65 l 277 -315 q 98 41 152 -123 q 45 393 45 205 q 98 744 45 578 q 277 1107 151 911 l 397 1038 z "},")":{"ha":407,"x_min":11,"x_max":363,"o":"m 131 1107 q 309 744 256 911 q 363 393 363 578 q 309 41 363 206 q 131 -315 256 -123 l 11 -245 q 156 82 113 -65 q 199 396 199 229 q 156 714 199 567 q 11 1038 113 861 l 131 1107 z "},"*":{"ha":554,"x_min":21,"x_max":536,"o":"m 346 745 l 482 606 l 367 522 l 275 699 l 183 522 l 68 604 l 208 743 l 21 778 l 62 913 l 233 823 l 207 1010 l 349 1010 l 318 823 l 493 909 l 536 778 l 346 745 z "},"+":{"ha":774,"x_min":46,"x_max":728,"o":"m 310 768 l 461 768 l 461 496 l 728 496 l 728 355 l 461 355 l 461 82 l 310 82 l 310 355 l 46 355 l 46 496 l 310 496 l 310 768 z "},",":{"ha":345,"x_min":26,"x_max":315,"o":"m 111 187 l 315 187 l 163 -186 l 26 -186 l 111 187 z "},"-":{"ha":696,"x_min":90,"x_max":606,"o":"m 90 519 l 606 519 l 606 372 l 90 372 l 90 519 z "},".":{"ha":398,"x_min":93,"x_max":307,"o":"m 307 207 l 307 0 l 93 0 l 93 207 l 307 207 z "},"/":{"ha":515,"x_min":-7,"x_max":521,"o":"m 358 1044 l 521 1044 l 155 -98 l -7 -98 l 358 1044 z "},":":{"ha":340,"x_min":64,"x_max":278,"o":"m 64 679 l 278 679 l 278 472 l 64 472 l 64 679 m 64 224 l 278 224 l 278 16 l 64 16 l 64 224 z "},";":{"ha":353,"x_min":26,"x_max":323,"o":"m 110 640 l 323 640 l 323 433 l 110 433 l 110 640 m 111 187 l 315 187 l 163 -186 l 26 -186 l 111 187 z "},"<":{"ha":855,"x_min":46,"x_max":770,"o":"m 268 419 l 770 236 l 770 79 l 46 353 l 46 488 l 770 760 l 770 604 l 268 419 z "},"=":{"ha":895,"x_min":126,"x_max":762,"o":"m 126 618 l 762 618 l 762 479 l 126 479 l 126 618 m 126 321 l 762 321 l 762 182 l 126 182 l 126 321 z "},">":{"ha":855,"x_min":86,"x_max":810,"o":"m 86 236 l 587 419 l 86 604 l 86 760 l 810 488 l 810 353 l 86 79 l 86 236 z "},"?":{"ha":608,"x_min":-12,"x_max":600,"o":"m 389 750 q 349 835 389 804 q 244 865 310 865 q 46 812 163 865 l -12 957 q 126 1011 52 991 q 272 1031 200 1031 q 510 959 420 1031 q 600 765 600 888 q 582 655 600 699 q 538 585 564 611 q 468 526 513 559 q 394 465 422 494 q 346 388 366 436 q 326 264 326 339 l 131 264 q 154 433 131 368 q 210 533 178 498 q 293 603 243 568 q 366 668 343 639 q 389 750 389 697 m 122 186 l 336 186 l 336 -5 l 122 -5 l 122 186 z "},"@":{"ha":1385,"x_min":45,"x_max":1341,"o":"m 45 297 q 132 663 45 504 q 375 909 218 822 q 739 996 532 996 q 1055 927 918 996 q 1266 733 1192 859 q 1341 444 1341 608 q 1303 230 1341 322 q 1195 87 1265 138 q 1034 36 1125 36 q 910 70 964 36 q 835 158 856 103 q 747 71 804 104 q 625 39 689 39 q 460 104 522 39 q 397 275 397 170 q 444 469 397 385 q 575 599 490 553 q 771 646 660 646 q 866 635 812 646 q 962 607 920 624 l 935 386 q 929 322 929 353 q 958 219 929 258 q 1032 180 986 180 q 1131 252 1093 180 q 1169 440 1169 323 q 1116 650 1169 559 q 965 790 1063 741 q 739 840 867 840 q 467 773 585 840 q 283 582 349 705 q 218 297 218 458 q 279 55 218 159 q 450 -108 339 -50 q 705 -165 561 -165 q 828 -154 764 -165 q 939 -125 892 -143 l 982 -267 q 841 -303 921 -289 q 693 -317 761 -317 q 353 -240 500 -317 q 126 -24 207 -164 q 45 297 45 115 m 808 505 q 745 515 774 515 q 612 457 663 515 q 562 304 562 399 q 587 215 562 249 q 653 180 612 180 q 739 225 703 180 q 785 342 775 269 l 808 505 z "},"A":{"ha":945,"x_min":9,"x_max":937,"o":"m 298 253 l 218 0 l 9 0 l 329 985 l 610 985 l 937 0 l 732 0 l 648 253 l 298 253 m 467 803 l 346 410 l 600 410 l 476 803 l 467 803 z "},"B":{"ha":905,"x_min":113,"x_max":857,"o":"m 675 511 q 810 425 762 484 q 857 283 857 367 q 761 74 857 149 q 489 0 664 0 l 113 0 l 113 985 l 461 985 q 729 917 635 985 q 823 725 823 848 q 675 519 823 574 l 675 511 m 450 579 q 614 711 614 579 q 450 833 614 833 l 311 833 l 311 579 l 450 579 m 478 151 q 601 190 557 151 q 644 297 644 228 q 598 398 644 363 q 464 432 553 432 l 311 432 l 311 151 l 478 151 z "},"C":{"ha":854,"x_min":52,"x_max":833,"o":"m 530 997 q 686 977 608 997 q 825 921 764 957 l 762 774 q 655 814 704 802 q 555 827 606 827 q 342 742 415 827 q 269 496 269 657 q 342 247 269 332 q 555 163 415 163 q 782 212 664 163 l 833 57 q 528 -11 681 -11 q 174 119 297 -11 q 52 492 52 249 q 109 762 52 648 q 273 937 165 876 q 530 997 380 997 z "},"D":{"ha":1005,"x_min":113,"x_max":954,"o":"m 443 985 q 826 862 697 985 q 954 497 954 739 q 824 126 954 253 q 443 0 694 0 l 113 0 l 113 985 l 443 985 m 457 158 q 665 243 595 158 q 736 494 736 328 q 666 742 736 659 q 457 825 596 825 l 322 825 l 322 158 l 457 158 z "},"E":{"ha":815,"x_min":113,"x_max":768,"o":"m 325 585 l 713 585 l 713 431 l 325 431 l 325 157 l 768 157 l 768 0 l 113 0 l 113 985 l 754 985 l 754 828 l 325 828 l 325 585 z "},"F":{"ha":768,"x_min":113,"x_max":746,"o":"m 325 578 l 689 578 l 689 418 l 325 418 l 325 0 l 113 0 l 113 985 l 746 985 l 746 825 l 325 825 l 325 578 z "},"G":{"ha":936,"x_min":52,"x_max":871,"o":"m 871 61 q 705 8 793 26 q 532 -11 616 -11 q 177 120 302 -11 q 52 492 52 252 q 181 865 52 733 q 549 997 311 997 q 715 977 632 997 q 865 921 799 957 l 803 771 q 680 813 732 800 q 574 827 627 827 q 347 743 424 827 q 269 496 269 659 q 341 245 269 334 q 543 157 412 157 q 673 175 610 157 l 673 500 l 871 500 l 871 61 z "},"H":{"ha":1057,"x_min":113,"x_max":945,"o":"m 732 985 l 945 985 l 945 0 l 732 0 l 732 421 l 325 421 l 325 0 l 113 0 l 113 985 l 325 985 l 325 582 l 732 582 l 732 985 z "},"I":{"ha":436,"x_min":113,"x_max":325,"o":"m 113 985 l 325 985 l 325 0 l 113 0 l 113 985 z "},"J":{"ha":517,"x_min":-14,"x_max":411,"o":"m -14 -89 q 201 199 201 24 l 201 828 l 12 828 l 12 985 l 411 985 l 411 196 q 317 -42 411 67 q 56 -215 224 -151 l -14 -89 z "},"K":{"ha":948,"x_min":113,"x_max":946,"o":"m 113 985 l 325 985 l 325 0 l 113 0 l 113 985 m 946 0 l 704 0 l 345 526 l 673 985 l 913 985 l 575 529 l 946 0 z "},"L":{"ha":739,"x_min":113,"x_max":729,"o":"m 729 0 l 113 0 l 113 985 l 315 985 l 315 161 l 729 161 l 729 0 z "},"M":{"ha":1291,"x_min":50,"x_max":1242,"o":"m 979 529 q 956 733 964 676 q 918 593 947 700 q 864 412 888 486 l 734 32 l 555 32 l 428 412 q 349 686 388 532 l 335 733 l 298 412 l 250 0 l 50 0 l 176 985 l 416 985 l 559 555 q 604 403 589 460 q 646 261 629 307 q 688 403 663 307 q 732 555 703 460 l 875 985 l 1114 985 l 1242 0 l 1042 0 l 991 412 l 979 529 z "},"N":{"ha":1044,"x_min":113,"x_max":933,"o":"m 458 436 q 306 682 410 505 l 306 0 l 113 0 l 113 985 l 281 985 l 581 557 q 739 307 637 476 l 739 985 l 933 985 l 933 0 l 764 0 l 458 436 z "},"O":{"ha":1046,"x_min":52,"x_max":996,"o":"m 524 999 q 874 869 753 999 q 996 497 996 739 q 875 119 996 250 q 524 -12 754 -12 q 172 118 292 -12 q 52 497 52 249 q 173 869 52 739 q 524 999 294 999 m 524 832 q 334 747 397 832 q 271 497 271 663 q 335 241 271 329 q 524 154 399 154 q 712 241 648 154 q 777 497 777 329 q 712 747 777 661 q 524 832 648 832 z "},"P":{"ha":850,"x_min":113,"x_max":822,"o":"m 450 985 q 726 905 631 985 q 822 673 822 825 q 725 445 822 526 q 454 363 628 363 l 322 363 l 322 0 l 113 0 l 113 985 l 450 985 m 441 518 q 570 556 528 518 q 612 673 612 595 q 571 790 612 753 q 441 828 529 828 l 322 828 l 322 518 l 441 518 z "},"Q":{"ha":1046,"x_min":52,"x_max":996,"o":"m 747 -146 q 863 -123 799 -146 l 909 -272 q 739 -301 822 -301 q 524 -224 604 -301 q 429 -7 443 -147 q 148 148 243 20 q 52 497 52 277 q 173 869 52 739 q 524 999 294 999 q 874 869 753 999 q 996 497 996 739 q 889 134 996 264 q 578 -11 782 4 q 630 -114 590 -81 q 747 -146 671 -146 m 271 497 q 335 241 271 329 q 524 154 399 154 q 712 241 648 154 q 777 497 777 329 q 712 747 777 661 q 524 832 648 832 q 334 747 397 832 q 271 497 271 663 z "},"R":{"ha":895,"x_min":113,"x_max":865,"o":"m 322 0 l 113 0 l 113 985 l 450 985 q 733 906 635 985 q 832 677 832 828 q 785 517 832 585 q 650 412 737 449 l 865 0 l 639 0 l 458 375 l 322 375 l 322 0 m 441 528 q 577 565 533 528 q 621 677 621 602 q 577 792 621 755 q 441 828 533 828 l 322 828 l 322 528 l 441 528 z "},"S":{"ha":770,"x_min":37,"x_max":728,"o":"m 427 997 q 701 943 549 998 l 659 781 q 428 831 517 831 q 315 802 356 831 q 273 725 273 774 q 312 641 273 672 q 452 583 350 610 q 665 476 602 545 q 728 289 728 408 q 630 67 728 144 q 353 -9 533 -9 q 37 57 205 -9 l 87 215 q 239 169 180 182 q 351 155 298 155 q 470 188 428 155 q 511 279 511 221 q 494 342 511 317 q 434 387 476 367 q 313 427 392 407 q 119 526 180 458 q 58 703 58 593 q 155 920 58 843 q 427 997 252 997 z "},"T":{"ha":774,"x_min":9,"x_max":765,"o":"m 765 823 l 498 823 l 498 0 l 286 0 l 286 823 l 9 823 l 9 985 l 765 985 l 765 823 z "},"U":{"ha":1005,"x_min":92,"x_max":914,"o":"m 914 336 q 808 76 914 165 q 503 -14 703 -14 q 196 75 300 -14 q 92 336 92 164 l 92 985 l 304 985 l 304 334 q 503 154 304 155 q 701 334 701 154 l 701 985 l 914 985 l 914 336 z "},"V":{"ha":939,"x_min":8,"x_max":930,"o":"m 8 985 l 225 985 l 376 522 q 461 218 410 419 l 469 183 q 561 522 522 403 l 714 985 l 930 985 l 600 0 l 339 0 l 8 985 z "},"W":{"ha":1411,"x_min":18,"x_max":1393,"o":"m 754 515 q 737 599 746 549 q 722 676 728 650 l 705 768 l 689 676 q 674 599 684 650 q 657 515 665 549 l 538 0 l 257 0 l 18 985 l 229 985 l 335 522 q 374 359 357 420 l 411 196 l 486 522 l 593 985 l 818 985 l 925 522 l 1000 196 q 1039 359 1023 296 l 1076 522 l 1182 985 l 1393 985 l 1154 0 l 873 0 l 754 515 z "},"X":{"ha":923,"x_min":7,"x_max":916,"o":"m 7 0 l 313 510 l 35 985 l 267 985 l 461 631 l 656 985 l 888 985 l 611 510 l 916 0 l 673 0 l 461 387 l 249 0 l 7 0 z "},"Y":{"ha":863,"x_min":0,"x_max":864,"o":"m 349 742 q 392 635 366 705 q 427 542 418 566 l 437 542 q 472 635 446 566 q 515 742 498 705 l 636 985 l 864 985 l 538 382 l 538 0 l 325 0 l 325 382 l 0 985 l 229 985 l 349 742 z "},"Z":{"ha":787,"x_min":37,"x_max":747,"o":"m 747 987 l 747 850 l 278 160 l 743 160 l 743 0 l 37 0 l 37 139 l 505 827 l 53 827 l 53 987 l 747 987 z "},"[":{"ha":469,"x_min":110,"x_max":454,"o":"m 271 -127 l 454 -127 l 454 -268 l 110 -268 l 110 1075 l 454 1075 l 454 935 l 271 935 l 271 -127 z "},"\\":{"ha":515,"x_min":-7,"x_max":521,"o":"m 155 1044 l 521 -98 l 358 -98 l -7 1044 l 155 1044 z "},"]":{"ha":469,"x_min":17,"x_max":359,"o":"m 17 1075 l 359 1075 l 359 -268 l 17 -268 l 17 -127 l 200 -127 l 200 935 l 17 935 l 17 1075 z "},"^":{"ha":758,"x_min":-1,"x_max":760,"o":"m 379 860 l 161 488 l -1 488 l 300 987 l 458 987 l 760 489 l 596 489 l 379 860 z "},"_":{"ha":837,"x_min":90,"x_max":747,"o":"m 90 -53 l 747 -53 l 747 -201 l 90 -201 l 90 -53 z "},"`":{"ha":407,"x_min":50,"x_max":357,"o":"m 140 1084 l 357 861 l 300 791 l 50 965 l 140 1084 z "},"a":{"ha":772,"x_min":32,"x_max":693,"o":"m 375 742 q 611 666 529 742 q 693 446 693 590 l 693 0 l 521 0 l 497 86 q 396 14 452 39 q 277 -11 340 -11 q 98 47 164 -11 q 32 204 32 106 q 128 382 32 318 q 396 446 224 446 l 485 446 l 485 464 q 342 590 481 590 q 232 576 294 590 q 119 541 170 562 l 75 681 q 227 726 147 710 q 375 742 306 742 m 414 332 q 276 301 325 332 q 227 216 227 271 q 254 148 227 172 q 330 125 281 125 q 416 144 375 125 q 485 197 457 164 l 485 332 l 414 332 z "},"b":{"ha":869,"x_min":103,"x_max":827,"o":"m 311 659 q 507 739 392 739 q 743 645 659 739 q 827 379 827 550 q 721 95 827 199 q 431 -9 615 -9 q 247 3 336 -9 q 103 36 158 16 l 103 1044 l 311 1044 l 311 659 m 464 591 q 366 559 407 591 q 311 475 325 528 l 311 150 q 421 132 357 132 q 565 193 515 132 q 615 372 615 254 q 576 536 615 481 q 464 591 538 591 z "},"c":{"ha":662,"x_min":45,"x_max":636,"o":"m 421 739 q 632 688 532 739 l 586 550 q 443 589 512 589 q 303 530 353 589 q 254 366 254 472 q 305 202 254 260 q 450 144 355 144 q 603 178 528 144 l 636 36 q 528 1 586 14 q 416 -11 469 -11 q 140 86 236 -11 q 45 366 45 183 q 143 641 45 543 q 421 739 241 739 z "},"d":{"ha":854,"x_min":45,"x_max":768,"o":"m 576 87 q 479 14 530 37 q 363 -9 428 -9 q 129 85 213 -9 q 45 350 45 179 q 150 635 45 532 q 437 739 254 739 q 559 725 490 739 l 559 1044 l 768 1044 l 768 1 l 608 1 l 576 87 m 406 138 q 501 168 460 138 q 559 253 542 199 l 559 582 q 498 595 519 591 q 449 599 476 599 q 304 537 355 599 q 254 357 254 476 q 406 138 254 137 z "},"e":{"ha":780,"x_min":45,"x_max":737,"o":"m 248 325 q 439 139 264 139 q 548 152 493 139 q 669 192 603 164 l 720 62 q 414 -14 554 -14 q 143 87 241 -14 q 45 366 45 187 q 141 643 45 543 q 411 742 237 742 q 737 372 737 742 l 737 325 l 248 325 m 546 446 q 412 597 537 597 q 303 560 343 597 q 252 446 264 522 l 546 446 z "},"f":{"ha":513,"x_min":12,"x_max":591,"o":"m 132 806 q 201 988 132 921 q 389 1055 269 1055 q 486 1045 440 1055 q 591 1010 532 1035 l 541 892 q 436 913 478 913 q 362 886 389 913 q 336 807 336 859 l 336 728 l 511 728 l 511 582 l 336 582 l 336 62 q 264 -212 336 -81 l 132 -212 l 132 582 l 12 582 l 12 728 l 132 728 l 132 806 z "},"g":{"ha":869,"x_min":45,"x_max":770,"o":"m 406 734 q 502 720 457 734 q 581 677 547 705 l 602 728 l 770 728 l 770 12 q 670 -236 770 -151 q 397 -321 570 -321 q 224 -301 310 -321 q 71 -243 138 -281 l 135 -107 q 254 -152 184 -134 q 385 -171 325 -171 q 515 -127 469 -171 q 561 1 561 -83 l 561 78 q 364 -1 477 -1 q 129 92 213 -1 q 45 353 45 184 q 140 633 45 532 q 406 734 236 734 m 444 596 q 304 535 353 596 q 256 359 256 475 q 295 201 256 256 q 407 146 334 146 q 504 178 463 146 q 561 264 546 210 l 561 566 q 444 596 508 596 z "},"h":{"ha":869,"x_min":100,"x_max":786,"o":"m 309 639 q 415 713 354 688 q 549 739 476 739 q 724 673 663 739 q 786 484 786 607 l 786 0 l 578 0 l 578 472 q 553 564 578 536 q 472 593 528 593 q 378 570 422 593 q 309 509 335 547 l 309 0 l 100 0 l 100 1047 l 309 1047 l 309 639 z "},"i":{"ha":411,"x_min":102,"x_max":310,"o":"m 102 1021 l 310 1021 l 310 831 l 102 831 l 102 1021 m 102 720 l 310 720 l 310 0 l 102 0 l 102 720 z "},"j":{"ha":407,"x_min":-40,"x_max":311,"o":"m 103 1021 l 311 1021 l 311 831 l 103 831 l 103 1021 m -40 -195 q 68 -22 33 -103 q 103 138 103 58 l 103 724 l 311 724 l 311 138 q 249 -76 311 28 q 65 -273 186 -180 l -40 -195 z "},"k":{"ha":812,"x_min":100,"x_max":817,"o":"m 100 1048 l 309 1048 l 309 0 l 100 0 l 100 1048 m 817 0 l 585 0 l 322 404 l 553 728 l 774 728 l 539 411 l 817 0 z "},"l":{"ha":414,"x_min":103,"x_max":311,"o":"m 103 1044 l 311 1044 l 311 0 l 103 0 l 103 1044 z "},"m":{"ha":1340,"x_min":102,"x_max":1254,"o":"m 297 627 q 539 739 388 739 q 673 707 617 739 q 757 614 729 675 q 871 708 808 677 q 1011 739 933 739 q 1191 672 1128 739 q 1254 484 1254 606 l 1254 0 l 1046 0 l 1046 472 q 1021 564 1046 536 q 940 593 996 593 q 848 571 890 593 q 779 509 807 549 q 781 496 779 506 q 782 473 782 486 l 782 0 l 574 0 l 574 472 q 549 564 574 536 q 468 593 524 593 q 377 570 419 593 q 310 509 335 547 l 310 0 l 102 0 l 102 728 l 275 728 l 297 627 z "},"n":{"ha":868,"x_min":98,"x_max":785,"o":"m 294 627 q 547 739 391 739 q 723 672 661 739 q 785 484 785 606 l 785 0 l 576 0 l 576 472 q 551 564 576 536 q 471 593 526 593 q 377 570 420 593 q 307 509 334 547 l 307 0 l 98 0 l 98 728 l 272 728 l 294 627 z "},"o":{"ha":830,"x_min":45,"x_max":786,"o":"m 415 745 q 690 647 595 745 q 786 366 786 549 q 690 83 786 182 q 415 -16 595 -16 q 141 83 237 -16 q 45 366 45 182 q 140 647 45 549 q 415 745 236 745 m 415 589 q 254 366 254 589 q 415 142 254 142 q 576 366 576 142 q 415 589 576 589 z "},"p":{"ha":871,"x_min":103,"x_max":827,"o":"m 507 737 q 743 644 659 737 q 827 378 827 550 q 779 170 827 257 q 642 36 730 82 q 433 -11 554 -11 q 311 4 376 -11 l 311 -318 l 103 -318 l 103 728 l 262 728 l 294 642 q 391 714 340 692 q 507 737 441 737 m 421 131 q 566 192 515 131 q 616 371 616 253 q 464 590 616 591 q 369 560 408 590 q 311 476 329 530 l 311 146 q 372 134 351 136 q 421 131 392 131 z "},"q":{"ha":848,"x_min":45,"x_max":762,"o":"m 458 742 q 762 696 618 742 l 762 -318 l 554 -318 l 554 65 q 359 -9 471 -10 q 129 85 212 -9 q 45 345 45 179 q 152 638 45 535 q 458 742 258 742 m 401 138 q 490 167 450 138 q 554 248 530 196 l 554 585 q 452 600 500 600 q 305 535 357 600 q 253 351 253 471 q 292 192 253 247 q 401 138 330 138 z "},"r":{"ha":576,"x_min":98,"x_max":574,"o":"m 289 627 q 481 739 357 739 q 526 736 507 739 q 574 725 545 733 l 550 543 q 447 564 492 564 q 364 546 398 564 q 307 492 330 529 l 307 0 l 98 0 l 98 728 l 264 728 l 289 627 z "},"s":{"ha":651,"x_min":32,"x_max":610,"o":"m 355 742 q 596 694 458 742 l 553 558 q 438 591 481 582 q 363 600 396 600 q 281 581 311 600 q 252 528 252 561 q 280 478 252 496 q 366 443 309 460 q 491 401 445 420 q 574 337 538 382 q 610 214 610 292 q 530 46 610 106 q 311 -14 450 -14 q 32 45 165 -14 l 82 182 q 211 141 161 153 q 298 129 260 129 q 380 149 353 129 q 408 207 408 170 q 376 262 408 244 q 273 300 345 279 q 162 340 207 319 q 86 406 118 361 q 54 524 54 450 q 134 684 54 627 q 355 742 214 742 z "},"t":{"ha":579,"x_min":12,"x_max":553,"o":"m 553 28 q 372 -11 458 -11 q 132 218 132 -11 l 132 582 l 12 582 l 12 728 l 146 728 l 186 936 l 339 936 l 339 728 l 538 728 l 538 582 l 339 582 l 339 248 q 360 168 339 192 q 431 144 380 144 q 522 161 473 144 l 553 28 z "},"u":{"ha":872,"x_min":86,"x_max":771,"o":"m 294 256 q 319 165 294 193 q 400 136 345 136 q 493 158 449 136 q 562 220 536 180 l 562 728 l 771 728 l 771 0 l 599 0 l 575 102 q 467 18 529 46 q 329 -11 404 -11 q 149 55 211 -11 q 86 244 86 121 l 86 728 l 294 728 l 294 256 z "},"v":{"ha":754,"x_min":4,"x_max":750,"o":"m 4 728 l 210 728 l 317 408 q 368 218 338 343 l 379 176 q 395 239 390 218 q 440 410 421 346 l 547 728 l 750 728 l 500 0 l 254 0 l 4 728 z "},"w":{"ha":1156,"x_min":14,"x_max":1143,"o":"m 619 306 q 602 383 608 351 q 591 436 596 415 l 579 503 q 559 414 575 489 q 538 306 555 393 l 458 0 l 210 0 l 14 728 l 215 728 l 292 404 q 329 240 304 354 q 336 206 332 224 q 345 168 340 187 q 406 404 387 335 l 496 728 l 661 728 l 750 404 q 772 325 762 361 q 789 260 782 288 q 812 168 817 155 q 865 406 829 237 l 942 728 l 1143 728 l 946 0 l 697 0 l 619 306 z "},"x":{"ha":783,"x_min":4,"x_max":779,"o":"m 4 0 l 257 375 l 24 728 l 239 728 l 392 489 l 545 728 l 760 728 l 526 375 l 779 0 l 555 -1 l 392 260 l 228 -1 l 4 0 z "},"y":{"ha":751,"x_min":3,"x_max":750,"o":"m 278 4 l 3 728 l 201 728 l 283 504 q 361 241 314 420 l 379 172 l 400 253 q 471 507 440 418 l 550 728 l 750 728 l 351 -318 l 161 -318 l 278 4 z "},"z":{"ha":656,"x_min":39,"x_max":621,"o":"m 608 728 l 608 603 l 271 154 l 621 154 l 621 0 l 39 0 l 39 129 l 376 574 l 54 574 l 54 728 l 608 728 z "},"{":{"ha":477,"x_min":9,"x_max":463,"o":"m 123 165 q 92 290 123 237 q 9 359 61 343 l 9 464 q 123 653 123 504 l 123 799 q 188 1009 123 943 q 395 1075 252 1075 l 463 1075 l 463 940 l 399 940 q 312 912 339 940 q 285 818 285 884 l 285 611 q 172 415 285 497 l 172 401 q 257 310 229 357 q 285 208 285 262 l 285 -9 q 311 -104 285 -75 q 399 -134 338 -134 l 463 -134 l 463 -268 l 392 -268 q 185 -204 248 -268 q 123 8 123 -140 l 123 165 z "},"|":{"ha":361,"x_min":100,"x_max":261,"o":"m 100 1075 l 261 1075 l 261 -268 l 100 -268 l 100 1075 z "},"}":{"ha":477,"x_min":16,"x_max":468,"o":"m 79 -134 q 168 -104 140 -134 q 195 -9 195 -75 l 195 208 q 222 310 195 264 q 306 401 249 357 l 306 415 q 195 611 195 497 l 195 818 q 168 911 195 882 q 79 940 140 940 l 16 940 l 16 1075 l 83 1075 q 290 1009 227 1075 q 354 799 354 943 l 354 653 q 468 464 354 505 l 468 359 q 385 290 416 342 q 354 165 354 237 l 354 8 q 292 -204 354 -140 q 87 -268 231 -268 l 16 -268 l 16 -134 l 79 -134 z "},"~":{"ha":926,"x_min":90,"x_max":836,"o":"m 332 511 q 263 478 288 511 q 239 387 239 446 l 90 387 q 152 579 90 508 q 318 650 214 650 q 417 627 380 650 q 496 559 454 604 q 549 512 526 528 q 602 497 571 497 q 665 530 642 497 q 688 621 688 564 l 836 621 q 774 430 836 501 q 608 358 711 358 q 512 382 550 358 q 428 452 473 406 q 376 497 396 484 q 332 511 357 511 z "}," ":{"ha":312,"x_min":0,"x_max":0,"o":""},"¡":{"ha":379,"x_min":85,"x_max":294,"o":"m 86 543 l 86 726 l 294 726 l 294 543 l 86 543 m 85 -311 l 110 419 l 269 419 l 294 -311 l 85 -311 z "},"¢":{"ha":626,"x_min":39,"x_max":600,"o":"m 600 165 q 435 122 524 130 l 435 -9 l 323 -9 l 323 123 q 112 233 186 142 q 39 475 39 323 q 113 713 39 623 q 323 822 187 803 l 323 991 l 435 991 l 435 827 q 596 777 519 819 l 551 644 q 408 681 479 680 q 274 627 321 681 q 228 475 228 574 q 276 322 228 375 q 415 269 323 269 q 567 302 487 269 l 600 165 z "},"£":{"ha":770,"x_min":49,"x_max":747,"o":"m 382 424 q 341 268 379 346 q 245 142 302 189 l 736 151 l 736 0 l 60 0 l 60 122 q 149 260 118 182 q 179 424 179 338 l 49 424 l 49 554 l 163 554 l 151 595 q 133 666 139 637 q 126 732 126 694 q 168 877 126 815 q 287 972 210 939 q 467 1006 364 1006 q 647 963 572 1006 q 747 844 721 921 l 602 783 q 556 838 589 818 q 473 857 522 857 q 367 822 406 857 q 329 725 329 786 q 351 615 329 682 l 368 554 l 586 554 l 586 424 l 382 424 z "},"¤":{"ha":811,"x_min":20,"x_max":791,"o":"m 677 444 q 636 292 677 359 l 791 138 l 714 60 l 557 215 q 404 175 493 175 q 253 214 318 175 l 97 60 l 20 138 l 174 292 q 132 444 132 357 q 175 597 132 533 l 20 753 l 97 831 l 254 673 q 404 714 318 713 q 557 673 492 714 l 714 831 l 791 753 l 635 597 q 677 444 677 534 m 404 314 q 491 351 457 314 q 525 444 525 387 q 491 538 525 501 q 404 575 457 575 q 319 538 353 575 q 285 444 285 501 q 319 351 285 387 q 404 314 353 314 z "},"¥":{"ha":879,"x_min":12,"x_max":867,"o":"m 546 396 l 546 279 l 781 279 l 781 175 l 546 175 l 546 0 l 334 0 l 334 175 l 98 175 l 98 279 l 334 279 l 334 396 l 98 396 l 98 500 l 283 500 l 12 985 l 241 985 l 440 570 l 639 985 l 867 985 l 596 500 l 781 500 l 781 396 l 546 396 z "},"¦":{"ha":326,"x_min":83,"x_max":243,"o":"m 83 1075 l 243 1075 l 243 542 l 83 542 l 83 1075 m 83 288 l 243 288 l 243 -268 l 83 -268 l 83 288 z "},"§":{"ha":574,"x_min":25,"x_max":550,"o":"m 347 1075 q 501 1054 418 1075 l 481 930 q 375 945 422 944 q 288 917 318 945 q 257 838 257 889 q 285 767 257 802 q 371 682 313 733 q 463 592 428 631 q 524 502 498 554 q 550 386 550 449 q 518 254 550 314 q 427 154 486 195 q 500 -33 500 68 q 426 -207 500 -142 q 228 -272 351 -272 q 75 -250 164 -272 l 94 -126 q 201 -140 150 -140 q 288 -113 258 -140 q 318 -33 318 -86 q 290 38 318 5 q 204 122 262 71 q 112 208 147 171 q 51 298 77 245 q 25 416 25 351 q 57 547 25 487 q 149 648 89 607 q 75 836 75 733 q 150 1010 75 945 q 347 1075 224 1075 m 216 589 q 172 456 172 524 q 190 384 172 417 q 246 314 208 351 q 358 214 283 277 q 403 349 403 275 q 385 419 403 386 q 329 489 367 452 q 216 589 292 526 z "},"¨":{"ha":557,"x_min":50,"x_max":505,"o":"m 50 996 l 220 996 l 220 832 l 50 832 l 50 996 m 338 996 l 505 996 l 505 832 l 338 832 l 338 996 z "},"©":{"ha":818,"x_min":33,"x_max":785,"o":"m 33 467 q 83 654 33 568 q 220 790 134 741 q 410 840 307 840 q 599 791 513 840 q 735 657 685 742 q 785 469 785 572 q 734 280 785 366 q 597 142 684 193 q 410 92 511 92 q 219 142 305 92 q 83 278 134 192 q 33 467 33 364 m 697 467 q 658 613 697 546 q 553 720 619 681 q 410 760 488 760 q 266 721 332 760 q 161 615 200 682 q 122 469 122 549 q 161 321 122 389 q 266 215 200 254 q 410 175 332 175 q 555 214 489 175 q 659 320 621 253 q 697 467 697 387 m 231 468 q 280 605 231 554 q 416 656 330 656 q 491 640 456 656 q 550 593 526 624 l 500 543 q 462 575 481 566 q 416 585 443 585 q 345 554 370 585 q 319 468 319 524 q 346 380 319 411 q 424 350 372 350 q 518 376 467 350 l 541 311 q 485 288 517 296 q 421 279 453 279 q 281 329 332 279 q 231 468 231 379 z "},"ª":{"ha":498,"x_min":17,"x_max":460,"o":"m 17 636 q 81 756 17 714 q 260 799 144 799 l 311 799 l 311 808 q 224 888 310 888 q 152 878 195 888 q 75 852 110 868 l 45 950 q 148 981 95 970 q 245 991 201 991 q 405 943 350 991 q 460 803 460 895 l 460 500 l 338 500 l 322 550 q 258 506 294 521 q 182 490 222 490 q 61 529 105 490 q 17 636 17 568 m 268 720 q 155 643 155 720 q 171 602 155 616 q 218 587 187 587 q 270 599 245 587 q 311 633 294 611 l 311 720 l 268 720 z "},"«":{"ha":749,"x_min":3,"x_max":729,"o":"m 367 123 l 245 28 l 3 368 l 248 708 l 368 614 l 192 368 l 367 123 m 728 123 l 608 28 l 366 368 l 610 708 l 729 614 l 553 368 l 728 123 z "},"¬":{"ha":897,"x_min":66,"x_max":760,"o":"m 760 216 l 615 216 l 615 478 l 66 478 l 66 618 l 760 618 l 760 216 z "},"­":{"ha":833,"x_min":90,"x_max":606,"o":"m 90 519 l 606 519 l 606 372 l 90 372 l 90 519 z "},"®":{"ha":818,"x_min":33,"x_max":785,"o":"m 410 996 q 599 946 513 996 q 735 812 685 897 q 785 625 785 728 q 734 435 785 522 q 597 298 684 349 q 410 248 511 248 q 219 297 305 248 q 83 433 134 347 q 33 623 33 519 q 83 810 33 724 q 220 946 134 896 q 410 996 307 996 m 410 916 q 266 877 332 916 q 161 771 200 838 q 122 625 122 704 q 161 477 122 545 q 266 370 200 410 q 410 330 332 330 q 555 369 489 330 q 659 476 621 408 q 697 623 697 543 q 658 769 697 702 q 553 876 619 836 q 410 916 488 916 m 415 825 q 519 794 484 825 q 554 707 554 764 q 536 639 554 667 q 484 599 518 611 l 567 463 l 505 429 l 411 587 l 357 587 l 357 437 l 286 437 l 286 825 l 415 825 m 415 650 q 464 664 447 650 q 481 707 481 679 q 464 748 481 733 q 415 762 447 762 l 357 762 l 357 650 l 415 650 z "},"¯":{"ha":559,"x_min":50,"x_max":509,"o":"m 50 975 l 509 975 l 509 846 l 50 846 l 50 975 z "},"°":{"ha":565,"x_min":43,"x_max":521,"o":"m 43 755 q 75 875 43 821 q 162 961 107 929 q 283 993 216 993 q 404 962 349 993 q 490 876 458 930 q 521 755 521 821 q 489 634 521 689 q 403 547 457 579 q 283 515 349 515 q 163 547 218 515 q 75 635 107 579 q 43 755 43 690 m 389 755 q 359 835 389 803 q 285 867 329 867 q 210 835 240 867 q 180 755 180 803 q 211 675 180 708 q 285 642 241 642 q 358 675 328 642 q 389 755 389 708 z "},"±":{"ha":780,"x_min":68,"x_max":711,"o":"m 318 838 l 457 838 l 457 589 l 711 589 l 711 460 l 457 460 l 457 210 l 318 210 l 318 460 l 68 460 l 68 589 l 318 589 l 318 838 m 68 142 l 711 142 l 711 14 l 68 14 l 68 142 z "},"²":{"ha":471,"x_min":20,"x_max":443,"o":"m 210 1206 q 370 1152 310 1206 q 431 1010 431 1099 q 399 886 431 942 q 283 758 367 831 l 205 692 q 443 713 314 693 l 443 585 l 29 585 l 21 684 l 121 772 q 237 890 204 839 q 271 999 271 942 q 243 1065 271 1042 q 167 1089 216 1089 q 41 1060 109 1089 l 20 1168 q 210 1206 118 1205 z "},"³":{"ha":476,"x_min":20,"x_max":447,"o":"m 37 705 q 172 684 111 684 q 260 704 229 684 q 290 760 290 724 q 165 842 290 842 l 113 842 l 113 946 l 158 946 q 244 967 214 946 q 275 1026 275 987 q 250 1076 275 1059 q 179 1093 225 1093 q 41 1065 117 1093 l 20 1171 q 210 1203 113 1202 q 371 1159 309 1203 q 433 1040 433 1116 q 401 949 433 985 q 309 900 370 914 q 411 848 375 886 q 447 750 447 810 q 380 621 447 667 q 191 575 314 575 q 102 582 148 575 q 20 603 56 589 l 37 705 z "},"´":{"ha":407,"x_min":50,"x_max":357,"o":"m 50 861 l 267 1084 l 357 965 l 107 791 l 50 861 z "},"¶":{"ha":749,"x_min":3,"x_max":650,"o":"m 292 450 q 140 484 205 450 q 39 579 75 518 q 3 721 3 640 q 79 920 3 848 q 292 991 155 991 l 650 991 l 650 -258 l 514 -258 l 514 864 l 428 864 l 428 -258 l 292 -258 l 292 450 z "},"·":{"ha":398,"x_min":93,"x_max":307,"o":"m 93 534 l 307 534 l 307 328 l 93 328 l 93 534 z "},"¸":{"ha":362,"x_min":50,"x_max":311,"o":"m 208 -62 q 281 -109 252 -77 q 311 -178 311 -142 q 274 -268 311 -236 q 182 -300 237 -300 q 50 -262 114 -300 l 81 -197 q 112 -209 93 -204 q 149 -214 131 -214 q 184 -203 171 -214 q 197 -172 197 -193 q 179 -137 197 -151 q 118 -114 160 -123 l 104 -78 l 163 0 l 229 0 l 208 -62 z "},"¹":{"ha":378,"x_min":4,"x_max":319,"o":"m 319 1194 l 319 585 l 165 585 l 165 1076 l 26 1043 l 4 1125 l 227 1208 l 319 1194 z "},"º":{"ha":541,"x_min":22,"x_max":519,"o":"m 22 743 q 87 928 22 863 q 271 993 151 993 q 455 928 390 993 q 519 743 519 863 q 455 558 519 624 q 271 493 390 493 q 87 558 151 493 q 22 743 22 624 m 370 743 q 345 851 370 817 q 271 886 321 886 q 196 851 220 886 q 172 743 172 817 q 271 599 172 599 q 370 743 369 599 z "},"»":{"ha":871,"x_min":77,"x_max":802,"o":"m 439 368 l 196 28 l 78 123 l 252 368 l 77 614 l 196 708 l 439 368 m 802 368 l 558 28 l 437 123 l 612 368 l 436 614 l 557 708 l 802 368 z "},"¼":{"ha":1166,"x_min":4,"x_max":1154,"o":"m 147 -1 l 747 1039 l 856 978 l 254 -64 l 147 -1 m 319 972 l 319 363 l 165 363 l 165 854 l 26 821 l 4 903 l 227 986 l 319 972 m 1080 126 l 1080 0 l 947 0 l 947 126 l 647 126 l 635 205 l 869 618 l 1080 618 l 1080 229 l 1154 229 l 1139 126 l 1080 126 m 785 229 l 947 229 l 947 518 l 785 229 z "},"½":{"ha":1095,"x_min":4,"x_max":1067,"o":"m 147 -1 l 747 1039 l 856 978 l 254 -64 l 147 -1 m 319 972 l 319 363 l 165 363 l 165 854 l 26 821 l 4 903 l 227 986 l 319 972 m 833 621 q 994 568 935 621 q 1054 425 1054 515 q 1022 301 1054 357 q 907 174 990 244 l 831 107 q 1067 127 938 109 l 1067 0 l 653 0 l 646 98 l 745 187 q 861 305 828 254 q 895 414 895 357 q 867 480 895 456 q 790 504 840 504 q 665 475 732 504 l 644 583 q 833 621 741 621 z "},"¾":{"ha":1265,"x_min":20,"x_max":1253,"o":"m 245 -1 l 846 1039 l 954 978 l 353 -64 l 245 -1 m 37 484 q 172 461 111 461 q 260 481 229 461 q 290 538 290 501 q 165 619 290 620 l 113 619 l 113 724 l 158 724 q 244 744 214 724 q 275 804 275 765 q 250 854 275 838 q 179 871 225 871 q 41 843 117 871 l 20 949 q 210 981 113 981 q 371 937 309 981 q 433 818 433 893 q 401 727 433 762 q 309 677 370 692 q 411 626 375 664 q 447 528 447 587 q 380 398 447 444 q 191 353 314 353 q 102 360 148 353 q 20 380 56 367 l 37 484 m 1179 126 l 1179 0 l 1046 0 l 1046 126 l 746 126 l 733 205 l 968 618 l 1179 618 l 1179 229 l 1253 229 l 1238 126 l 1179 126 m 885 229 l 1046 229 l 1046 518 l 885 229 z "},"¿":{"ha":608,"x_min":9,"x_max":621,"o":"m 488 539 l 273 539 l 273 729 l 488 729 l 488 539 m 221 -25 q 260 -110 221 -79 q 366 -140 300 -140 q 564 -87 444 -140 l 621 -232 q 483 -286 558 -267 q 336 -306 408 -306 q 99 -234 188 -306 q 9 -40 9 -163 q 28 70 9 26 q 72 140 46 114 q 142 199 97 165 q 216 260 188 231 q 264 337 244 289 q 283 461 283 386 l 479 461 q 456 292 479 357 q 399 192 432 227 q 317 122 367 157 q 244 57 267 86 q 221 -25 221 28 z "},"À":{"ha":945,"x_min":9,"x_max":937,"o":"m 315 1340 l 532 1117 l 475 1047 l 225 1221 l 315 1340 m 298 253 l 218 0 l 9 0 l 329 985 l 610 985 l 937 0 l 732 0 l 648 253 l 298 253 m 467 803 l 346 410 l 600 410 l 476 803 l 467 803 z "},"Á":{"ha":945,"x_min":9,"x_max":937,"o":"m 376 1117 l 593 1340 l 684 1221 l 433 1047 l 376 1117 m 298 253 l 218 0 l 9 0 l 329 985 l 610 985 l 937 0 l 732 0 l 648 253 l 298 253 m 467 803 l 346 410 l 600 410 l 476 803 l 467 803 z "},"Â":{"ha":945,"x_min":9,"x_max":937,"o":"m 290 1043 l 233 1112 l 450 1308 l 493 1308 l 710 1112 l 653 1043 l 471 1164 l 290 1043 m 298 253 l 218 0 l 9 0 l 329 985 l 610 985 l 937 0 l 732 0 l 648 253 l 298 253 m 467 803 l 346 410 l 600 410 l 476 803 l 467 803 z "},"Ã":{"ha":945,"x_min":9,"x_max":937,"o":"m 368 1287 q 436 1274 410 1287 q 490 1235 463 1260 q 531 1204 514 1214 q 571 1194 547 1194 q 613 1215 597 1194 q 628 1272 628 1236 l 745 1272 q 697 1129 745 1183 q 572 1075 650 1075 q 507 1089 534 1075 q 446 1131 479 1104 q 408 1160 423 1150 q 374 1169 392 1169 q 327 1148 345 1169 q 310 1090 310 1128 l 192 1090 q 239 1235 192 1182 q 368 1287 286 1287 m 298 253 l 218 0 l 9 0 l 329 985 l 610 985 l 937 0 l 732 0 l 648 253 l 298 253 m 467 803 l 346 410 l 600 410 l 476 803 l 467 803 z "},"Ä":{"ha":945,"x_min":9,"x_max":937,"o":"m 243 1251 l 412 1251 l 412 1088 l 243 1088 l 243 1251 m 530 1251 l 699 1251 l 699 1088 l 530 1088 l 530 1251 m 298 253 l 218 0 l 9 0 l 329 985 l 610 985 l 937 0 l 732 0 l 648 253 l 298 253 m 467 803 l 346 410 l 600 410 l 476 803 l 467 803 z "},"Å":{"ha":945,"x_min":9,"x_max":937,"o":"m 471 1419 q 566 1394 522 1419 q 636 1326 610 1369 q 663 1235 663 1283 q 636 1143 663 1186 q 566 1075 610 1100 q 471 1050 522 1050 q 375 1075 419 1050 q 304 1143 330 1100 q 278 1235 278 1186 q 304 1326 278 1284 q 375 1394 330 1369 q 471 1419 419 1419 m 471 1314 q 412 1291 435 1314 q 389 1235 389 1268 q 412 1177 389 1202 q 471 1153 436 1153 q 527 1177 504 1153 q 550 1235 550 1202 q 528 1291 550 1268 q 471 1314 505 1314 m 298 253 l 218 0 l 9 0 l 329 985 l 610 985 l 937 0 l 732 0 l 648 253 l 298 253 m 467 803 l 346 410 l 600 410 l 476 803 l 467 803 z "},"Æ":{"ha":1367,"x_min":5,"x_max":1315,"o":"m 685 256 l 358 256 l 221 0 l 5 0 l 546 985 l 1303 985 l 1303 832 l 896 832 l 896 583 l 1265 583 l 1265 432 l 896 432 l 896 154 l 1315 154 l 1315 0 l 685 0 l 685 256 m 685 406 l 685 864 l 439 406 l 685 406 z "},"Ç":{"ha":854,"x_min":52,"x_max":833,"o":"m 505 -62 q 578 -109 549 -77 q 608 -178 608 -142 q 571 -268 608 -236 q 479 -300 534 -300 q 347 -262 412 -300 l 378 -197 q 409 -209 390 -204 q 446 -214 428 -214 q 481 -203 468 -214 q 494 -172 494 -193 q 476 -137 494 -151 q 415 -114 457 -123 l 401 -78 l 454 -7 q 156 141 260 13 q 52 492 52 269 q 109 762 52 648 q 273 937 165 876 q 530 997 380 997 q 686 977 608 997 q 825 921 764 957 l 762 774 q 655 814 704 802 q 555 827 606 827 q 342 742 415 827 q 269 496 269 657 q 342 247 269 332 q 555 163 415 163 q 782 212 664 163 l 833 57 q 528 -11 681 -11 l 522 -11 l 505 -62 z "},"È":{"ha":815,"x_min":113,"x_max":768,"o":"m 286 1340 l 503 1117 l 446 1047 l 196 1221 l 286 1340 m 325 585 l 713 585 l 713 431 l 325 431 l 325 157 l 768 157 l 768 0 l 113 0 l 113 985 l 754 985 l 754 828 l 325 828 l 325 585 z "},"É":{"ha":815,"x_min":113,"x_max":768,"o":"m 347 1117 l 564 1340 l 654 1221 l 404 1047 l 347 1117 m 325 585 l 713 585 l 713 431 l 325 431 l 325 157 l 768 157 l 768 0 l 113 0 l 113 985 l 754 985 l 754 828 l 325 828 l 325 585 z "},"Ê":{"ha":815,"x_min":113,"x_max":768,"o":"m 260 1043 l 203 1112 l 419 1308 l 463 1308 l 679 1112 l 623 1043 l 440 1164 l 260 1043 m 325 585 l 713 585 l 713 431 l 325 431 l 325 157 l 768 157 l 768 0 l 113 0 l 113 985 l 754 985 l 754 828 l 325 828 l 325 585 z "},"Ë":{"ha":815,"x_min":113,"x_max":768,"o":"m 212 1251 l 382 1251 l 382 1088 l 212 1088 l 212 1251 m 500 1251 l 668 1251 l 668 1088 l 500 1088 l 500 1251 m 325 585 l 713 585 l 713 431 l 325 431 l 325 157 l 768 157 l 768 0 l 113 0 l 113 985 l 754 985 l 754 828 l 325 828 l 325 585 z "},"Ì":{"ha":436,"x_min":-26,"x_max":325,"o":"m 64 1340 l 281 1117 l 224 1047 l -26 1221 l 64 1340 m 113 985 l 325 985 l 325 0 l 113 0 l 113 985 z "},"Í":{"ha":436,"x_min":113,"x_max":432,"o":"m 125 1117 l 342 1340 l 432 1221 l 182 1047 l 125 1117 m 113 985 l 325 985 l 325 0 l 113 0 l 113 985 z "},"Î":{"ha":436,"x_min":-18,"x_max":458,"o":"m 39 1043 l -18 1112 l 199 1308 l 241 1308 l 458 1112 l 401 1043 l 220 1164 l 39 1043 m 113 985 l 325 985 l 325 0 l 113 0 l 113 985 z "},"Ï":{"ha":436,"x_min":-8,"x_max":447,"o":"m -8 1251 l 161 1251 l 161 1088 l -8 1088 l -8 1251 m 279 1251 l 447 1251 l 447 1088 l 279 1088 l 279 1251 m 113 985 l 325 985 l 325 0 l 113 0 l 113 985 z "},"Ð":{"ha":1005,"x_min":8,"x_max":957,"o":"m 446 985 q 827 862 697 985 q 957 497 957 739 q 826 126 957 253 q 446 0 696 0 l 114 0 l 114 419 l 8 419 l 8 562 l 114 562 l 114 985 l 446 985 m 468 157 q 670 241 602 157 q 739 494 739 326 q 468 828 739 828 l 325 828 l 325 562 l 500 562 l 500 419 l 325 419 l 325 157 l 468 157 z "},"Ñ":{"ha":1044,"x_min":113,"x_max":933,"o":"m 431 1169 q 384 1148 401 1169 q 367 1090 367 1128 l 249 1090 q 296 1235 249 1182 q 425 1287 343 1287 q 493 1274 467 1287 q 547 1235 519 1260 q 588 1204 571 1214 q 628 1194 604 1194 q 670 1215 654 1194 q 685 1272 685 1236 l 802 1272 q 754 1129 802 1183 q 629 1075 707 1075 q 564 1089 591 1075 q 503 1131 536 1104 q 465 1160 480 1150 q 431 1169 449 1169 m 458 436 q 306 682 410 505 l 306 0 l 113 0 l 113 985 l 281 985 l 581 557 q 739 307 637 476 l 739 985 l 933 985 l 933 0 l 764 0 l 458 436 z "},"Ò":{"ha":1046,"x_min":52,"x_max":996,"o":"m 367 1340 l 583 1117 l 526 1047 l 277 1221 l 367 1340 m 524 999 q 874 869 753 999 q 996 497 996 739 q 875 119 996 250 q 524 -12 754 -12 q 172 118 292 -12 q 52 497 52 249 q 173 869 52 739 q 524 999 294 999 m 524 832 q 334 747 397 832 q 271 497 271 663 q 335 241 271 329 q 524 154 399 154 q 712 241 648 154 q 777 497 777 329 q 712 747 777 661 q 524 832 648 832 z "},"Ó":{"ha":1046,"x_min":52,"x_max":996,"o":"m 428 1117 l 644 1340 l 734 1221 l 485 1047 l 428 1117 m 524 999 q 874 869 753 999 q 996 497 996 739 q 875 119 996 250 q 524 -12 754 -12 q 172 118 292 -12 q 52 497 52 249 q 173 869 52 739 q 524 999 294 999 m 524 832 q 334 747 397 832 q 271 497 271 663 q 335 241 271 329 q 524 154 399 154 q 712 241 648 154 q 777 497 777 329 q 712 747 777 661 q 524 832 648 832 z "},"Ô":{"ha":1046,"x_min":52,"x_max":996,"o":"m 340 1043 l 283 1112 l 500 1308 l 543 1308 l 760 1112 l 703 1043 l 521 1164 l 340 1043 m 524 999 q 874 869 753 999 q 996 497 996 739 q 875 119 996 250 q 524 -12 754 -12 q 172 118 292 -12 q 52 497 52 249 q 173 869 52 739 q 524 999 294 999 m 524 832 q 334 747 397 832 q 271 497 271 663 q 335 241 271 329 q 524 154 399 154 q 712 241 648 154 q 777 497 777 329 q 712 747 777 661 q 524 832 648 832 z "},"Õ":{"ha":1046,"x_min":52,"x_max":996,"o":"m 418 1287 q 486 1274 460 1287 q 541 1235 513 1260 q 581 1204 564 1214 q 621 1194 597 1194 q 662 1215 647 1194 q 677 1272 677 1236 l 794 1272 q 747 1129 794 1183 q 623 1075 700 1075 q 556 1089 584 1075 q 496 1131 529 1104 q 457 1160 473 1150 q 424 1169 441 1169 q 377 1148 395 1169 q 359 1090 359 1128 l 241 1090 q 289 1235 241 1182 q 418 1287 336 1287 m 524 999 q 874 869 753 999 q 996 497 996 739 q 875 119 996 250 q 524 -12 754 -12 q 172 118 292 -12 q 52 497 52 249 q 173 869 52 739 q 524 999 294 999 m 524 832 q 334 747 397 832 q 271 497 271 663 q 335 241 271 329 q 524 154 399 154 q 712 241 648 154 q 777 497 777 329 q 712 747 777 661 q 524 832 648 832 z "},"Ö":{"ha":1046,"x_min":52,"x_max":996,"o":"m 293 1251 l 463 1251 l 463 1088 l 293 1088 l 293 1251 m 581 1251 l 749 1251 l 749 1088 l 581 1088 l 581 1251 m 524 999 q 874 869 753 999 q 996 497 996 739 q 875 119 996 250 q 524 -12 754 -12 q 172 118 292 -12 q 52 497 52 249 q 173 869 52 739 q 524 999 294 999 m 524 832 q 334 747 397 832 q 271 497 271 663 q 335 241 271 329 q 524 154 399 154 q 712 241 648 154 q 777 497 777 329 q 712 747 777 661 q 524 832 648 832 z "},"×":{"ha":769,"x_min":58,"x_max":713,"o":"m 385 511 l 608 734 l 713 631 l 489 407 l 713 184 l 608 81 l 385 302 l 163 81 l 58 184 l 281 407 l 58 631 l 163 734 l 385 511 z "},"Ø":{"ha":1042,"x_min":50,"x_max":993,"o":"m 790 932 q 942 763 890 873 q 993 496 993 653 q 873 119 993 250 q 522 -12 753 -12 q 349 9 431 -12 l 319 -52 l 199 -52 l 249 54 q 101 226 152 114 q 50 496 50 338 q 172 867 50 737 q 522 997 293 997 q 692 975 619 997 l 721 1036 l 840 1036 l 790 932 m 268 496 q 336 235 269 321 l 615 817 q 521 832 572 832 q 332 747 396 832 q 268 496 268 661 m 521 154 q 710 241 646 154 q 774 496 774 329 q 704 753 774 667 l 425 170 q 521 154 468 154 z "},"Ù":{"ha":1005,"x_min":92,"x_max":914,"o":"m 347 1340 l 564 1117 l 507 1047 l 257 1221 l 347 1340 m 914 336 q 808 76 914 165 q 503 -14 703 -14 q 196 75 300 -14 q 92 336 92 164 l 92 985 l 304 985 l 304 334 q 503 154 304 155 q 701 334 701 154 l 701 985 l 914 985 l 914 336 z "},"Ú":{"ha":1005,"x_min":92,"x_max":914,"o":"m 408 1117 l 625 1340 l 715 1221 l 465 1047 l 408 1117 m 914 336 q 808 76 914 165 q 503 -14 703 -14 q 196 75 300 -14 q 92 336 92 164 l 92 985 l 304 985 l 304 334 q 503 154 304 155 q 701 334 701 154 l 701 985 l 914 985 l 914 336 z "},"Û":{"ha":1005,"x_min":92,"x_max":914,"o":"m 322 1043 l 265 1112 l 482 1308 l 525 1308 l 742 1112 l 685 1043 l 503 1164 l 322 1043 m 914 336 q 808 76 914 165 q 503 -14 703 -14 q 196 75 300 -14 q 92 336 92 164 l 92 985 l 304 985 l 304 334 q 503 154 304 155 q 701 334 701 154 l 701 985 l 914 985 l 914 336 z "},"Ü":{"ha":1005,"x_min":92,"x_max":914,"o":"m 273 1251 l 443 1251 l 443 1088 l 273 1088 l 273 1251 m 561 1251 l 729 1251 l 729 1088 l 561 1088 l 561 1251 m 914 336 q 808 76 914 165 q 503 -14 703 -14 q 196 75 300 -14 q 92 336 92 164 l 92 985 l 304 985 l 304 334 q 503 154 304 155 q 701 334 701 154 l 701 985 l 914 985 l 914 336 z "},"Ý":{"ha":863,"x_min":0,"x_max":864,"o":"m 336 1117 l 553 1340 l 643 1221 l 393 1047 l 336 1117 m 349 742 q 392 635 366 705 q 427 542 418 566 l 437 542 q 472 635 446 566 q 515 742 498 705 l 636 985 l 864 985 l 538 382 l 538 0 l 325 0 l 325 382 l 0 985 l 229 985 l 349 742 z "},"Þ":{"ha":848,"x_min":114,"x_max":823,"o":"m 453 796 q 728 717 633 796 q 823 486 823 637 q 727 256 823 339 q 457 174 631 174 l 325 174 l 325 0 l 114 0 l 114 985 l 325 985 l 325 796 l 453 796 m 444 330 q 572 369 530 330 q 614 485 614 407 q 573 603 614 566 q 444 640 532 640 l 325 640 l 325 330 l 444 330 z "},"ß":{"ha":854,"x_min":103,"x_max":828,"o":"m 103 760 q 189 951 103 884 q 431 1018 275 1018 q 652 956 568 1018 q 736 789 736 893 q 714 699 736 734 q 653 625 693 664 q 611 577 624 596 q 597 534 597 558 q 616 496 597 512 q 673 460 635 481 q 751 410 721 433 q 805 346 782 387 q 828 241 828 304 q 751 62 828 125 q 533 0 675 0 l 383 0 l 383 144 l 493 144 q 624 250 624 144 q 600 315 624 293 q 525 361 576 336 q 433 421 465 389 q 401 519 401 454 q 419 591 401 562 q 469 654 436 619 q 516 713 500 686 q 532 775 532 739 q 425 867 532 867 q 336 838 367 867 q 306 757 306 810 l 306 0 l 103 0 l 103 760 z "},"à":{"ha":772,"x_min":32,"x_max":693,"o":"m 229 1084 l 446 861 l 389 791 l 139 965 l 229 1084 m 375 742 q 611 666 529 742 q 693 446 693 590 l 693 0 l 521 0 l 497 86 q 396 14 452 39 q 277 -11 340 -11 q 98 47 164 -11 q 32 204 32 106 q 128 382 32 318 q 396 446 224 446 l 485 446 l 485 464 q 342 590 481 590 q 232 576 294 590 q 119 541 170 562 l 75 681 q 227 726 147 710 q 375 742 306 742 m 414 332 q 276 301 325 332 q 227 216 227 271 q 254 148 227 172 q 330 125 281 125 q 416 144 375 125 q 485 197 457 164 l 485 332 l 414 332 z "},"á":{"ha":772,"x_min":32,"x_max":693,"o":"m 290 861 l 507 1084 l 597 965 l 347 791 l 290 861 m 375 742 q 611 666 529 742 q 693 446 693 590 l 693 0 l 521 0 l 497 86 q 396 14 452 39 q 277 -11 340 -11 q 98 47 164 -11 q 32 204 32 106 q 128 382 32 318 q 396 446 224 446 l 485 446 l 485 464 q 342 590 481 590 q 232 576 294 590 q 119 541 170 562 l 75 681 q 227 726 147 710 q 375 742 306 742 m 414 332 q 276 301 325 332 q 227 216 227 271 q 254 148 227 172 q 330 125 281 125 q 416 144 375 125 q 485 197 457 164 l 485 332 l 414 332 z "},"â":{"ha":772,"x_min":32,"x_max":693,"o":"m 204 787 l 147 857 l 364 1053 l 407 1053 l 624 857 l 567 787 l 385 908 l 204 787 m 375 742 q 611 666 529 742 q 693 446 693 590 l 693 0 l 521 0 l 497 86 q 396 14 452 39 q 277 -11 340 -11 q 98 47 164 -11 q 32 204 32 106 q 128 382 32 318 q 396 446 224 446 l 485 446 l 485 464 q 342 590 481 590 q 232 576 294 590 q 119 541 170 562 l 75 681 q 227 726 147 710 q 375 742 306 742 m 414 332 q 276 301 325 332 q 227 216 227 271 q 254 148 227 172 q 330 125 281 125 q 416 144 375 125 q 485 197 457 164 l 485 332 l 414 332 z "},"ã":{"ha":772,"x_min":32,"x_max":693,"o":"m 282 1032 q 350 1018 323 1032 q 404 979 376 1004 q 445 948 428 958 q 485 939 461 939 q 527 960 511 939 q 542 1017 542 981 l 659 1017 q 611 873 659 928 q 486 819 564 819 q 420 834 448 819 q 359 875 393 848 q 321 904 337 895 q 288 914 306 914 q 241 893 258 914 q 224 835 224 872 l 106 835 q 153 979 106 926 q 282 1032 200 1032 m 375 742 q 611 666 529 742 q 693 446 693 590 l 693 0 l 521 0 l 497 86 q 396 14 452 39 q 277 -11 340 -11 q 98 47 164 -11 q 32 204 32 106 q 128 382 32 318 q 396 446 224 446 l 485 446 l 485 464 q 342 590 481 590 q 232 576 294 590 q 119 541 170 562 l 75 681 q 227 726 147 710 q 375 742 306 742 m 414 332 q 276 301 325 332 q 227 216 227 271 q 254 148 227 172 q 330 125 281 125 q 416 144 375 125 q 485 197 457 164 l 485 332 l 414 332 z "},"ä":{"ha":772,"x_min":32,"x_max":693,"o":"m 157 996 l 326 996 l 326 832 l 157 832 l 157 996 m 444 996 l 612 996 l 612 832 l 444 832 l 444 996 m 375 742 q 611 666 529 742 q 693 446 693 590 l 693 0 l 521 0 l 497 86 q 396 14 452 39 q 277 -11 340 -11 q 98 47 164 -11 q 32 204 32 106 q 128 382 32 318 q 396 446 224 446 l 485 446 l 485 464 q 342 590 481 590 q 232 576 294 590 q 119 541 170 562 l 75 681 q 227 726 147 710 q 375 742 306 742 m 414 332 q 276 301 325 332 q 227 216 227 271 q 254 148 227 172 q 330 125 281 125 q 416 144 375 125 q 485 197 457 164 l 485 332 l 414 332 z "},"å":{"ha":772,"x_min":32,"x_max":693,"o":"m 386 1164 q 481 1139 437 1164 q 551 1071 525 1114 q 578 979 578 1028 q 551 887 578 930 q 481 819 525 844 q 386 794 437 794 q 290 819 334 794 q 219 887 245 844 q 193 979 193 930 q 219 1071 193 1028 q 290 1139 245 1114 q 386 1164 335 1164 m 386 1059 q 327 1036 350 1059 q 304 979 304 1013 q 328 922 304 946 q 386 897 351 897 q 442 922 419 897 q 465 979 465 946 q 443 1036 465 1013 q 386 1059 421 1059 m 375 742 q 611 666 529 742 q 693 446 693 590 l 693 0 l 521 0 l 497 86 q 396 14 452 39 q 277 -11 340 -11 q 98 47 164 -11 q 32 204 32 106 q 128 382 32 318 q 396 446 224 446 l 485 446 l 485 464 q 342 590 481 590 q 232 576 294 590 q 119 541 170 562 l 75 681 q 227 726 147 710 q 375 742 306 742 m 414 332 q 276 301 325 332 q 227 216 227 271 q 254 148 227 172 q 330 125 281 125 q 416 144 375 125 q 485 197 457 164 l 485 332 l 414 332 z "},"æ":{"ha":1212,"x_min":35,"x_max":1168,"o":"m 679 325 q 871 139 694 139 q 1082 186 966 139 l 1132 62 q 847 -12 990 -13 q 591 92 683 -12 q 447 15 528 43 q 278 -14 367 -14 q 100 45 165 -14 q 35 201 35 103 q 129 381 35 317 q 396 446 224 446 l 485 446 l 485 464 q 342 590 481 590 q 231 576 293 590 q 119 541 168 562 l 75 676 q 227 721 147 705 q 376 737 306 737 q 602 648 529 737 q 846 739 692 739 q 1168 372 1168 739 l 1168 325 l 679 325 m 979 444 q 844 596 969 596 q 684 444 708 596 l 979 444 m 408 328 q 274 298 321 328 q 227 214 227 269 q 254 144 227 168 q 332 121 281 121 q 416 139 374 121 q 485 189 458 158 l 485 328 l 408 328 z "},"ç":{"ha":662,"x_min":45,"x_max":636,"o":"m 397 -62 q 470 -109 440 -77 q 500 -178 500 -142 q 463 -268 500 -236 q 371 -300 427 -300 q 239 -262 303 -300 l 269 -197 q 300 -209 281 -204 q 338 -214 319 -214 q 373 -203 360 -214 q 386 -172 386 -193 q 367 -137 386 -151 q 307 -114 349 -123 l 293 -78 l 346 -7 q 122 108 200 13 q 45 366 45 203 q 143 641 45 543 q 421 739 241 739 q 632 688 532 739 l 586 550 q 443 589 512 589 q 303 530 353 589 q 254 366 254 472 q 305 202 254 260 q 450 144 355 144 q 603 178 528 144 l 636 36 q 528 1 586 14 q 416 -11 469 -11 l 414 -11 l 397 -62 z "},"è":{"ha":780,"x_min":45,"x_max":737,"o":"m 467 861 l 410 791 l 160 965 l 250 1084 l 467 861 m 248 325 q 439 139 264 139 q 548 152 493 139 q 669 192 603 164 l 720 62 q 414 -14 554 -14 q 143 87 241 -14 q 45 366 45 187 q 141 643 45 543 q 411 742 237 742 q 737 372 737 742 l 737 325 l 248 325 m 546 446 q 412 597 537 597 q 303 560 343 597 q 252 446 264 522 l 546 446 z "},"é":{"ha":780,"x_min":45,"x_max":737,"o":"m 619 965 l 370 791 l 313 861 l 529 1084 l 619 965 m 248 325 q 439 139 264 139 q 548 152 493 139 q 669 192 603 164 l 720 62 q 414 -14 554 -14 q 143 87 241 -14 q 45 366 45 187 q 141 643 45 543 q 411 742 237 742 q 737 372 737 742 l 737 325 l 248 325 m 546 446 q 412 597 537 597 q 303 560 343 597 q 252 446 264 522 l 546 446 z "},"ê":{"ha":780,"x_min":45,"x_max":737,"o":"m 428 1053 l 644 857 l 587 787 l 406 908 l 225 787 l 168 857 l 385 1053 l 428 1053 m 248 325 q 439 139 264 139 q 548 152 493 139 q 669 192 603 164 l 720 62 q 414 -14 554 -14 q 143 87 241 -14 q 45 366 45 187 q 141 643 45 543 q 411 742 237 742 q 737 372 737 742 l 737 325 l 248 325 m 546 446 q 412 597 537 597 q 303 560 343 597 q 252 446 264 522 l 546 446 z "},"ë":{"ha":780,"x_min":45,"x_max":737,"o":"m 347 996 l 347 832 l 178 832 l 178 996 l 347 996 m 633 996 l 633 832 l 465 832 l 465 996 l 633 996 m 248 325 q 439 139 264 139 q 548 152 493 139 q 669 192 603 164 l 720 62 q 414 -14 554 -14 q 143 87 241 -14 q 45 366 45 187 q 141 643 45 543 q 411 742 237 742 q 737 372 737 742 l 737 325 l 248 325 m 546 446 q 412 597 537 597 q 303 560 343 597 q 252 446 264 522 l 546 446 z "},"ì":{"ha":410,"x_min":-39,"x_max":309,"o":"m 52 1084 l 268 861 l 211 791 l -39 965 l 52 1084 m 102 718 l 309 718 l 309 0 l 102 0 l 102 718 z "},"í":{"ha":410,"x_min":102,"x_max":419,"o":"m 113 861 l 329 1084 l 419 965 l 170 791 l 113 861 m 102 718 l 309 718 l 309 0 l 102 0 l 102 718 z "},"î":{"ha":410,"x_min":-32,"x_max":444,"o":"m 25 787 l -32 857 l 184 1053 l 228 1053 l 444 857 l 387 787 l 205 908 l 25 787 m 102 718 l 309 718 l 309 0 l 102 0 l 102 718 z "},"ï":{"ha":410,"x_min":-22,"x_max":433,"o":"m -22 996 l 147 996 l 147 832 l -22 832 l -22 996 m 265 996 l 433 996 l 433 832 l 265 832 l 265 996 m 102 718 l 309 718 l 309 0 l 102 0 l 102 718 z "},"ð":{"ha":823,"x_min":40,"x_max":768,"o":"m 484 937 q 694 721 619 851 q 768 416 768 590 q 672 100 768 212 q 406 -12 576 -12 q 137 83 233 -12 q 40 349 40 179 q 125 596 40 505 q 361 686 211 686 q 533 635 455 686 q 386 814 490 745 l 313 721 l 236 781 l 300 861 q 150 914 229 892 l 193 1054 q 397 983 303 1027 l 456 1057 l 530 999 l 484 937 m 403 143 q 527 211 486 143 q 568 422 568 279 q 566 490 568 446 q 404 549 499 549 q 282 498 323 549 q 240 350 240 447 q 282 197 240 250 q 403 143 325 143 z "},"ñ":{"ha":868,"x_min":98,"x_max":785,"o":"m 347 1032 q 415 1018 389 1032 q 469 979 441 1004 q 510 948 493 958 q 550 939 526 939 q 592 960 576 939 q 607 1017 607 981 l 724 1017 q 676 873 724 928 q 551 819 629 819 q 486 834 513 819 q 425 875 458 848 q 387 904 403 895 q 353 914 371 914 q 306 893 323 914 q 289 835 289 872 l 171 835 q 218 979 171 926 q 347 1032 265 1032 m 294 627 q 547 739 391 739 q 723 672 661 739 q 785 484 785 606 l 785 0 l 576 0 l 576 472 q 551 564 576 536 q 471 593 526 593 q 377 570 420 593 q 307 509 334 547 l 307 0 l 98 0 l 98 728 l 272 728 l 294 627 z "},"ò":{"ha":830,"x_min":45,"x_max":786,"o":"m 260 1084 l 476 861 l 419 791 l 170 965 l 260 1084 m 415 745 q 690 647 595 745 q 786 366 786 549 q 690 83 786 182 q 415 -16 595 -16 q 141 83 237 -16 q 45 366 45 182 q 140 647 45 549 q 415 745 236 745 m 415 589 q 254 366 254 589 q 415 142 254 142 q 576 366 576 142 q 415 589 576 589 z "},"ó":{"ha":830,"x_min":45,"x_max":786,"o":"m 321 861 l 538 1084 l 628 965 l 378 791 l 321 861 m 415 745 q 690 647 595 745 q 786 366 786 549 q 690 83 786 182 q 415 -16 595 -16 q 141 83 237 -16 q 45 366 45 182 q 140 647 45 549 q 415 745 236 745 m 415 589 q 254 366 254 589 q 415 142 254 142 q 576 366 576 142 q 415 589 576 589 z "},"ô":{"ha":830,"x_min":45,"x_max":786,"o":"m 235 787 l 178 857 l 395 1053 l 437 1053 l 654 857 l 597 787 l 415 908 l 235 787 m 415 745 q 690 647 595 745 q 786 366 786 549 q 690 83 786 182 q 415 -16 595 -16 q 141 83 237 -16 q 45 366 45 182 q 140 647 45 549 q 415 745 236 745 m 415 589 q 254 366 254 589 q 415 142 254 142 q 576 366 576 142 q 415 589 576 589 z "},"õ":{"ha":830,"x_min":45,"x_max":786,"o":"m 313 1032 q 380 1018 354 1032 q 435 979 407 1004 q 475 948 458 958 q 515 939 492 939 q 557 960 542 939 q 572 1017 572 981 l 689 1017 q 642 873 689 928 q 517 819 595 819 q 451 834 478 819 q 390 875 424 848 q 352 904 368 895 q 318 914 336 914 q 272 893 289 914 q 254 835 254 872 l 136 835 q 183 979 136 926 q 313 1032 231 1032 m 415 745 q 690 647 595 745 q 786 366 786 549 q 690 83 786 182 q 415 -16 595 -16 q 141 83 237 -16 q 45 366 45 182 q 140 647 45 549 q 415 745 236 745 m 415 589 q 254 366 254 589 q 415 142 254 142 q 576 366 576 142 q 415 589 576 589 z "},"ö":{"ha":830,"x_min":45,"x_max":786,"o":"m 186 996 l 355 996 l 355 832 l 186 832 l 186 996 m 473 996 l 642 996 l 642 832 l 473 832 l 473 996 m 415 745 q 690 647 595 745 q 786 366 786 549 q 690 83 786 182 q 415 -16 595 -16 q 141 83 237 -16 q 45 366 45 182 q 140 647 45 549 q 415 745 236 745 m 415 589 q 254 366 254 589 q 415 142 254 142 q 576 366 576 142 q 415 589 576 589 z "},"÷":{"ha":794,"x_min":45,"x_max":730,"o":"m 306 602 l 306 754 l 458 754 l 458 602 l 306 602 m 45 353 l 45 492 l 730 492 l 730 353 l 45 353 m 306 97 l 306 250 l 458 250 l 458 97 l 306 97 z "},"ø":{"ha":829,"x_min":45,"x_max":785,"o":"m 667 663 q 785 366 785 566 q 688 86 785 185 q 414 -12 591 -12 q 262 11 330 -12 l 218 -61 l 87 -61 l 165 64 q 45 366 45 161 q 140 642 45 545 q 414 739 236 739 q 568 715 500 739 l 612 787 l 745 787 l 667 663 m 254 366 q 272 237 254 286 l 482 576 q 414 589 453 589 q 294 534 333 589 q 254 366 254 479 m 414 142 q 535 197 494 142 q 575 366 575 252 q 558 488 575 441 l 350 153 q 414 142 379 142 z "},"ù":{"ha":872,"x_min":86,"x_max":771,"o":"m 275 1084 l 492 861 l 435 791 l 184 965 l 275 1084 m 294 256 q 319 165 294 193 q 400 136 345 136 q 493 158 449 136 q 562 220 536 180 l 562 728 l 771 728 l 771 0 l 599 0 l 575 102 q 467 18 529 46 q 329 -11 404 -11 q 149 55 211 -11 q 86 244 86 121 l 86 728 l 294 728 l 294 256 z "},"ú":{"ha":872,"x_min":86,"x_max":771,"o":"m 336 861 l 553 1084 l 643 965 l 393 791 l 336 861 m 294 256 q 319 165 294 193 q 400 136 345 136 q 493 158 449 136 q 562 220 536 180 l 562 728 l 771 728 l 771 0 l 599 0 l 575 102 q 467 18 529 46 q 329 -11 404 -11 q 149 55 211 -11 q 86 244 86 121 l 86 728 l 294 728 l 294 256 z "},"û":{"ha":872,"x_min":86,"x_max":771,"o":"m 249 787 l 192 857 l 408 1053 l 452 1053 l 668 857 l 611 787 l 429 908 l 249 787 m 294 256 q 319 165 294 193 q 400 136 345 136 q 493 158 449 136 q 562 220 536 180 l 562 728 l 771 728 l 771 0 l 599 0 l 575 102 q 467 18 529 46 q 329 -11 404 -11 q 149 55 211 -11 q 86 244 86 121 l 86 728 l 294 728 l 294 256 z "},"ü":{"ha":872,"x_min":86,"x_max":771,"o":"m 201 996 l 371 996 l 371 832 l 201 832 l 201 996 m 489 996 l 657 996 l 657 832 l 489 832 l 489 996 m 294 256 q 319 165 294 193 q 400 136 345 136 q 493 158 449 136 q 562 220 536 180 l 562 728 l 771 728 l 771 0 l 599 0 l 575 102 q 467 18 529 46 q 329 -11 404 -11 q 149 55 211 -11 q 86 244 86 121 l 86 728 l 294 728 l 294 256 z "},"ý":{"ha":751,"x_min":3,"x_max":750,"o":"m 603 965 l 353 791 l 296 861 l 513 1084 l 603 965 m 278 4 l 3 728 l 201 728 l 283 504 q 361 241 314 420 l 379 172 l 400 253 q 471 507 440 418 l 550 728 l 750 728 l 351 -318 l 161 -318 l 278 4 z "},"þ":{"ha":871,"x_min":103,"x_max":827,"o":"m 507 737 q 743 644 659 737 q 827 378 827 550 q 779 170 827 257 q 642 36 730 82 q 433 -11 554 -11 q 311 4 376 -11 l 311 -318 l 103 -318 l 103 1044 l 311 1044 l 311 659 q 401 719 353 700 q 507 737 449 737 m 421 131 q 566 192 515 131 q 616 371 616 253 q 464 590 616 591 q 369 560 408 590 q 311 476 329 530 l 311 146 q 372 134 351 136 q 421 131 392 131 z "},"ÿ":{"ha":751,"x_min":3,"x_max":750,"o":"m 330 996 l 330 832 l 161 832 l 161 996 l 330 996 m 616 996 l 616 832 l 449 832 l 449 996 l 616 996 m 278 4 l 3 728 l 201 728 l 283 504 q 361 241 314 420 l 379 172 l 400 253 q 471 507 440 418 l 550 728 l 750 728 l 351 -318 l 161 -318 l 278 4 z "},"Ā":{"ha":945,"x_min":9,"x_max":937,"o":"m 243 1231 l 701 1231 l 701 1101 l 243 1101 l 243 1231 m 298 253 l 218 0 l 9 0 l 329 985 l 610 985 l 937 0 l 732 0 l 648 253 l 298 253 m 467 803 l 346 410 l 600 410 l 476 803 l 467 803 z "},"ā":{"ha":772,"x_min":32,"x_max":693,"o":"m 157 975 l 615 975 l 615 846 l 157 846 l 157 975 m 375 742 q 611 666 529 742 q 693 446 693 590 l 693 0 l 521 0 l 497 86 q 396 14 452 39 q 277 -11 340 -11 q 98 47 164 -11 q 32 204 32 106 q 128 382 32 318 q 396 446 224 446 l 485 446 l 485 464 q 342 590 481 590 q 232 576 294 590 q 119 541 170 562 l 75 681 q 227 726 147 710 q 375 742 306 742 m 414 332 q 276 301 325 332 q 227 216 227 271 q 254 148 227 172 q 330 125 281 125 q 416 144 375 125 q 485 197 457 164 l 485 332 l 414 332 z "},"Ă":{"ha":945,"x_min":9,"x_max":937,"o":"m 692 1253 q 632 1106 692 1161 q 472 1051 572 1051 q 313 1106 372 1051 q 254 1253 254 1161 l 372 1253 q 399 1185 372 1210 q 472 1161 425 1161 q 546 1187 518 1161 q 574 1253 574 1213 l 692 1253 m 298 253 l 218 0 l 9 0 l 329 985 l 610 985 l 937 0 l 732 0 l 648 253 l 298 253 m 467 803 l 346 410 l 600 410 l 476 803 l 467 803 z "},"ă":{"ha":772,"x_min":32,"x_max":693,"o":"m 606 997 q 546 851 606 905 q 386 796 486 796 q 227 851 286 796 q 168 997 168 905 l 286 997 q 313 930 286 954 q 386 905 339 905 q 460 931 432 905 q 488 997 488 957 l 606 997 m 375 742 q 611 666 529 742 q 693 446 693 590 l 693 0 l 521 0 l 497 86 q 396 14 452 39 q 277 -11 340 -11 q 98 47 164 -11 q 32 204 32 106 q 128 382 32 318 q 396 446 224 446 l 485 446 l 485 464 q 342 590 481 590 q 232 576 294 590 q 119 541 170 562 l 75 681 q 227 726 147 710 q 375 742 306 742 m 414 332 q 276 301 325 332 q 227 216 227 271 q 254 148 227 172 q 330 125 281 125 q 416 144 375 125 q 485 197 457 164 l 485 332 l 414 332 z "},"Ą":{"ha":937,"x_min":5,"x_max":933,"o":"m 591 -182 q 631 -75 591 -126 q 728 0 671 -24 l 646 253 l 293 253 l 214 0 l 5 0 l 325 985 l 604 985 l 933 0 l 892 0 q 753 -154 753 -66 q 769 -196 753 -182 q 810 -211 785 -211 q 876 -196 843 -211 l 901 -267 q 818 -301 857 -290 q 733 -313 779 -313 q 632 -279 672 -313 q 591 -182 591 -245 m 467 821 l 338 410 l 599 410 l 467 821 z "},"ą":{"ha":774,"x_min":35,"x_max":694,"o":"m 382 -182 q 403 -110 382 -146 q 458 -45 424 -74 q 518 40 518 1 q 500 86 518 66 q 398 12 455 37 q 279 -14 342 -14 q 101 45 167 -14 q 35 201 35 103 q 130 381 35 317 q 397 446 225 446 l 486 446 l 486 464 q 345 590 482 590 q 235 576 297 590 q 121 541 172 562 l 78 676 q 229 721 150 705 q 378 737 307 737 q 612 665 530 737 q 694 456 694 593 l 694 0 q 583 -67 621 -28 q 545 -151 545 -106 q 561 -196 545 -180 q 602 -211 576 -211 q 668 -196 635 -211 l 693 -267 q 609 -301 647 -290 q 525 -313 571 -313 q 423 -279 464 -313 q 382 -182 382 -245 m 411 335 q 276 304 322 335 q 229 214 229 273 q 256 145 229 169 q 335 122 283 122 q 419 142 378 122 q 486 197 460 163 l 486 335 l 411 335 z "},"Ć":{"ha":854,"x_min":52,"x_max":833,"o":"m 392 1117 l 608 1340 l 699 1221 l 449 1047 l 392 1117 m 530 997 q 686 977 608 997 q 825 921 764 957 l 762 774 q 655 814 704 802 q 555 827 606 827 q 342 742 415 827 q 269 496 269 657 q 342 247 269 332 q 555 163 415 163 q 782 212 664 163 l 833 57 q 528 -11 681 -11 q 174 119 297 -11 q 52 492 52 249 q 109 762 52 648 q 273 937 165 876 q 530 997 380 997 z "},"ć":{"ha":662,"x_min":45,"x_max":636,"o":"m 288 861 l 504 1084 l 595 965 l 345 791 l 288 861 m 421 739 q 632 688 532 739 l 586 550 q 443 589 512 589 q 303 530 353 589 q 254 366 254 472 q 305 202 254 260 q 450 144 355 144 q 603 178 528 144 l 636 36 q 528 1 586 14 q 416 -11 469 -11 q 140 86 236 -11 q 45 366 45 183 q 143 641 45 543 q 421 739 241 739 z "},"Ĉ":{"ha":854,"x_min":52,"x_max":833,"o":"m 304 1043 l 248 1112 l 464 1308 l 507 1308 l 724 1112 l 667 1043 l 485 1164 l 304 1043 m 530 997 q 686 977 608 997 q 825 921 764 957 l 762 774 q 655 814 704 802 q 555 827 606 827 q 342 742 415 827 q 269 496 269 657 q 342 247 269 332 q 555 163 415 163 q 782 212 664 163 l 833 57 q 528 -11 681 -11 q 174 119 297 -11 q 52 492 52 249 q 109 762 52 648 q 273 937 165 876 q 530 997 380 997 z "},"ĉ":{"ha":662,"x_min":45,"x_max":636,"o":"m 201 787 l 144 857 l 361 1053 l 404 1053 l 621 857 l 564 787 l 382 908 l 201 787 m 421 739 q 632 688 532 739 l 586 550 q 443 589 512 589 q 303 530 353 589 q 254 366 254 472 q 305 202 254 260 q 450 144 355 144 q 603 178 528 144 l 636 36 q 528 1 586 14 q 416 -11 469 -11 q 140 86 236 -11 q 45 366 45 183 q 143 641 45 543 q 421 739 241 739 z "},"Ċ":{"ha":854,"x_min":52,"x_max":833,"o":"m 401 1255 l 571 1255 l 571 1092 l 401 1092 l 401 1255 m 530 997 q 686 977 608 997 q 825 921 764 957 l 762 774 q 655 814 704 802 q 555 827 606 827 q 342 742 415 827 q 269 496 269 657 q 342 247 269 332 q 555 163 415 163 q 782 212 664 163 l 833 57 q 528 -11 681 -11 q 174 119 297 -11 q 52 492 52 249 q 109 762 52 648 q 273 937 165 876 q 530 997 380 997 z "},"ċ":{"ha":662,"x_min":45,"x_max":636,"o":"m 298 1000 l 468 1000 l 468 836 l 298 836 l 298 1000 m 421 739 q 632 688 532 739 l 586 550 q 443 589 512 589 q 303 530 353 589 q 254 366 254 472 q 305 202 254 260 q 450 144 355 144 q 603 178 528 144 l 636 36 q 528 1 586 14 q 416 -11 469 -11 q 140 86 236 -11 q 45 366 45 183 q 143 641 45 543 q 421 739 241 739 z "},"Č":{"ha":854,"x_min":52,"x_max":833,"o":"m 250 1249 l 307 1318 l 488 1197 l 669 1318 l 726 1249 l 510 1053 l 467 1053 l 250 1249 m 530 997 q 686 977 608 997 q 825 921 764 957 l 762 774 q 655 814 704 802 q 555 827 606 827 q 342 742 415 827 q 269 496 269 657 q 342 247 269 332 q 555 163 415 163 q 782 212 664 163 l 833 57 q 528 -11 681 -11 q 174 119 297 -11 q 52 492 52 249 q 109 762 52 648 q 273 937 165 876 q 530 997 380 997 z "},"č":{"ha":662,"x_min":45,"x_max":636,"o":"m 147 993 l 204 1063 l 385 942 l 567 1063 l 624 993 l 407 798 l 364 798 l 147 993 m 421 739 q 632 688 532 739 l 586 550 q 443 589 512 589 q 303 530 353 589 q 254 366 254 472 q 305 202 254 260 q 450 144 355 144 q 603 178 528 144 l 636 36 q 528 1 586 14 q 416 -11 469 -11 q 140 86 236 -11 q 45 366 45 183 q 143 641 45 543 q 421 739 241 739 z "},"Ď":{"ha":1005,"x_min":113,"x_max":954,"o":"m 249 1249 l 306 1318 l 486 1197 l 668 1318 l 725 1249 l 509 1053 l 465 1053 l 249 1249 m 443 985 q 826 862 697 985 q 954 497 954 739 q 824 126 954 253 q 443 0 694 0 l 113 0 l 113 985 l 443 985 m 457 158 q 665 243 595 158 q 736 494 736 328 q 666 742 736 659 q 457 825 596 825 l 322 825 l 322 158 l 457 158 z "},"ď":{"ha":962,"x_min":45,"x_max":1017,"o":"m 867 1067 l 1017 1044 l 953 771 l 864 781 l 867 1067 m 608 1 l 576 87 q 479 14 530 37 q 363 -9 428 -9 q 129 85 213 -9 q 45 350 45 179 q 150 635 45 532 q 437 739 254 739 q 559 725 490 739 l 559 1044 l 768 1044 l 768 1 l 608 1 m 406 138 q 501 168 460 138 q 559 253 542 199 l 559 582 q 498 595 519 591 q 449 599 476 599 q 304 537 355 599 q 254 357 254 476 q 406 138 254 137 z "},"Đ":{"ha":1005,"x_min":8,"x_max":957,"o":"m 446 985 q 827 862 697 985 q 957 497 957 739 q 826 126 957 253 q 446 0 696 0 l 114 0 l 114 419 l 8 419 l 8 562 l 114 562 l 114 985 l 446 985 m 468 157 q 670 241 602 157 q 739 494 739 326 q 468 828 739 828 l 325 828 l 325 562 l 500 562 l 500 419 l 325 419 l 325 157 l 468 157 z "},"đ":{"ha":863,"x_min":43,"x_max":848,"o":"m 762 806 l 762 1 l 603 1 l 572 87 q 474 14 525 37 q 358 -9 422 -9 q 125 83 208 -9 q 43 343 43 175 q 147 624 43 522 q 432 726 252 726 q 554 711 482 726 l 554 806 l 386 806 l 386 939 l 554 939 l 554 1044 l 762 1044 l 762 939 l 848 939 l 848 806 l 762 806 m 443 585 q 302 525 351 585 q 253 350 253 465 q 400 138 253 138 q 496 169 456 138 q 554 254 536 200 l 554 570 q 491 582 511 579 q 443 585 471 585 z "},"Ē":{"ha":815,"x_min":113,"x_max":768,"o":"m 212 1231 l 671 1231 l 671 1101 l 212 1101 l 212 1231 m 325 585 l 713 585 l 713 431 l 325 431 l 325 157 l 768 157 l 768 0 l 113 0 l 113 985 l 754 985 l 754 828 l 325 828 l 325 585 z "},"ē":{"ha":780,"x_min":45,"x_max":737,"o":"m 636 975 l 636 846 l 178 846 l 178 975 l 636 975 m 248 325 q 439 139 264 139 q 548 152 493 139 q 669 192 603 164 l 720 62 q 414 -14 554 -14 q 143 87 241 -14 q 45 366 45 187 q 141 643 45 543 q 411 742 237 742 q 737 372 737 742 l 737 325 l 248 325 m 546 446 q 412 597 537 597 q 303 560 343 597 q 252 446 264 522 l 546 446 z "},"Ĕ":{"ha":815,"x_min":113,"x_max":768,"o":"m 663 1253 q 603 1106 663 1161 q 443 1051 543 1051 q 284 1106 343 1051 q 225 1253 225 1161 l 343 1253 q 370 1185 343 1210 q 443 1161 396 1161 q 517 1187 489 1161 q 545 1253 545 1213 l 663 1253 m 325 585 l 713 585 l 713 431 l 325 431 l 325 157 l 768 157 l 768 0 l 113 0 l 113 985 l 754 985 l 754 828 l 325 828 l 325 585 z "},"ĕ":{"ha":780,"x_min":45,"x_max":737,"o":"m 407 796 q 248 851 307 796 q 189 997 189 905 l 307 997 q 333 930 307 954 q 407 905 359 905 q 481 931 453 905 q 509 997 509 957 l 627 997 q 567 851 627 905 q 407 796 507 796 m 248 325 q 439 139 264 139 q 548 152 493 139 q 669 192 603 164 l 720 62 q 414 -14 554 -14 q 143 87 241 -14 q 45 366 45 187 q 141 643 45 543 q 411 742 237 742 q 737 372 737 742 l 737 325 l 248 325 m 546 446 q 412 597 537 597 q 303 560 343 597 q 252 446 264 522 l 546 446 z "},"Ė":{"ha":815,"x_min":113,"x_max":768,"o":"m 357 1255 l 526 1255 l 526 1092 l 357 1092 l 357 1255 m 325 585 l 713 585 l 713 431 l 325 431 l 325 157 l 768 157 l 768 0 l 113 0 l 113 985 l 754 985 l 754 828 l 325 828 l 325 585 z "},"ė":{"ha":780,"x_min":45,"x_max":737,"o":"m 492 1000 l 492 836 l 322 836 l 322 1000 l 492 1000 m 248 325 q 439 139 264 139 q 548 152 493 139 q 669 192 603 164 l 720 62 q 414 -14 554 -14 q 143 87 241 -14 q 45 366 45 187 q 141 643 45 543 q 411 742 237 742 q 737 372 737 742 l 737 325 l 248 325 m 546 446 q 412 597 537 597 q 303 560 343 597 q 252 446 264 522 l 546 446 z "},"Ę":{"ha":821,"x_min":114,"x_max":770,"o":"m 439 -182 q 478 -75 439 -126 q 575 0 518 -24 l 114 0 l 114 985 l 757 985 l 757 828 l 326 828 l 326 585 l 715 585 l 715 431 l 326 431 l 326 157 l 770 157 l 770 0 l 745 0 q 600 -154 600 -66 q 616 -196 600 -182 q 657 -211 632 -211 q 724 -196 690 -211 l 749 -267 q 666 -301 704 -290 q 582 -313 628 -313 q 479 -279 519 -313 q 439 -182 439 -245 z "},"ę":{"ha":783,"x_min":45,"x_max":737,"o":"m 404 -161 q 424 -82 404 -119 q 479 -14 444 -45 l 476 -7 q 414 -11 439 -11 q 143 89 241 -11 q 45 366 45 189 q 142 641 45 542 q 411 741 239 741 q 737 372 737 741 l 737 325 l 248 325 l 248 318 q 300 188 252 237 q 439 138 349 138 q 545 150 490 138 q 669 191 599 163 l 721 66 q 605 -22 644 24 q 566 -122 566 -68 q 582 -173 566 -155 q 625 -191 599 -191 q 692 -175 659 -191 l 717 -248 q 633 -282 671 -271 q 550 -293 595 -293 q 446 -258 488 -293 q 404 -161 404 -224 m 546 444 q 412 596 537 596 q 252 444 276 596 l 546 444 z "},"Ě":{"ha":815,"x_min":113,"x_max":768,"o":"m 205 1249 l 262 1318 l 443 1197 l 625 1318 l 682 1249 l 465 1053 l 422 1053 l 205 1249 m 325 585 l 713 585 l 713 431 l 325 431 l 325 157 l 768 157 l 768 0 l 113 0 l 113 985 l 754 985 l 754 828 l 325 828 l 325 585 z "},"ě":{"ha":780,"x_min":45,"x_max":737,"o":"m 408 942 l 590 1063 l 647 993 l 431 798 l 387 798 l 171 993 l 228 1063 l 408 942 m 248 325 q 439 139 264 139 q 548 152 493 139 q 669 192 603 164 l 720 62 q 414 -14 554 -14 q 143 87 241 -14 q 45 366 45 187 q 141 643 45 543 q 411 742 237 742 q 737 372 737 742 l 737 325 l 248 325 m 546 446 q 412 597 537 597 q 303 560 343 597 q 252 446 264 522 l 546 446 z "},"Ĝ":{"ha":936,"x_min":52,"x_max":871,"o":"m 529 1308 l 746 1112 l 689 1043 l 507 1164 l 326 1043 l 269 1112 l 486 1308 l 529 1308 m 871 61 q 705 8 793 26 q 532 -11 616 -11 q 177 120 302 -11 q 52 492 52 252 q 181 865 52 733 q 549 997 311 997 q 715 977 632 997 q 865 921 799 957 l 803 771 q 680 813 732 800 q 574 827 627 827 q 347 743 424 827 q 269 496 269 659 q 341 245 269 334 q 543 157 412 157 q 673 175 610 157 l 673 500 l 871 500 l 871 61 z "},"ĝ":{"ha":869,"x_min":45,"x_max":770,"o":"m 243 787 l 186 857 l 403 1053 l 446 1053 l 663 857 l 606 787 l 424 908 l 243 787 m 406 734 q 502 720 457 734 q 581 677 547 705 l 602 728 l 770 728 l 770 12 q 670 -236 770 -151 q 397 -321 570 -321 q 224 -301 310 -321 q 71 -243 138 -281 l 135 -107 q 254 -152 184 -134 q 385 -171 325 -171 q 515 -127 469 -171 q 561 1 561 -83 l 561 78 q 364 -1 477 -1 q 129 92 213 -1 q 45 353 45 184 q 140 633 45 532 q 406 734 236 734 m 444 596 q 304 535 353 596 q 256 359 256 475 q 295 201 256 256 q 407 146 334 146 q 504 178 463 146 q 561 264 546 210 l 561 566 q 444 596 508 596 z "},"Ğ":{"ha":936,"x_min":52,"x_max":871,"o":"m 509 1051 q 349 1106 408 1051 q 290 1253 290 1161 l 408 1253 q 435 1185 408 1210 q 509 1161 461 1161 q 582 1187 555 1161 q 610 1253 610 1213 l 728 1253 q 668 1106 728 1161 q 509 1051 608 1051 m 871 61 q 705 8 793 26 q 532 -11 616 -11 q 177 120 302 -11 q 52 492 52 252 q 181 865 52 733 q 549 997 311 997 q 715 977 632 997 q 865 921 799 957 l 803 771 q 680 813 732 800 q 574 827 627 827 q 347 743 424 827 q 269 496 269 659 q 341 245 269 334 q 543 157 412 157 q 673 175 610 157 l 673 500 l 871 500 l 871 61 z "},"ğ":{"ha":869,"x_min":45,"x_max":770,"o":"m 644 997 q 585 851 644 905 q 425 796 525 796 q 266 851 326 796 q 207 997 207 905 l 325 997 q 351 930 325 954 q 425 905 378 905 q 499 931 471 905 q 526 997 526 957 l 644 997 m 406 734 q 502 720 457 734 q 581 677 547 705 l 602 728 l 770 728 l 770 12 q 670 -236 770 -151 q 397 -321 570 -321 q 224 -301 310 -321 q 71 -243 138 -281 l 135 -107 q 254 -152 184 -134 q 385 -171 325 -171 q 515 -127 469 -171 q 561 1 561 -83 l 561 78 q 364 -1 477 -1 q 129 92 213 -1 q 45 353 45 184 q 140 633 45 532 q 406 734 236 734 m 444 596 q 304 535 353 596 q 256 359 256 475 q 295 201 256 256 q 407 146 334 146 q 504 178 463 146 q 561 264 546 210 l 561 566 q 444 596 508 596 z "},"Ġ":{"ha":936,"x_min":52,"x_max":871,"o":"m 593 1255 l 593 1092 l 424 1092 l 424 1255 l 593 1255 m 871 61 q 705 8 793 26 q 532 -11 616 -11 q 177 120 302 -11 q 52 492 52 252 q 181 865 52 733 q 549 997 311 997 q 715 977 632 997 q 865 921 799 957 l 803 771 q 680 813 732 800 q 574 827 627 827 q 347 743 424 827 q 269 496 269 659 q 341 245 269 334 q 543 157 412 157 q 673 175 610 157 l 673 500 l 871 500 l 871 61 z "},"ġ":{"ha":869,"x_min":45,"x_max":770,"o":"m 340 1000 l 510 1000 l 510 836 l 340 836 l 340 1000 m 406 734 q 502 720 457 734 q 581 677 547 705 l 602 728 l 770 728 l 770 12 q 670 -236 770 -151 q 397 -321 570 -321 q 224 -301 310 -321 q 71 -243 138 -281 l 135 -107 q 254 -152 184 -134 q 385 -171 325 -171 q 515 -127 469 -171 q 561 1 561 -83 l 561 78 q 364 -1 477 -1 q 129 92 213 -1 q 45 353 45 184 q 140 633 45 532 q 406 734 236 734 m 444 596 q 304 535 353 596 q 256 359 256 475 q 295 201 256 256 q 407 146 334 146 q 504 178 463 146 q 561 264 546 210 l 561 566 q 444 596 508 596 z "},"Ģ":{"ha":936,"x_min":52,"x_max":871,"o":"m 871 61 q 705 8 793 26 q 532 -11 616 -11 q 177 120 302 -11 q 52 492 52 252 q 181 865 52 733 q 549 997 311 997 q 715 977 632 997 q 865 921 799 957 l 803 771 q 680 813 732 800 q 574 827 627 827 q 347 743 424 827 q 269 496 269 659 q 341 245 269 334 q 543 157 412 157 q 673 175 610 157 l 673 500 l 871 500 l 871 61 m 392 -306 q 426 -184 415 -241 q 437 -62 436 -127 l 602 -62 q 572 -182 593 -129 q 505 -306 551 -235 l 392 -306 z "},"Ĥ":{"ha":1057,"x_min":113,"x_max":945,"o":"m 346 1043 l 289 1112 l 505 1308 l 549 1308 l 765 1112 l 708 1043 l 526 1164 l 346 1043 m 732 985 l 945 985 l 945 0 l 732 0 l 732 421 l 325 421 l 325 0 l 113 0 l 113 985 l 325 985 l 325 582 l 732 582 l 732 985 z "},"ĥ":{"ha":869,"x_min":-35,"x_max":786,"o":"m 22 1061 l -35 1131 l 182 1326 l 225 1326 l 441 1131 l 385 1061 l 203 1182 l 22 1061 m 309 639 q 415 713 354 688 q 549 739 476 739 q 724 673 663 739 q 786 484 786 607 l 786 0 l 578 0 l 578 472 q 553 564 578 536 q 472 593 528 593 q 378 570 422 593 q 309 509 335 547 l 309 0 l 100 0 l 100 1047 l 309 1047 l 309 639 z "},"Ħ":{"ha":1061,"x_min":26,"x_max":1035,"o":"m 734 0 l 734 421 l 326 421 l 326 0 l 114 0 l 114 710 l 26 710 l 26 847 l 114 847 l 114 985 l 326 985 l 326 847 l 734 847 l 734 985 l 947 985 l 947 847 l 1035 847 l 1035 710 l 947 710 l 947 0 l 734 0 m 734 582 l 734 710 l 326 710 l 326 582 l 734 582 z "},"ħ":{"ha":875,"x_min":17,"x_max":789,"o":"m 311 793 l 311 621 q 418 695 357 669 q 550 721 479 721 q 727 655 665 721 q 789 465 789 589 l 789 0 l 581 0 l 581 454 q 555 547 581 518 q 473 575 529 575 q 381 552 425 575 q 311 490 338 529 l 311 0 l 103 0 l 103 793 l 17 793 l 17 932 l 103 932 l 103 1047 l 311 1047 l 311 932 l 479 932 l 479 793 l 311 793 z "},"Ĩ":{"ha":436,"x_min":-4,"x_max":446,"o":"m 140 1284 q 190 1271 171 1284 q 231 1235 210 1258 q 262 1204 249 1214 q 294 1194 275 1194 q 327 1215 315 1194 q 339 1272 339 1236 l 446 1272 q 408 1131 446 1185 q 307 1078 370 1078 q 257 1091 277 1078 q 211 1132 237 1104 q 181 1160 193 1152 q 154 1169 170 1169 q 117 1148 130 1169 q 103 1090 103 1128 l -4 1090 q 34 1233 -4 1181 q 140 1284 72 1284 m 113 985 l 325 985 l 325 0 l 113 0 l 113 985 z "},"ĩ":{"ha":410,"x_min":-18,"x_max":432,"o":"m 126 1029 q 176 1016 157 1029 q 216 979 196 1003 q 248 948 235 958 q 281 939 261 939 q 313 960 302 939 q 325 1017 325 981 l 432 1017 q 394 876 432 929 q 293 822 355 822 q 243 835 262 822 q 197 876 224 848 q 167 905 179 896 q 140 914 155 914 q 103 893 117 914 q 89 835 89 872 l -18 835 q 20 977 -18 925 q 126 1029 58 1029 m 102 718 l 309 718 l 309 0 l 102 0 l 102 718 z "},"Ī":{"ha":436,"x_min":-8,"x_max":450,"o":"m -8 1231 l 450 1231 l 450 1101 l -8 1101 l -8 1231 m 113 985 l 325 985 l 325 0 l 113 0 l 113 985 z "},"ī":{"ha":410,"x_min":-22,"x_max":436,"o":"m -22 975 l 436 975 l 436 846 l -22 846 l -22 975 m 102 718 l 309 718 l 309 0 l 102 0 l 102 718 z "},"Ĭ":{"ha":436,"x_min":3,"x_max":440,"o":"m 440 1253 q 380 1106 440 1161 q 221 1051 321 1051 q 62 1106 121 1051 q 3 1253 3 1161 l 121 1253 q 147 1185 121 1210 q 221 1161 174 1161 q 295 1187 267 1161 q 322 1253 322 1213 l 440 1253 m 113 985 l 325 985 l 325 0 l 113 0 l 113 985 z "},"ĭ":{"ha":410,"x_min":-11,"x_max":427,"o":"m 427 997 q 367 851 427 905 q 207 796 307 796 q 48 851 107 796 q -11 997 -11 905 l 107 997 q 134 930 107 954 q 207 905 160 905 q 281 931 253 905 q 309 997 309 957 l 427 997 m 102 718 l 309 718 l 309 0 l 102 0 l 102 718 z "},"Į":{"ha":440,"x_min":41,"x_max":357,"o":"m 41 -180 q 73 -80 41 -126 q 155 0 104 -33 l 114 0 l 114 985 l 326 985 l 326 0 l 311 0 q 204 -146 204 -60 q 219 -193 204 -175 q 265 -211 233 -211 q 332 -196 298 -211 l 357 -267 q 273 -301 311 -290 q 189 -313 235 -313 q 83 -275 125 -313 q 41 -180 41 -237 z "},"į":{"ha":411,"x_min":37,"x_max":353,"o":"m 102 1021 l 310 1021 l 310 831 l 102 831 l 102 1021 m 37 -180 q 72 -80 37 -127 q 155 0 107 -32 l 102 0 l 102 720 l 310 720 l 310 0 q 200 -146 200 -62 q 215 -193 200 -175 q 260 -211 229 -211 q 326 -196 296 -211 l 353 -267 q 269 -301 307 -290 q 184 -313 231 -313 q 79 -275 121 -313 q 37 -180 37 -237 z "},"İ":{"ha":436,"x_min":113,"x_max":325,"o":"m 136 1255 l 306 1255 l 306 1092 l 136 1092 l 136 1255 m 113 985 l 325 985 l 325 0 l 113 0 l 113 985 z "},"ı":{"ha":410,"x_min":102,"x_max":309,"o":"m 102 718 l 309 718 l 309 0 l 102 0 l 102 718 z "},"Ĳ":{"ha":905,"x_min":85,"x_max":812,"o":"m 812 309 q 720 68 812 150 q 449 -14 628 -14 q 85 309 85 -14 l 85 697 l 297 697 l 297 306 q 334 191 297 228 q 449 154 371 154 q 564 192 527 154 q 600 306 600 229 l 600 827 l 443 827 l 443 985 l 812 985 l 812 309 m 297 985 l 297 817 l 85 817 l 85 985 l 297 985 z "},"ĳ":{"ha":852,"x_min":87,"x_max":754,"o":"m 89 1003 l 754 1003 l 754 844 l 89 844 l 89 1003 m 754 138 q 692 -76 754 28 q 510 -273 629 -180 l 404 -195 q 532 37 501 -75 q 346 -8 448 -9 q 156 53 224 -8 q 87 235 87 114 l 87 728 l 296 728 l 296 240 q 331 161 296 189 q 419 134 366 134 q 546 186 486 134 l 546 728 l 754 728 l 754 138 z "},"Ĵ":{"ha":517,"x_min":-14,"x_max":475,"o":"m 56 1043 l -1 1112 l 215 1308 l 258 1308 l 475 1112 l 418 1043 l 236 1164 l 56 1043 m -14 -89 q 201 199 201 24 l 201 828 l 12 828 l 12 985 l 411 985 l 411 196 q 317 -42 411 67 q 56 -215 224 -151 l -14 -89 z "},"ĵ":{"ha":412,"x_min":-37,"x_max":446,"o":"m 26 787 l -31 857 l 186 1053 l 229 1053 l 446 857 l 389 787 l 207 908 l 26 787 m -37 -195 q 71 -22 36 -103 q 106 138 106 58 l 106 718 l 314 718 l 314 138 q 252 -76 314 28 q 68 -273 189 -180 l -37 -195 z "},"Ķ":{"ha":948,"x_min":113,"x_max":946,"o":"m 113 985 l 325 985 l 325 0 l 113 0 l 113 985 m 946 0 l 704 0 l 345 526 l 673 985 l 913 985 l 575 529 l 946 0 m 595 -62 q 565 -182 586 -129 q 498 -306 545 -235 l 385 -306 q 419 -185 408 -242 q 431 -62 429 -127 l 595 -62 z "},"ķ":{"ha":812,"x_min":100,"x_max":817,"o":"m 100 1048 l 309 1048 l 309 0 l 100 0 l 100 1048 m 817 0 l 585 0 l 322 404 l 553 728 l 774 728 l 539 411 l 817 0 m 526 -62 q 497 -182 518 -129 q 431 -306 476 -235 l 317 -306 q 351 -185 340 -242 q 363 -62 361 -127 l 526 -62 z "},"ĸ":{"ha":819,"x_min":102,"x_max":817,"o":"m 102 728 l 310 728 l 310 0 l 102 0 l 102 728 m 817 0 l 585 0 l 322 404 l 572 728 l 794 728 l 539 411 l 817 0 z "},"Ĺ":{"ha":739,"x_min":113,"x_max":729,"o":"m 123 1100 l 340 1324 l 431 1204 l 180 1031 l 123 1100 m 729 0 l 113 0 l 113 985 l 315 985 l 315 161 l 729 161 l 729 0 z "},"ĺ":{"ha":414,"x_min":103,"x_max":421,"o":"m 114 1135 l 330 1358 l 421 1239 l 171 1065 l 114 1135 m 103 1044 l 311 1044 l 311 0 l 103 0 l 103 1044 z "},"Ļ":{"ha":739,"x_min":113,"x_max":729,"o":"m 729 0 l 113 0 l 113 985 l 315 985 l 315 161 l 729 161 l 729 0 m 538 -62 q 508 -182 529 -129 q 441 -306 488 -235 l 328 -306 q 362 -185 351 -242 q 374 -62 372 -127 l 538 -62 z "},"ļ":{"ha":414,"x_min":92,"x_max":311,"o":"m 103 1044 l 311 1044 l 311 0 l 103 0 l 103 1044 m 301 -62 q 272 -182 293 -129 q 205 -306 252 -235 l 92 -306 q 126 -185 115 -242 q 138 -62 136 -127 l 301 -62 z "},"Ľ":{"ha":737,"x_min":113,"x_max":729,"o":"m 561 996 l 711 974 l 647 700 l 558 710 l 561 996 m 729 0 l 113 0 l 113 985 l 315 985 l 315 161 l 729 161 l 729 0 z "},"ľ":{"ha":558,"x_min":103,"x_max":585,"o":"m 436 1093 l 585 1071 l 521 798 l 432 807 l 436 1093 m 103 1044 l 311 1044 l 311 0 l 103 0 l 103 1044 z "},"Ŀ":{"ha":741,"x_min":113,"x_max":729,"o":"m 729 0 l 113 0 l 113 985 l 315 985 l 315 161 l 729 161 l 729 0 m 534 636 l 703 636 l 703 472 l 534 472 l 534 636 z "},"ŀ":{"ha":554,"x_min":103,"x_max":566,"o":"m 103 1044 l 311 1044 l 311 0 l 103 0 l 103 1044 m 397 623 l 566 623 l 566 457 l 397 457 l 397 623 z "},"Ł":{"ha":730,"x_min":20,"x_max":726,"o":"m 114 380 l 20 332 l 20 493 l 114 542 l 114 985 l 318 985 l 318 644 l 564 770 l 564 608 l 318 484 l 318 158 l 726 158 l 726 0 l 114 0 l 114 380 z "},"ł":{"ha":450,"x_min":21,"x_max":428,"o":"m 121 0 l 121 419 l 21 361 l 21 521 l 121 579 l 121 1047 l 329 1047 l 329 700 l 428 757 l 428 596 l 329 539 l 329 0 l 121 0 z "},"Ń":{"ha":1044,"x_min":113,"x_max":933,"o":"m 742 1221 l 492 1047 l 435 1117 l 652 1340 l 742 1221 m 458 436 q 306 682 410 505 l 306 0 l 113 0 l 113 985 l 281 985 l 581 557 q 739 307 637 476 l 739 985 l 933 985 l 933 0 l 764 0 l 458 436 z "},"ń":{"ha":868,"x_min":98,"x_max":785,"o":"m 357 861 l 574 1084 l 664 965 l 414 791 l 357 861 m 294 627 q 547 739 391 739 q 723 672 661 739 q 785 484 785 606 l 785 0 l 576 0 l 576 472 q 551 564 576 536 q 471 593 526 593 q 377 570 420 593 q 307 509 334 547 l 307 0 l 98 0 l 98 728 l 272 728 l 294 627 z "},"Ņ":{"ha":1044,"x_min":113,"x_max":933,"o":"m 458 436 q 306 682 410 505 l 306 0 l 113 0 l 113 985 l 281 985 l 581 557 q 739 307 637 476 l 739 985 l 933 985 l 933 0 l 764 0 l 458 436 m 414 -306 q 448 -184 437 -241 q 460 -62 458 -127 l 624 -62 q 595 -182 616 -129 q 528 -306 574 -235 l 414 -306 z "},"ņ":{"ha":868,"x_min":98,"x_max":785,"o":"m 294 627 q 547 739 391 739 q 723 672 661 739 q 785 484 785 606 l 785 0 l 576 0 l 576 472 q 551 564 576 536 q 471 593 526 593 q 377 570 420 593 q 307 509 334 547 l 307 0 l 98 0 l 98 728 l 272 728 l 294 627 m 530 -62 q 502 -182 522 -129 q 435 -306 481 -235 l 321 -306 q 355 -185 345 -242 q 367 -62 366 -127 l 530 -62 z "},"Ň":{"ha":1044,"x_min":113,"x_max":933,"o":"m 530 1197 l 713 1318 l 770 1249 l 553 1053 l 510 1053 l 293 1249 l 350 1318 l 530 1197 m 458 436 q 306 682 410 505 l 306 0 l 113 0 l 113 985 l 281 985 l 581 557 q 739 307 637 476 l 739 985 l 933 985 l 933 0 l 764 0 l 458 436 z "},"ň":{"ha":868,"x_min":98,"x_max":785,"o":"m 215 993 l 272 1063 l 453 942 l 635 1063 l 692 993 l 475 798 l 432 798 l 215 993 m 294 627 q 547 739 391 739 q 723 672 661 739 q 785 484 785 606 l 785 0 l 576 0 l 576 472 q 551 564 576 536 q 471 593 526 593 q 377 570 420 593 q 307 509 334 547 l 307 0 l 98 0 l 98 728 l 272 728 l 294 627 z "},"Ŋ":{"ha":1050,"x_min":114,"x_max":935,"o":"m 935 89 q 835 -137 928 -33 q 583 -301 742 -240 l 524 -180 q 734 47 701 -89 l 309 656 l 309 0 l 114 0 l 114 985 l 283 985 l 742 329 l 742 985 l 935 985 l 935 89 z "},"ŋ":{"ha":868,"x_min":98,"x_max":785,"o":"m 547 739 q 723 672 661 739 q 785 484 785 606 l 785 138 q 722 -76 785 28 q 539 -273 660 -180 l 433 -195 q 542 -22 507 -103 q 576 138 576 58 l 576 472 q 551 564 576 536 q 471 593 526 593 q 377 570 420 593 q 307 509 334 547 l 307 0 l 98 0 l 98 728 l 272 728 l 294 627 q 547 739 390 739 z "},"Ō":{"ha":1046,"x_min":52,"x_max":996,"o":"m 293 1231 l 751 1231 l 751 1101 l 293 1101 l 293 1231 m 524 999 q 874 869 753 999 q 996 497 996 739 q 875 119 996 250 q 524 -12 754 -12 q 172 118 292 -12 q 52 497 52 249 q 173 869 52 739 q 524 999 294 999 m 524 832 q 334 747 397 832 q 271 497 271 663 q 335 241 271 329 q 524 154 399 154 q 712 241 648 154 q 777 497 777 329 q 712 747 777 661 q 524 832 648 832 z "},"ō":{"ha":830,"x_min":45,"x_max":786,"o":"m 186 975 l 644 975 l 644 846 l 186 846 l 186 975 m 415 745 q 690 647 595 745 q 786 366 786 549 q 690 83 786 182 q 415 -16 595 -16 q 141 83 237 -16 q 45 366 45 182 q 140 647 45 549 q 415 745 236 745 m 415 589 q 254 366 254 589 q 415 142 254 142 q 576 366 576 142 q 415 589 576 589 z "},"Ŏ":{"ha":1046,"x_min":52,"x_max":996,"o":"m 742 1253 q 682 1106 742 1161 q 522 1051 623 1051 q 363 1106 422 1051 q 304 1253 304 1161 l 422 1253 q 449 1185 422 1210 q 522 1161 475 1161 q 596 1187 568 1161 q 624 1253 624 1213 l 742 1253 m 524 999 q 874 869 753 999 q 996 497 996 739 q 875 119 996 250 q 524 -12 754 -12 q 172 118 292 -12 q 52 497 52 249 q 173 869 52 739 q 524 999 294 999 m 524 832 q 334 747 397 832 q 271 497 271 663 q 335 241 271 329 q 524 154 399 154 q 712 241 648 154 q 777 497 777 329 q 712 747 777 661 q 524 832 648 832 z "},"ŏ":{"ha":830,"x_min":45,"x_max":786,"o":"m 636 997 q 576 851 636 905 q 416 796 517 796 q 258 851 317 796 q 199 997 199 905 l 317 997 q 343 930 317 954 q 416 905 370 905 q 490 931 463 905 q 518 997 518 957 l 636 997 m 415 745 q 690 647 595 745 q 786 366 786 549 q 690 83 786 182 q 415 -16 595 -16 q 141 83 237 -16 q 45 366 45 182 q 140 647 45 549 q 415 745 236 745 m 415 589 q 254 366 254 589 q 415 142 254 142 q 576 366 576 142 q 415 589 576 589 z "},"Ő":{"ha":1046,"x_min":52,"x_max":996,"o":"m 325 1100 l 498 1343 l 614 1251 l 397 1047 l 325 1100 m 572 1100 l 747 1343 l 863 1251 l 644 1047 l 572 1100 m 524 999 q 874 869 753 999 q 996 497 996 739 q 875 119 996 250 q 524 -12 754 -12 q 172 118 292 -12 q 52 497 52 249 q 173 869 52 739 q 524 999 294 999 m 524 832 q 334 747 397 832 q 271 497 271 663 q 335 241 271 329 q 524 154 399 154 q 712 241 648 154 q 777 497 777 329 q 712 747 777 661 q 524 832 648 832 z "},"ő":{"ha":830,"x_min":45,"x_max":786,"o":"m 218 844 l 392 1088 l 507 996 l 290 791 l 218 844 m 465 844 l 640 1088 l 755 996 l 538 791 l 465 844 m 415 745 q 690 647 595 745 q 786 366 786 549 q 690 83 786 182 q 415 -16 595 -16 q 141 83 237 -16 q 45 366 45 182 q 140 647 45 549 q 415 745 236 745 m 415 589 q 254 366 254 589 q 415 142 254 142 q 576 366 576 142 q 415 589 576 589 z "},"Œ":{"ha":1389,"x_min":50,"x_max":1337,"o":"m 50 496 q 174 866 50 736 q 526 996 297 996 q 636 990 566 996 q 726 985 697 985 l 1325 985 l 1325 828 l 901 828 l 901 585 l 1283 585 l 1283 431 l 901 431 l 901 157 l 1337 157 l 1337 0 l 704 0 q 637 -7 693 -1 q 526 -12 582 -12 q 172 118 294 -12 q 50 496 50 249 m 650 827 q 538 829 581 829 q 337 745 406 829 q 268 496 268 660 q 337 241 268 328 q 538 154 406 154 q 689 163 625 154 l 689 825 l 650 827 z "},"œ":{"ha":1319,"x_min":45,"x_max":1275,"o":"m 781 322 q 972 139 799 139 q 1187 186 1076 139 l 1239 62 q 949 -12 1093 -13 q 792 17 861 -12 q 677 102 724 46 q 414 -12 589 -12 q 141 86 237 -12 q 45 366 45 184 q 140 642 45 545 q 414 739 236 739 q 676 629 590 739 q 790 713 722 684 q 946 742 859 742 q 1275 372 1275 742 l 1275 322 l 781 322 m 1078 444 q 1039 557 1071 521 q 946 593 1007 593 q 786 444 814 593 l 1078 444 m 414 142 q 535 197 494 142 q 575 366 575 252 q 535 534 575 479 q 414 589 496 589 q 294 534 333 589 q 254 366 254 479 q 295 197 254 252 q 414 142 335 142 z "},"Ŕ":{"ha":895,"x_min":113,"x_max":865,"o":"m 664 1221 l 414 1047 l 357 1117 l 574 1340 l 664 1221 m 322 0 l 113 0 l 113 985 l 450 985 q 733 906 635 985 q 832 677 832 828 q 785 517 832 585 q 650 412 737 449 l 865 0 l 639 0 l 458 375 l 322 375 l 322 0 m 441 528 q 577 565 533 528 q 621 677 621 602 q 577 792 621 755 q 441 828 533 828 l 322 828 l 322 528 l 441 528 z "},"ŕ":{"ha":576,"x_min":98,"x_max":574,"o":"m 249 861 l 465 1084 l 555 965 l 306 791 l 249 861 m 289 627 q 481 739 357 739 q 526 736 507 739 q 574 725 545 733 l 550 543 q 447 564 492 564 q 364 546 398 564 q 307 492 330 529 l 307 0 l 98 0 l 98 728 l 264 728 l 289 627 z "},"Ŗ":{"ha":895,"x_min":113,"x_max":865,"o":"m 322 375 l 322 0 l 113 0 l 113 985 l 450 985 q 733 906 635 985 q 832 677 832 828 q 785 517 832 585 q 650 412 737 449 l 865 0 l 639 0 l 458 375 l 322 375 m 441 528 q 577 565 533 528 q 621 677 621 602 q 577 792 621 755 q 441 828 533 828 l 322 828 l 322 528 l 441 528 m 363 -306 q 396 -184 386 -241 q 408 -62 407 -127 l 572 -62 q 543 -182 564 -129 q 476 -306 522 -235 l 363 -306 z "},"ŗ":{"ha":576,"x_min":98,"x_max":574,"o":"m 289 627 q 481 739 357 739 q 526 736 507 739 q 574 725 545 733 l 550 543 q 447 564 492 564 q 364 546 398 564 q 307 492 330 529 l 307 0 l 98 0 l 98 728 l 264 728 l 289 627 m 370 -62 q 340 -182 361 -129 q 273 -306 319 -235 l 160 -306 q 194 -185 184 -242 q 205 -62 204 -127 l 370 -62 z "},"Ř":{"ha":895,"x_min":113,"x_max":865,"o":"m 453 1197 l 635 1318 l 692 1249 l 475 1053 l 432 1053 l 215 1249 l 272 1318 l 453 1197 m 322 0 l 113 0 l 113 985 l 450 985 q 733 906 635 985 q 832 677 832 828 q 785 517 832 585 q 650 412 737 449 l 865 0 l 639 0 l 458 375 l 322 375 l 322 0 m 441 528 q 577 565 533 528 q 621 677 621 602 q 577 792 621 755 q 441 828 533 828 l 322 828 l 322 528 l 441 528 z "},"ř":{"ha":576,"x_min":98,"x_max":583,"o":"m 107 993 l 164 1063 l 345 942 l 526 1063 l 583 993 l 367 798 l 323 798 l 107 993 m 289 627 q 481 739 357 739 q 526 736 507 739 q 574 725 545 733 l 550 543 q 447 564 492 564 q 364 546 398 564 q 307 492 330 529 l 307 0 l 98 0 l 98 728 l 264 728 l 289 627 z "},"Ś":{"ha":770,"x_min":37,"x_max":728,"o":"m 310 1117 l 526 1340 l 616 1221 l 367 1047 l 310 1117 m 427 997 q 701 943 549 998 l 659 781 q 428 831 517 831 q 315 802 356 831 q 273 725 273 774 q 312 641 273 672 q 452 583 350 610 q 665 476 602 545 q 728 289 728 408 q 630 67 728 144 q 353 -9 533 -9 q 37 57 205 -9 l 87 215 q 239 169 180 182 q 351 155 298 155 q 470 188 428 155 q 511 279 511 221 q 494 342 511 317 q 434 387 476 367 q 313 427 392 407 q 119 526 180 458 q 58 703 58 593 q 155 920 58 843 q 427 997 252 997 z "},"ś":{"ha":651,"x_min":32,"x_max":610,"o":"m 228 861 l 444 1084 l 534 965 l 285 791 l 228 861 m 355 742 q 596 694 458 742 l 553 558 q 438 591 481 582 q 363 600 396 600 q 281 581 311 600 q 252 528 252 561 q 280 478 252 496 q 366 443 309 460 q 491 401 445 420 q 574 337 538 382 q 610 214 610 292 q 530 46 610 106 q 311 -14 450 -14 q 32 45 165 -14 l 82 182 q 211 141 161 153 q 298 129 260 129 q 380 149 353 129 q 408 207 408 170 q 376 262 408 244 q 273 300 345 279 q 162 340 207 319 q 86 406 118 361 q 54 524 54 450 q 134 684 54 627 q 355 742 214 742 z "},"Ŝ":{"ha":770,"x_min":37,"x_max":728,"o":"m 222 1043 l 165 1112 l 382 1308 l 425 1308 l 642 1112 l 585 1043 l 403 1164 l 222 1043 m 427 997 q 701 943 549 998 l 659 781 q 428 831 517 831 q 315 802 356 831 q 273 725 273 774 q 312 641 273 672 q 452 583 350 610 q 665 476 602 545 q 728 289 728 408 q 630 67 728 144 q 353 -9 533 -9 q 37 57 205 -9 l 87 215 q 239 169 180 182 q 351 155 298 155 q 470 188 428 155 q 511 279 511 221 q 494 342 511 317 q 434 387 476 367 q 313 427 392 407 q 119 526 180 458 q 58 703 58 593 q 155 920 58 843 q 427 997 252 997 z "},"ŝ":{"ha":651,"x_min":32,"x_max":610,"o":"m 142 787 l 85 857 l 301 1053 l 345 1053 l 561 857 l 504 787 l 322 908 l 142 787 m 355 742 q 596 694 458 742 l 553 558 q 438 591 481 582 q 363 600 396 600 q 281 581 311 600 q 252 528 252 561 q 280 478 252 496 q 366 443 309 460 q 491 401 445 420 q 574 337 538 382 q 610 214 610 292 q 530 46 610 106 q 311 -14 450 -14 q 32 45 165 -14 l 82 182 q 211 141 161 153 q 298 129 260 129 q 380 149 353 129 q 408 207 408 170 q 376 262 408 244 q 273 300 345 279 q 162 340 207 319 q 86 406 118 361 q 54 524 54 450 q 134 684 54 627 q 355 742 214 742 z "},"Ş":{"ha":770,"x_min":37,"x_max":728,"o":"m 728 289 q 654 89 728 164 q 441 -4 581 14 l 422 -62 q 495 -109 465 -76 q 525 -178 525 -142 q 488 -268 525 -236 q 396 -300 452 -300 q 264 -262 328 -300 l 294 -197 q 326 -209 307 -204 q 363 -214 345 -214 q 398 -203 385 -214 q 411 -172 411 -193 q 392 -137 411 -151 q 332 -114 374 -123 l 318 -78 l 370 -9 l 353 -9 q 37 57 205 -9 l 87 215 q 239 169 180 182 q 351 155 298 155 q 470 188 428 155 q 511 279 511 221 q 494 342 511 317 q 434 387 476 367 q 313 427 392 407 q 119 526 180 458 q 58 703 58 593 q 155 920 58 843 q 427 997 252 997 q 701 943 549 997 l 659 781 q 428 831 517 831 q 315 802 356 831 q 273 725 273 774 q 312 641 273 672 q 452 583 350 610 q 665 476 602 545 q 728 289 728 408 z "},"ş":{"ha":651,"x_min":32,"x_max":610,"o":"m 610 214 q 546 60 610 119 q 367 -11 482 0 l 350 -62 q 423 -109 393 -76 q 453 -178 453 -142 q 416 -268 453 -236 q 323 -300 379 -300 q 192 -262 256 -300 l 222 -197 q 253 -209 235 -204 q 290 -214 272 -214 q 326 -203 313 -214 q 339 -172 339 -193 q 320 -137 339 -151 q 260 -114 301 -123 l 245 -78 l 294 -14 q 32 45 157 -9 l 82 182 q 211 141 161 153 q 298 129 260 129 q 380 149 353 129 q 408 207 408 170 q 376 262 408 244 q 273 300 345 279 q 162 340 207 319 q 86 406 118 361 q 54 524 54 450 q 134 684 54 627 q 355 742 214 742 q 596 694 458 742 l 553 558 q 438 591 481 582 q 363 600 396 600 q 281 581 311 600 q 252 528 252 561 q 280 478 252 496 q 366 443 309 460 q 491 401 445 420 q 574 337 538 382 q 610 214 610 292 z "},"Š":{"ha":770,"x_min":37,"x_max":728,"o":"m 168 1249 l 225 1318 l 406 1197 l 587 1318 l 644 1249 l 428 1053 l 385 1053 l 168 1249 m 427 997 q 701 943 549 998 l 659 781 q 428 831 517 831 q 315 802 356 831 q 273 725 273 774 q 312 641 273 672 q 452 583 350 610 q 665 476 602 545 q 728 289 728 408 q 630 67 728 144 q 353 -9 533 -9 q 37 57 205 -9 l 87 215 q 239 169 180 182 q 351 155 298 155 q 470 188 428 155 q 511 279 511 221 q 494 342 511 317 q 434 387 476 367 q 313 427 392 407 q 119 526 180 458 q 58 703 58 593 q 155 920 58 843 q 427 997 252 997 z "},"š":{"ha":651,"x_min":32,"x_max":610,"o":"m 87 993 l 144 1063 l 325 942 l 507 1063 l 564 993 l 347 798 l 304 798 l 87 993 m 355 742 q 596 694 458 742 l 553 558 q 438 591 481 582 q 363 600 396 600 q 281 581 311 600 q 252 528 252 561 q 280 478 252 496 q 366 443 309 460 q 491 401 445 420 q 574 337 538 382 q 610 214 610 292 q 530 46 610 106 q 311 -14 450 -14 q 32 45 165 -14 l 82 182 q 211 141 161 153 q 298 129 260 129 q 380 149 353 129 q 408 207 408 170 q 376 262 408 244 q 273 300 345 279 q 162 340 207 319 q 86 406 118 361 q 54 524 54 450 q 134 684 54 627 q 355 742 214 742 z "},"Ţ":{"ha":774,"x_min":9,"x_max":765,"o":"m 419 -62 q 492 -109 463 -77 q 522 -178 522 -142 q 486 -268 522 -236 q 393 -300 449 -300 q 261 -262 326 -300 l 292 -197 q 323 -209 304 -204 q 359 -214 342 -214 q 395 -203 382 -214 q 408 -172 408 -193 q 390 -137 408 -151 q 329 -114 371 -123 l 315 -78 l 374 0 l 286 0 l 286 823 l 9 823 l 9 985 l 765 985 l 765 823 l 498 823 l 498 0 l 440 0 l 419 -62 z "},"ţ":{"ha":579,"x_min":12,"x_max":553,"o":"m 358 -62 q 431 -109 401 -77 q 461 -178 461 -142 q 424 -268 461 -236 q 332 -300 387 -300 q 200 -262 264 -300 l 231 -197 q 262 -209 243 -204 q 298 -214 281 -214 q 334 -203 321 -214 q 347 -172 347 -193 q 329 -137 347 -151 q 268 -114 310 -123 l 254 -78 l 309 -5 q 132 218 132 21 l 132 582 l 12 582 l 12 728 l 146 728 l 186 936 l 339 936 l 339 728 l 538 728 l 538 582 l 339 582 l 339 248 q 360 168 339 192 q 431 144 380 144 q 522 161 473 144 l 553 28 q 375 -11 460 -11 l 358 -62 z "},"Ť":{"ha":774,"x_min":9,"x_max":765,"o":"m 157 1249 l 214 1318 l 395 1197 l 576 1318 l 633 1249 l 416 1053 l 374 1053 l 157 1249 m 765 823 l 498 823 l 498 0 l 286 0 l 286 823 l 9 823 l 9 985 l 765 985 l 765 823 z "},"ť":{"ha":587,"x_min":12,"x_max":659,"o":"m 509 1101 l 659 1079 l 595 806 l 505 817 l 509 1101 m 432 144 q 524 161 473 144 l 553 28 q 374 -11 460 -11 q 193 47 254 -11 q 132 218 132 104 l 132 582 l 12 582 l 12 728 l 146 728 l 186 936 l 339 936 l 339 728 l 538 728 l 538 582 l 339 582 l 339 248 q 360 168 339 192 q 432 144 382 144 z "},"Ŧ":{"ha":762,"x_min":3,"x_max":758,"o":"m 663 425 l 493 425 l 493 0 l 281 0 l 281 425 l 107 425 l 107 583 l 281 583 l 281 825 l 3 825 l 3 985 l 758 985 l 758 825 l 493 825 l 493 583 l 663 583 l 663 425 z "},"ŧ":{"ha":579,"x_min":12,"x_max":553,"o":"m 553 28 q 374 -11 460 -11 q 193 47 254 -11 q 132 218 132 104 l 132 354 l 12 354 l 12 490 l 132 490 l 132 591 l 12 591 l 12 728 l 146 728 l 186 936 l 339 936 l 339 728 l 539 728 l 539 591 l 339 591 l 339 490 l 538 490 l 538 354 l 339 354 l 339 248 q 360 168 339 192 q 432 144 382 144 q 524 161 473 144 l 553 28 z "},"Ũ":{"ha":1005,"x_min":92,"x_max":914,"o":"m 400 1287 q 468 1274 441 1287 q 522 1235 494 1260 q 563 1204 546 1214 q 603 1194 579 1194 q 645 1215 629 1194 q 660 1272 660 1236 l 777 1272 q 729 1129 777 1183 q 604 1075 682 1075 q 538 1089 566 1075 q 478 1131 511 1104 q 440 1160 456 1150 q 406 1169 424 1169 q 359 1148 376 1169 q 342 1090 342 1128 l 224 1090 q 271 1235 224 1182 q 400 1287 318 1287 m 914 336 q 808 76 914 165 q 503 -14 703 -14 q 196 75 300 -14 q 92 336 92 164 l 92 985 l 304 985 l 304 334 q 503 154 304 155 q 701 334 701 154 l 701 985 l 914 985 l 914 336 z "},"ũ":{"ha":872,"x_min":86,"x_max":771,"o":"m 326 1032 q 395 1018 368 1032 q 449 979 421 1004 q 489 948 473 958 q 529 939 505 939 q 571 960 555 939 q 586 1017 586 981 l 703 1017 q 655 873 703 928 q 530 819 608 819 q 465 834 492 819 q 404 875 437 848 q 366 904 382 895 q 332 914 350 914 q 285 893 302 914 q 268 835 268 872 l 150 835 q 197 979 150 926 q 326 1032 244 1032 m 294 256 q 319 165 294 193 q 400 136 345 136 q 493 158 449 136 q 562 220 536 180 l 562 728 l 771 728 l 771 0 l 599 0 l 575 102 q 467 18 529 46 q 329 -11 404 -11 q 149 55 211 -11 q 86 244 86 121 l 86 728 l 294 728 l 294 256 z "},"Ū":{"ha":1005,"x_min":92,"x_max":914,"o":"m 275 1231 l 733 1231 l 733 1101 l 275 1101 l 275 1231 m 914 336 q 808 76 914 165 q 503 -14 703 -14 q 196 75 300 -14 q 92 336 92 164 l 92 985 l 304 985 l 304 334 q 503 154 304 155 q 701 334 701 154 l 701 985 l 914 985 l 914 336 z "},"ū":{"ha":872,"x_min":86,"x_max":771,"o":"m 201 975 l 660 975 l 660 846 l 201 846 l 201 975 m 294 256 q 319 165 294 193 q 400 136 345 136 q 493 158 449 136 q 562 220 536 180 l 562 728 l 771 728 l 771 0 l 599 0 l 575 102 q 467 18 529 46 q 329 -11 404 -11 q 149 55 211 -11 q 86 244 86 121 l 86 728 l 294 728 l 294 256 z "},"Ŭ":{"ha":1005,"x_min":92,"x_max":914,"o":"m 724 1253 q 664 1106 724 1161 q 504 1051 604 1051 q 345 1106 404 1051 q 286 1253 286 1161 l 404 1253 q 431 1185 404 1210 q 504 1161 457 1161 q 578 1187 550 1161 q 606 1253 606 1213 l 724 1253 m 914 336 q 808 76 914 165 q 503 -14 703 -14 q 196 75 300 -14 q 92 336 92 164 l 92 985 l 304 985 l 304 334 q 503 154 304 155 q 701 334 701 154 l 701 985 l 914 985 l 914 336 z "},"ŭ":{"ha":872,"x_min":86,"x_max":771,"o":"m 652 997 q 592 851 652 905 q 432 796 532 796 q 273 851 332 796 q 214 997 214 905 l 332 997 q 358 930 332 954 q 432 905 385 905 q 506 931 478 905 q 533 997 533 957 l 652 997 m 294 256 q 319 165 294 193 q 400 136 345 136 q 493 158 449 136 q 562 220 536 180 l 562 728 l 771 728 l 771 0 l 599 0 l 575 102 q 467 18 529 46 q 329 -11 404 -11 q 149 55 211 -11 q 86 244 86 121 l 86 728 l 294 728 l 294 256 z "},"Ů":{"ha":1005,"x_min":92,"x_max":914,"o":"m 503 1419 q 598 1394 554 1419 q 668 1326 642 1369 q 694 1235 694 1283 q 668 1143 694 1186 q 598 1075 642 1100 q 503 1050 554 1050 q 407 1075 451 1050 q 336 1143 363 1100 q 310 1235 310 1186 q 336 1326 310 1284 q 407 1394 363 1369 q 503 1419 452 1419 m 503 1314 q 444 1291 467 1314 q 421 1235 421 1268 q 445 1177 421 1202 q 503 1153 468 1153 q 559 1177 536 1153 q 582 1235 582 1202 q 560 1291 582 1268 q 503 1314 538 1314 m 914 336 q 808 76 914 165 q 503 -14 703 -14 q 196 75 300 -14 q 92 336 92 164 l 92 985 l 304 985 l 304 334 q 503 154 304 155 q 701 334 701 154 l 701 985 l 914 985 l 914 336 z "},"ů":{"ha":872,"x_min":86,"x_max":771,"o":"m 431 1164 q 526 1139 482 1164 q 596 1071 570 1114 q 623 979 623 1028 q 596 887 623 930 q 526 819 570 844 q 431 794 482 794 q 335 819 379 794 q 264 887 290 844 q 237 979 237 930 q 264 1071 237 1028 q 335 1139 290 1114 q 431 1164 379 1164 m 431 1059 q 372 1036 395 1059 q 349 979 349 1013 q 372 922 349 946 q 431 897 396 897 q 487 922 464 897 q 510 979 510 946 q 488 1036 510 1013 q 431 1059 465 1059 m 294 256 q 319 165 294 193 q 400 136 345 136 q 493 158 449 136 q 562 220 536 180 l 562 728 l 771 728 l 771 0 l 599 0 l 575 102 q 467 18 529 46 q 329 -11 404 -11 q 149 55 211 -11 q 86 244 86 121 l 86 728 l 294 728 l 294 256 z "},"Ű":{"ha":1005,"x_min":92,"x_max":914,"o":"m 306 1100 l 479 1343 l 595 1251 l 378 1047 l 306 1100 m 553 1100 l 728 1343 l 843 1251 l 625 1047 l 553 1100 m 914 336 q 808 76 914 165 q 503 -14 703 -14 q 196 75 300 -14 q 92 336 92 164 l 92 985 l 304 985 l 304 334 q 503 154 304 155 q 701 334 701 154 l 701 985 l 914 985 l 914 336 z "},"ű":{"ha":872,"x_min":86,"x_max":771,"o":"m 233 844 l 407 1088 l 522 996 l 306 791 l 233 844 m 481 844 l 656 1088 l 771 996 l 553 791 l 481 844 m 294 256 q 319 165 294 193 q 400 136 345 136 q 493 158 449 136 q 562 220 536 180 l 562 728 l 771 728 l 771 0 l 599 0 l 575 102 q 467 18 529 46 q 329 -11 404 -11 q 149 55 211 -11 q 86 244 86 121 l 86 728 l 294 728 l 294 256 z "},"Ų":{"ha":998,"x_min":85,"x_max":907,"o":"m 907 336 q 760 46 907 136 q 679 11 734 31 q 567 -46 604 -16 q 505 -154 506 -94 q 522 -196 505 -182 q 562 -211 538 -211 q 629 -196 595 -211 l 654 -267 q 569 -301 607 -290 q 486 -313 530 -313 q 385 -279 425 -313 q 345 -182 345 -245 q 375 -91 345 -134 q 454 -20 406 -47 l 454 -12 l 440 -12 q 175 86 265 -3 q 85 336 85 175 l 85 985 l 297 985 l 297 334 q 496 154 297 155 q 694 334 694 154 l 694 985 l 907 985 l 907 336 z "},"ų":{"ha":872,"x_min":86,"x_max":771,"o":"m 460 -182 q 480 -111 460 -146 q 534 -45 500 -75 q 578 -1 562 -22 q 595 43 595 20 q 575 100 595 72 q 329 -11 484 -12 q 149 55 211 -11 q 86 244 86 121 l 86 728 l 294 728 l 294 256 q 319 165 294 193 q 400 136 345 136 q 493 158 449 136 q 562 220 536 180 l 562 728 l 771 728 l 771 0 q 660 -67 699 -28 q 621 -151 621 -106 q 637 -196 621 -180 q 677 -211 653 -211 q 745 -196 711 -211 l 770 -267 q 687 -301 725 -290 q 603 -313 648 -313 q 500 -279 541 -313 q 460 -182 460 -245 z "},"Ŵ":{"ha":1411,"x_min":18,"x_max":1393,"o":"m 528 1043 l 471 1112 l 688 1308 l 730 1308 l 947 1112 l 890 1043 l 708 1164 l 528 1043 m 754 515 q 737 599 746 549 q 722 676 728 650 l 705 768 l 689 676 q 674 599 684 650 q 657 515 665 549 l 538 0 l 257 0 l 18 985 l 229 985 l 335 522 q 374 359 357 420 l 411 196 l 486 522 l 593 985 l 818 985 l 925 522 l 1000 196 q 1039 359 1023 296 l 1076 522 l 1182 985 l 1393 985 l 1154 0 l 873 0 l 754 515 z "},"ŵ":{"ha":1156,"x_min":14,"x_max":1143,"o":"m 393 787 l 336 857 l 553 1053 l 596 1053 l 812 857 l 755 787 l 574 908 l 393 787 m 619 306 q 602 383 608 351 q 591 436 596 415 l 579 503 q 559 414 575 489 q 538 306 555 393 l 458 0 l 210 0 l 14 728 l 215 728 l 292 404 q 329 240 304 354 q 336 206 332 224 q 345 168 340 187 q 406 404 387 335 l 496 728 l 661 728 l 750 404 q 772 325 762 361 q 789 260 782 288 q 812 168 817 155 q 865 406 829 237 l 942 728 l 1143 728 l 946 0 l 697 0 l 619 306 z "},"Ŷ":{"ha":863,"x_min":0,"x_max":864,"o":"m 250 1043 l 193 1112 l 410 1308 l 453 1308 l 669 1112 l 612 1043 l 431 1164 l 250 1043 m 349 742 q 392 635 366 705 q 427 542 418 566 l 437 542 q 472 635 446 566 q 515 742 498 705 l 636 985 l 864 985 l 538 382 l 538 0 l 325 0 l 325 382 l 0 985 l 229 985 l 349 742 z "},"ŷ":{"ha":751,"x_min":3,"x_max":750,"o":"m 411 1053 l 628 857 l 571 787 l 389 908 l 208 787 l 151 857 l 368 1053 l 411 1053 m 278 4 l 3 728 l 201 728 l 283 504 q 361 241 314 420 l 379 172 l 400 253 q 471 507 440 418 l 550 728 l 750 728 l 351 -318 l 161 -318 l 278 4 z "},"Ÿ":{"ha":863,"x_min":0,"x_max":864,"o":"m 201 1251 l 371 1251 l 371 1088 l 201 1088 l 201 1251 m 489 1251 l 657 1251 l 657 1088 l 489 1088 l 489 1251 m 349 742 q 392 635 366 705 q 427 542 418 566 l 437 542 q 472 635 446 566 q 515 742 498 705 l 636 985 l 864 985 l 538 382 l 538 0 l 325 0 l 325 382 l 0 985 l 229 985 l 349 742 z "},"Ź":{"ha":787,"x_min":37,"x_max":747,"o":"m 319 1117 l 536 1340 l 627 1221 l 376 1047 l 319 1117 m 747 987 l 747 850 l 278 160 l 743 160 l 743 0 l 37 0 l 37 139 l 505 827 l 53 827 l 53 987 l 747 987 z "},"ź":{"ha":656,"x_min":39,"x_max":621,"o":"m 248 861 l 464 1084 l 554 965 l 304 791 l 248 861 m 608 728 l 608 603 l 271 154 l 621 154 l 621 0 l 39 0 l 39 129 l 376 574 l 54 574 l 54 728 l 608 728 z "},"Ż":{"ha":787,"x_min":37,"x_max":747,"o":"m 329 1255 l 498 1255 l 498 1092 l 329 1092 l 329 1255 m 747 987 l 747 850 l 278 160 l 743 160 l 743 0 l 37 0 l 37 139 l 505 827 l 53 827 l 53 987 l 747 987 z "},"ż":{"ha":656,"x_min":39,"x_max":621,"o":"m 257 1000 l 427 1000 l 427 836 l 257 836 l 257 1000 m 608 728 l 608 603 l 271 154 l 621 154 l 621 0 l 39 0 l 39 129 l 376 574 l 54 574 l 54 728 l 608 728 z "},"Ž":{"ha":787,"x_min":37,"x_max":747,"o":"m 179 1249 l 236 1318 l 416 1197 l 599 1318 l 656 1249 l 439 1053 l 396 1053 l 179 1249 m 747 987 l 747 850 l 278 160 l 743 160 l 743 0 l 37 0 l 37 139 l 505 827 l 53 827 l 53 987 l 747 987 z "},"ž":{"ha":656,"x_min":39,"x_max":621,"o":"m 106 993 l 163 1063 l 343 942 l 525 1063 l 582 993 l 366 798 l 322 798 l 106 993 m 608 728 l 608 603 l 271 154 l 621 154 l 621 0 l 39 0 l 39 129 l 376 574 l 54 574 l 54 728 l 608 728 z "},"ƒ":{"ha":688,"x_min":-87,"x_max":686,"o":"m -87 -161 q 36 -52 -4 -107 q 89 86 75 4 l 174 590 l 40 590 l 62 728 l 196 728 l 205 785 q 303 965 224 899 q 500 1032 383 1032 q 686 1003 582 1032 l 633 886 q 529 899 570 899 q 448 868 480 899 q 407 786 415 838 l 397 728 l 586 728 l 564 590 l 375 590 l 289 72 q 200 -125 268 -50 q -12 -264 132 -200 l -87 -161 z "},"Ǻ":{"ha":945,"x_min":9,"x_max":937,"o":"m 473 1044 q 378 1069 422 1044 q 307 1138 334 1095 q 281 1231 281 1181 q 303 1317 281 1277 q 366 1383 326 1357 l 530 1554 l 616 1461 l 536 1406 q 629 1337 593 1385 q 665 1231 665 1289 q 639 1138 665 1181 q 569 1069 612 1095 q 473 1044 525 1044 m 473 1149 q 530 1172 507 1149 q 553 1229 553 1196 q 531 1286 553 1263 q 473 1310 509 1310 q 415 1287 437 1310 q 392 1229 392 1264 q 415 1172 392 1196 q 473 1149 439 1149 m 298 253 l 218 0 l 9 0 l 329 985 l 610 985 l 937 0 l 732 0 l 648 253 l 298 253 m 346 410 l 600 410 l 476 803 l 467 803 l 346 410 z "},"ǻ":{"ha":772,"x_min":32,"x_max":693,"o":"m 387 789 q 292 814 336 789 q 221 882 248 839 q 195 975 195 925 q 217 1061 195 1021 q 279 1128 240 1101 l 444 1299 l 530 1206 l 450 1150 q 543 1081 507 1129 q 579 975 579 1034 q 553 882 579 925 q 483 814 526 839 q 387 789 439 789 m 387 893 q 444 917 421 893 q 467 974 467 940 q 445 1031 467 1008 q 387 1054 422 1054 q 329 1031 351 1054 q 306 974 306 1008 q 329 917 306 941 q 387 893 353 893 m 375 742 q 611 666 529 742 q 693 446 693 590 l 693 0 l 521 0 l 497 86 q 396 14 452 39 q 277 -11 340 -11 q 98 47 164 -11 q 32 204 32 106 q 128 382 32 318 q 396 446 224 446 l 485 446 l 485 464 q 342 590 481 590 q 232 576 294 590 q 119 541 170 562 l 75 681 q 227 726 147 710 q 375 742 306 742 m 414 332 q 276 301 325 332 q 227 216 227 271 q 254 148 227 172 q 330 125 281 125 q 416 144 375 125 q 485 197 457 164 l 485 332 l 414 332 z "},"Ǽ":{"ha":1367,"x_min":5,"x_max":1315,"o":"m 1067 1221 l 817 1047 l 760 1117 l 977 1340 l 1067 1221 m 685 256 l 358 256 l 221 0 l 5 0 l 546 985 l 1303 985 l 1303 832 l 896 832 l 896 583 l 1265 583 l 1265 432 l 896 432 l 896 154 l 1315 154 l 1315 0 l 685 0 l 685 256 m 685 406 l 685 864 l 439 406 l 685 406 z "},"ǽ":{"ha":1212,"x_min":35,"x_max":1168,"o":"m 825 965 l 575 791 l 518 861 l 734 1084 l 825 965 m 679 325 q 871 139 694 139 q 1082 186 966 139 l 1132 62 q 847 -12 990 -13 q 591 92 683 -12 q 447 15 528 43 q 278 -14 367 -14 q 100 45 165 -14 q 35 201 35 103 q 129 381 35 317 q 396 446 224 446 l 485 446 l 485 464 q 342 590 481 590 q 231 576 293 590 q 119 541 168 562 l 75 676 q 227 721 147 705 q 376 737 306 737 q 602 648 529 737 q 846 739 692 739 q 1168 372 1168 739 l 1168 325 l 679 325 m 979 444 q 844 596 969 596 q 684 444 708 596 l 979 444 m 408 328 q 274 298 321 328 q 227 214 227 269 q 254 144 227 168 q 332 121 281 121 q 416 139 374 121 q 485 189 458 158 l 485 328 l 408 328 z "},"Ǿ":{"ha":1042,"x_min":50,"x_max":993,"o":"m 742 1221 l 492 1047 l 435 1117 l 652 1340 l 742 1221 m 790 932 q 942 763 890 873 q 993 496 993 653 q 873 119 993 250 q 522 -12 753 -12 q 349 9 431 -12 l 319 -52 l 199 -52 l 249 54 q 101 226 152 114 q 50 496 50 338 q 172 867 50 737 q 522 997 293 997 q 692 975 619 997 l 721 1036 l 840 1036 l 790 932 m 268 496 q 336 235 269 321 l 615 817 q 521 832 572 832 q 332 747 396 832 q 268 496 268 661 m 521 154 q 710 241 646 154 q 774 496 774 329 q 704 753 774 667 l 425 170 q 521 154 468 154 z "},"ǿ":{"ha":829,"x_min":45,"x_max":785,"o":"m 636 965 l 386 791 l 329 861 l 546 1084 l 636 965 m 667 663 q 785 366 785 566 q 688 86 785 185 q 414 -12 591 -12 q 262 11 330 -12 l 218 -61 l 87 -61 l 165 64 q 45 366 45 161 q 140 642 45 545 q 414 739 236 739 q 568 715 500 739 l 612 787 l 745 787 l 667 663 m 254 366 q 272 237 254 286 l 482 576 q 414 589 453 589 q 294 534 333 589 q 254 366 254 479 m 414 142 q 535 197 494 142 q 575 366 575 252 q 558 488 575 441 l 350 153 q 414 142 379 142 z "},"ȷ":{"ha":412,"x_min":-37,"x_max":314,"o":"m -37 -195 q 71 -22 36 -103 q 106 138 106 58 l 106 718 l 314 718 l 314 138 q 252 -76 314 28 q 68 -273 189 -180 l -37 -195 z "},"ˆ":{"ha":576,"x_min":50,"x_max":526,"o":"m 107 787 l 50 857 l 267 1053 l 310 1053 l 526 857 l 469 787 l 288 908 l 107 787 z "},"ˇ":{"ha":576,"x_min":50,"x_max":526,"o":"m 50 997 l 107 1067 l 288 946 l 469 1067 l 526 997 l 310 802 l 267 802 l 50 997 z "},"˘":{"ha":537,"x_min":50,"x_max":488,"o":"m 488 997 q 428 851 488 905 q 268 796 368 796 q 109 851 168 796 q 50 997 50 905 l 168 997 q 195 930 168 954 q 268 905 221 905 q 342 931 314 905 q 370 997 370 957 l 488 997 z "},"˙":{"ha":269,"x_min":50,"x_max":220,"o":"m 50 1000 l 220 1000 l 220 836 l 50 836 l 50 1000 z "},"˚":{"ha":486,"x_min":50,"x_max":435,"o":"m 243 1164 q 338 1139 294 1164 q 408 1071 382 1114 q 435 979 435 1028 q 408 887 435 930 q 338 819 382 844 q 243 794 294 794 q 147 819 191 794 q 77 887 103 844 q 50 979 50 930 q 77 1071 50 1028 q 148 1139 103 1114 q 243 1164 192 1164 m 243 1059 q 184 1036 207 1059 q 161 979 161 1013 q 185 922 161 946 q 243 897 208 897 q 299 922 276 897 q 322 979 322 946 q 300 1036 322 1013 q 243 1059 278 1059 z "},"˛":{"ha":412,"x_min":50,"x_max":361,"o":"m 355 0 q 211 -154 211 -66 q 227 -196 211 -182 q 268 -211 243 -211 q 335 -196 304 -211 l 361 -267 q 277 -301 315 -290 q 193 -313 239 -313 q 91 -279 132 -313 q 50 -182 50 -245 q 91 -75 50 -126 q 187 0 131 -24 l 355 0 z "},"˜":{"ha":652,"x_min":50,"x_max":603,"o":"m 227 1032 q 294 1018 268 1032 q 349 979 321 1004 q 389 948 372 958 q 429 939 406 939 q 471 960 456 939 q 486 1017 486 981 l 603 1017 q 556 873 603 928 q 431 819 509 819 q 365 834 392 819 q 304 875 338 848 q 266 904 282 895 q 232 914 250 914 q 185 893 203 914 q 168 835 168 872 l 50 835 q 97 979 50 926 q 227 1032 144 1032 z "},"˝":{"ha":637,"x_min":50,"x_max":587,"o":"m 50 844 l 224 1088 l 339 996 l 122 791 l 50 844 m 297 844 l 472 1088 l 587 996 l 370 791 l 297 844 z "},"̃":{"ha":0,"x_min":50,"x_max":603,"o":"m 232 914 q 185 893 203 914 q 168 835 168 872 l 50 835 q 97 979 50 926 q 227 1032 144 1032 q 294 1018 268 1032 q 349 979 321 1004 q 389 948 372 958 q 429 939 406 939 q 471 960 456 939 q 486 1017 486 981 l 603 1017 q 556 873 603 928 q 431 819 509 819 q 365 834 392 819 q 304 875 338 848 q 266 904 282 895 q 232 914 250 914 z "},"̣":{"ha":0,"x_min":50,"x_max":210,"o":"m 50 -100 l 210 -100 l 210 -249 l 50 -249 l 50 -100 z "},"̦":{"ha":0,"x_min":50,"x_max":260,"o":"m 260 -62 q 231 -182 252 -129 q 164 -306 210 -235 l 50 -306 q 84 -185 74 -242 q 96 -62 94 -127 l 260 -62 z "},"Δ":{"ha":977,"x_min":9,"x_max":968,"o":"m 366 985 l 603 985 l 968 0 l 9 0 l 366 985 m 486 794 l 256 157 l 724 157 l 486 794 z "},"Ω":{"ha":1084,"x_min":71,"x_max":1014,"o":"m 307 135 q 141 301 200 192 q 82 553 82 411 q 138 790 82 689 q 297 944 193 890 q 542 997 400 997 q 788 944 684 997 q 947 790 892 890 q 1003 553 1003 689 q 943 307 1003 415 q 777 142 884 199 l 1014 151 l 1014 -3 l 599 -3 l 599 136 q 742 299 690 193 q 794 534 794 406 q 729 762 794 683 q 542 842 664 842 q 356 762 421 842 q 290 534 290 682 q 342 299 290 406 q 486 136 395 193 l 486 -3 l 71 -3 l 71 151 l 307 135 z "},"μ":{"ha":886,"x_min":97,"x_max":783,"o":"m 587 102 q 479 18 541 46 q 342 -11 416 -11 q 279 -5 306 -11 l 306 -290 l 97 -290 l 97 728 l 306 728 l 306 256 q 331 165 306 193 q 412 136 357 136 q 504 158 461 136 q 575 220 547 180 l 575 728 l 783 728 l 783 0 l 610 0 l 587 102 z "},"ऀ":{"ha":0,"x_min":56,"x_max":574,"o":"m 454 1168 q 400 1257 433 1229 q 317 1284 367 1284 q 233 1257 267 1284 q 179 1168 200 1229 l 56 1206 q 149 1370 86 1318 q 317 1421 211 1421 q 481 1370 421 1421 q 574 1203 542 1318 l 454 1168 m 321 1213 q 396 1182 366 1213 q 427 1107 427 1152 q 396 1033 427 1064 q 321 1002 366 1002 q 247 1033 278 1002 q 215 1107 215 1064 q 247 1182 215 1152 q 321 1213 278 1213 z "},"ँ":{"ha":0,"x_min":56,"x_max":574,"o":"m 574 1234 q 481 1067 542 1118 q 317 1015 421 1015 q 149 1067 211 1015 q 56 1231 86 1118 l 179 1268 q 233 1179 200 1207 q 317 1152 267 1152 q 400 1179 367 1152 q 454 1268 433 1207 l 574 1234 m 321 1224 q 247 1255 278 1224 q 215 1329 215 1285 q 247 1403 215 1372 q 321 1435 278 1435 q 396 1404 366 1435 q 427 1329 427 1373 q 396 1254 427 1284 q 321 1224 366 1224 z "},"ं":{"ha":0,"x_min":69,"x_max":281,"o":"m 175 994 q 101 1026 132 994 q 69 1100 69 1057 q 101 1175 69 1145 q 175 1206 132 1206 q 250 1175 220 1206 q 281 1100 281 1145 q 250 1026 281 1057 q 175 994 220 994 z "},"ः":{"ha":350,"x_min":69,"x_max":281,"o":"m 175 123 q 101 155 132 123 q 69 229 69 186 q 101 304 69 274 q 175 335 132 335 q 250 304 220 335 q 281 229 281 274 q 250 155 281 186 q 175 123 220 123 m 175 526 q 101 558 132 526 q 69 632 69 589 q 101 707 69 677 q 175 738 132 738 q 250 707 220 738 q 281 632 281 677 q 250 558 281 589 q 175 526 220 526 z "},"ऄ":{"ha":1148,"x_min":11,"x_max":1221,"o":"m 1047 799 l 1047 0 l 860 0 l 860 406 q 710 390 786 390 q 659 393 692 390 q 672 310 672 352 q 592 103 672 176 q 374 31 511 31 q 174 80 267 31 q 11 233 81 129 l 143 321 q 363 197 235 197 q 450 228 416 197 q 485 310 485 258 q 463 386 485 350 q 406 446 441 421 q 269 414 343 426 l 228 564 q 394 622 347 589 q 441 711 441 654 q 414 775 441 751 q 330 799 387 799 q 273 791 298 799 q 220 773 248 783 q 183 758 193 762 l 135 901 q 353 951 231 951 q 509 917 447 951 q 600 827 571 882 q 629 713 629 772 q 574 550 629 617 q 710 534 639 534 q 860 554 793 534 l 860 799 l 686 799 l 686 951 l 1221 951 l 1221 799 l 1047 799 m 513 1353 q 570 1270 549 1295 q 615 1237 591 1246 q 696 1215 640 1227 l 739 1206 q 937 1113 874 1174 q 1016 936 999 1051 l 839 936 q 811 1005 827 982 q 766 1043 796 1028 q 674 1072 735 1057 q 528 1112 574 1095 q 443 1169 481 1129 q 364 1291 406 1208 l 513 1353 z "},"अ":{"ha":1193,"x_min":11,"x_max":1221,"o":"m 1047 799 l 1047 0 l 860 0 l 860 406 q 710 390 786 390 q 659 393 692 390 q 672 310 672 352 q 592 103 672 176 q 374 31 511 31 q 174 80 267 31 q 11 233 81 129 l 143 321 q 363 197 235 197 q 450 228 416 197 q 485 310 485 258 q 463 386 485 350 q 406 446 441 421 q 269 414 343 426 l 228 564 q 394 622 347 589 q 441 711 441 654 q 414 775 441 751 q 330 799 387 799 q 273 791 298 799 q 220 773 248 783 q 183 758 193 762 l 135 901 q 353 951 231 951 q 509 917 447 951 q 600 827 571 882 q 629 713 629 772 q 574 550 629 617 q 710 534 639 534 q 860 554 793 534 l 860 799 l 686 799 l 686 951 l 1221 951 l 1221 799 l 1047 799 z "},"आ":{"ha":1641,"x_min":22,"x_max":1670,"o":"m 1454 799 l 1454 0 l 1267 0 l 1267 799 l 1017 799 l 1017 0 l 829 0 l 829 406 q 679 390 755 390 l 669 390 q 684 310 683 354 q 603 103 684 176 q 385 31 522 31 q 184 80 277 31 q 22 233 92 129 l 154 321 q 374 197 245 197 q 461 228 427 197 q 496 310 496 258 q 470 393 496 355 q 401 456 444 431 q 239 414 335 429 l 197 564 q 364 622 317 589 q 411 711 411 654 q 384 775 411 751 q 300 799 357 799 q 242 791 268 799 q 190 773 216 783 q 153 758 163 762 l 104 901 q 322 951 200 951 q 478 917 416 951 q 570 827 541 882 q 599 713 599 772 q 543 550 599 617 q 679 534 608 534 q 829 554 762 534 l 829 799 l 656 799 l 656 951 l 1670 951 l 1670 799 l 1454 799 z "},"इ":{"ha":831,"x_min":-28,"x_max":860,"o":"m 309 567 q 272 536 272 567 q 332 464 272 465 q 380 469 344 464 q 439 476 416 473 q 572 493 542 493 q 714 441 663 493 q 765 297 765 390 q 693 110 765 174 q 505 24 621 46 l 628 -125 l 510 -227 l 309 14 q 136 54 188 19 q 83 170 83 89 q 113 248 83 212 q 205 283 142 283 q 301 251 250 283 q 392 165 351 218 q 526 192 474 168 q 578 281 578 216 q 561 325 578 310 q 517 340 543 340 q 428 328 496 340 q 311 311 342 311 q 195 343 246 311 q 114 432 143 375 q 85 561 85 489 q 140 677 85 635 q 289 720 195 720 l 493 720 l 493 799 l -28 799 l -28 951 l 860 951 l 860 799 l 681 799 l 681 566 l 309 567 z "},"ई":{"ha":831,"x_min":-28,"x_max":860,"o":"m 309 567 q 272 536 272 567 q 332 464 272 465 q 380 469 344 464 q 439 476 416 473 q 572 493 542 493 q 714 441 663 493 q 765 297 765 390 q 693 110 765 174 q 505 24 621 46 l 628 -125 l 510 -227 l 309 14 q 136 54 188 19 q 83 170 83 89 q 113 248 83 212 q 205 283 142 283 q 301 251 250 283 q 392 165 351 218 q 526 192 474 168 q 578 281 578 216 q 561 325 578 310 q 517 340 543 340 q 428 328 496 340 q 311 311 342 311 q 195 343 246 311 q 114 432 143 375 q 85 561 85 489 q 140 677 85 635 q 289 720 195 720 l 493 720 l 493 799 l -28 799 l -28 951 l 444 951 q 387 1114 387 1032 q 446 1280 387 1221 q 611 1340 505 1340 q 782 1303 696 1340 l 746 1166 q 636 1190 680 1190 q 575 1169 596 1190 q 554 1108 554 1147 q 637 951 554 1029 l 860 951 l 860 799 l 681 799 l 681 566 l 309 567 z "},"उ":{"ha":732,"x_min":-41,"x_max":774,"o":"m 591 799 q 608 713 608 756 q 534 532 608 604 q 636 433 600 490 q 672 309 672 376 q 634 160 672 224 q 529 64 596 97 q 374 31 461 31 q 174 80 267 31 q 11 233 81 129 l 143 321 q 363 197 235 197 q 450 228 416 197 q 485 310 485 258 q 461 388 485 351 q 397 450 437 425 q 249 414 330 428 l 207 564 q 374 622 326 589 q 421 711 421 654 q 383 799 421 754 l -41 799 l -41 951 l 774 951 l 774 799 l 591 799 z "},"ऊ":{"ha":1148,"x_min":-41,"x_max":1190,"o":"m 591 799 q 608 713 608 755 q 534 532 608 604 q 571 505 554 521 q 694 598 624 566 q 836 631 764 631 q 970 602 908 631 q 1069 520 1032 574 q 1105 395 1105 467 q 1058 245 1105 319 q 926 129 1011 171 l 817 256 q 890 316 863 278 q 918 395 918 354 q 897 456 918 433 q 839 478 875 478 q 749 448 798 478 q 665 366 701 418 q 672 309 672 335 q 634 160 672 224 q 529 64 596 97 q 374 31 461 31 q 174 80 267 31 q 11 233 81 129 l 143 321 q 363 197 235 197 q 450 228 416 197 q 485 310 485 258 q 461 388 485 351 q 397 450 437 425 q 249 414 330 428 l 207 564 q 374 622 326 589 q 421 711 421 654 q 383 799 421 754 l -41 799 l -41 951 l 1190 951 l 1190 799 l 591 799 z "},"ऋ":{"ha":1286,"x_min":-28,"x_max":1314,"o":"m 726 526 q 800 537 766 528 q 875 564 833 546 q 927 680 886 635 q 1026 725 968 725 q 1116 696 1082 725 q 1150 624 1150 668 q 1069 494 1150 557 q 1100 399 1075 465 l 1114 399 l 1157 264 q 1038 249 1085 264 q 991 191 991 235 q 1007 151 991 167 q 1053 135 1022 135 q 1109 146 1082 135 q 1187 193 1136 158 l 1255 71 q 1036 -16 1149 -16 q 915 17 962 -16 q 846 95 867 49 q 825 191 825 142 q 851 292 825 248 q 928 361 876 336 l 908 411 q 726 374 817 382 l 726 0 l 539 0 l 539 267 l 144 45 l 65 195 l 488 429 q 449 463 481 433 l 424 485 q 371 525 392 513 q 325 538 350 538 q 243 521 288 538 q 110 458 199 504 l 49 597 l 86 615 q 219 671 165 651 q 325 690 272 690 q 437 670 391 690 q 521 614 482 650 l 539 596 l 539 799 l -28 799 l -28 951 l 1314 951 l 1314 799 l 726 799 l 726 526 z "},"ऌ":{"ha":1114,"x_min":-28,"x_max":1141,"o":"m 968 26 l 1007 -96 q 888 -110 935 -96 q 842 -170 842 -125 q 857 -209 842 -193 q 903 -225 872 -225 q 959 -213 932 -225 q 1038 -167 986 -201 l 1105 -289 q 886 -375 1000 -375 q 765 -343 812 -375 q 696 -265 717 -311 q 675 -170 675 -218 q 701 -67 675 -111 q 781 3 728 -22 l 781 532 l 758 532 q 684 514 713 532 q 621 449 654 496 q 536 304 587 403 l 390 382 l 425 449 q 374 513 401 495 q 306 532 346 532 q 250 503 273 532 q 227 432 227 473 q 273 278 227 357 q 440 79 319 199 l 317 -45 q 142 152 201 69 q 61 300 82 235 q 40 443 40 366 q 74 568 40 512 q 168 654 109 624 q 301 685 228 685 q 427 661 376 685 q 517 586 478 637 q 621 663 566 640 q 758 685 676 685 l 781 684 l 781 799 l -28 799 l -28 951 l 1141 951 l 1141 799 l 968 799 l 968 26 z "},"ऍ":{"ha":842,"x_min":-28,"x_max":917,"o":"m 757 799 l 757 517 q 715 365 757 428 q 587 258 673 302 l 469 375 q 543 448 517 403 q 570 543 570 493 l 570 799 l 281 799 l 281 441 q 336 332 281 365 l 596 179 q 694 3 694 121 q 578 -220 694 -122 l 452 -110 q 500 -25 500 -64 q 487 20 500 -1 q 452 56 473 41 l 193 200 q 120 275 147 225 q 93 386 93 325 l 93 799 l -28 799 l -28 951 l 869 951 l 869 799 l 757 799 m 917 1234 q 825 1067 885 1118 q 660 1015 764 1015 q 492 1067 554 1015 q 399 1231 429 1118 l 522 1268 q 576 1179 543 1207 q 660 1152 610 1152 q 743 1179 710 1152 q 798 1268 777 1207 l 917 1234 z "},"ऎ":{"ha":842,"x_min":-28,"x_max":869,"o":"m 757 799 l 757 517 q 715 365 757 428 q 587 258 673 302 l 469 375 q 543 448 517 403 q 570 543 570 493 l 570 799 l 281 799 l 281 441 q 336 332 281 365 l 596 179 q 694 3 694 121 q 578 -220 694 -122 l 452 -110 q 500 -25 500 -64 q 487 20 500 -1 q 452 56 473 41 l 193 200 q 120 275 147 225 q 93 386 93 325 l 93 799 l -28 799 l -28 951 l 869 951 l 869 799 l 757 799 m 245 1353 q 302 1270 281 1295 q 348 1237 323 1246 q 429 1215 372 1227 l 472 1206 q 669 1113 607 1174 q 749 936 732 1051 l 572 936 q 544 1005 559 982 q 498 1043 529 1028 q 407 1072 468 1057 q 260 1112 307 1095 q 176 1169 214 1129 q 97 1291 138 1208 l 245 1353 z "},"ए":{"ha":842,"x_min":-28,"x_max":869,"o":"m 757 799 l 757 517 q 715 365 757 428 q 587 258 673 302 l 469 375 q 543 448 517 403 q 570 543 570 493 l 570 799 l 281 799 l 281 441 q 336 332 281 365 l 596 179 q 694 3 694 121 q 578 -220 694 -122 l 452 -110 q 500 -25 500 -64 q 487 20 500 -1 q 452 56 473 41 l 193 200 q 120 275 147 225 q 93 386 93 325 l 93 799 l -28 799 l -28 951 l 869 951 l 869 799 l 757 799 z "},"ऐ":{"ha":842,"x_min":-28,"x_max":869,"o":"m 757 799 l 757 517 q 715 365 757 428 q 587 258 673 302 l 469 375 q 543 448 517 403 q 570 543 570 493 l 570 799 l 281 799 l 281 441 q 336 332 281 365 l 596 179 q 694 3 694 121 q 578 -220 694 -122 l 452 -110 q 500 -25 500 -64 q 487 20 500 -1 q 452 56 473 41 l 193 200 q 120 275 147 225 q 93 386 93 325 l 93 799 l -28 799 l -28 951 l 869 951 l 869 799 l 757 799 m 423 1348 l 757 930 l 562 930 l 279 1260 l 423 1348 z "},"ऑ":{"ha":1641,"x_min":22,"x_max":1670,"o":"m 1454 799 l 1454 0 l 1267 0 l 1267 799 l 1017 799 l 1017 0 l 829 0 l 829 406 q 679 390 755 390 l 669 390 q 684 310 683 354 q 603 103 684 176 q 385 31 522 31 q 184 80 277 31 q 22 233 92 129 l 154 321 q 374 197 245 197 q 461 228 427 197 q 496 310 496 258 q 470 393 496 355 q 401 456 444 431 q 239 414 335 429 l 197 564 q 364 622 317 589 q 411 711 411 654 q 384 775 411 751 q 300 799 357 799 q 242 791 268 799 q 190 773 216 783 q 153 758 163 762 l 104 901 q 322 951 200 951 q 478 917 416 951 q 570 827 541 882 q 599 713 599 772 q 543 550 599 617 q 679 534 608 534 q 829 554 762 534 l 829 799 l 656 799 l 656 951 l 1670 951 l 1670 799 l 1454 799 m 1661 1234 q 1569 1067 1629 1118 q 1404 1015 1508 1015 q 1236 1067 1298 1015 q 1143 1231 1173 1118 l 1266 1268 q 1320 1179 1287 1207 q 1404 1152 1354 1152 q 1487 1179 1454 1152 q 1541 1268 1520 1207 l 1661 1234 z "},"ऒ":{"ha":1641,"x_min":22,"x_max":1670,"o":"m 1454 799 l 1454 0 l 1267 0 l 1267 799 l 1017 799 l 1017 0 l 829 0 l 829 406 q 679 390 755 390 l 669 390 q 684 310 683 354 q 603 103 684 176 q 385 31 522 31 q 184 80 277 31 q 22 233 92 129 l 154 321 q 374 197 245 197 q 461 228 427 197 q 496 310 496 258 q 470 393 496 355 q 401 456 444 431 q 239 414 335 429 l 197 564 q 364 622 317 589 q 411 711 411 654 q 384 775 411 751 q 300 799 357 799 q 242 791 268 799 q 190 773 216 783 q 153 758 163 762 l 104 901 q 322 951 200 951 q 478 917 416 951 q 570 827 541 882 q 599 713 599 772 q 543 550 599 617 q 679 534 608 534 q 829 554 762 534 l 829 799 l 656 799 l 656 951 l 1670 951 l 1670 799 l 1454 799 m 990 1353 q 1047 1270 1026 1295 q 1093 1237 1068 1246 q 1174 1215 1117 1227 l 1217 1206 q 1414 1113 1352 1174 q 1493 936 1476 1051 l 1316 936 q 1289 1005 1304 982 q 1243 1043 1274 1028 q 1152 1072 1213 1057 q 1005 1112 1052 1095 q 921 1169 958 1129 q 842 1291 883 1208 l 990 1353 z "},"ओ":{"ha":1641,"x_min":22,"x_max":1670,"o":"m 1454 799 l 1454 0 l 1267 0 l 1267 799 l 1017 799 l 1017 0 l 829 0 l 829 406 q 679 390 755 390 l 669 390 q 684 310 683 354 q 603 103 684 176 q 385 31 522 31 q 184 80 277 31 q 22 233 92 129 l 154 321 q 374 197 245 197 q 461 228 427 197 q 496 310 496 258 q 470 393 496 355 q 401 456 444 431 q 239 414 335 429 l 197 564 q 364 622 317 589 q 411 711 411 654 q 384 775 411 751 q 300 799 357 799 q 242 791 268 799 q 190 773 216 783 q 153 758 163 762 l 104 901 q 322 951 200 951 q 478 917 416 951 q 570 827 541 882 q 599 713 599 772 q 543 550 599 617 q 679 534 608 534 q 829 554 762 534 l 829 799 l 656 799 l 656 951 l 1670 951 l 1670 799 l 1454 799 m 1168 1348 l 1501 930 l 1307 930 l 1023 1260 l 1168 1348 z "},"औ":{"ha":1641,"x_min":22,"x_max":1670,"o":"m 1454 799 l 1454 0 l 1267 0 l 1267 799 l 1017 799 l 1017 0 l 829 0 l 829 406 q 679 390 755 390 l 669 390 q 684 310 683 354 q 603 103 684 176 q 385 31 522 31 q 184 80 277 31 q 22 233 92 129 l 154 321 q 374 197 245 197 q 461 228 427 197 q 496 310 496 258 q 470 393 496 355 q 401 456 444 431 q 239 414 335 429 l 197 564 q 364 622 317 589 q 411 711 411 654 q 384 775 411 751 q 300 799 357 799 q 242 791 268 799 q 190 773 216 783 q 153 758 163 762 l 104 901 q 322 951 200 951 q 478 917 416 951 q 570 827 541 882 q 599 713 599 772 q 543 550 599 617 q 679 534 608 534 q 829 554 762 534 l 829 799 l 656 799 l 656 951 l 1670 951 l 1670 799 l 1454 799 m 1289 930 l 897 1235 l 1005 1348 l 1278 1111 l 1179 1337 l 1327 1397 l 1472 930 l 1289 930 z "},"क":{"ha":1225,"x_min":-41,"x_max":1267,"o":"m 705 629 q 889 685 782 685 q 1100 613 1024 685 q 1177 412 1177 541 q 1092 210 1177 277 q 872 142 1007 142 q 790 153 823 142 l 772 307 q 863 294 829 295 q 954 325 920 294 q 989 412 989 355 q 959 500 989 469 q 875 532 929 532 q 779 500 819 532 q 705 406 739 468 l 705 0 l 518 0 l 518 197 q 336 142 444 142 q 125 214 201 142 q 49 414 49 286 q 133 616 49 547 q 349 685 216 685 q 435 673 401 685 l 453 519 q 363 532 406 532 q 271 501 306 532 q 236 414 236 471 q 266 326 236 357 q 350 294 296 294 q 446 325 406 294 q 518 418 486 355 l 518 799 l -41 799 l -41 951 l 1267 951 l 1267 799 l 705 799 l 705 629 z "},"ख":{"ha":1354,"x_min":-26,"x_max":1382,"o":"m 1208 799 l 1208 0 l 1021 0 l 1021 229 q 839 170 936 170 q 683 202 751 170 q 576 292 614 235 q 538 424 538 350 q 631 625 538 560 q 846 685 714 685 q 939 677 865 685 l 957 524 q 863 533 916 533 q 758 498 796 533 q 725 424 725 471 q 759 349 725 376 q 852 322 793 322 q 1021 418 948 322 l 1021 799 l 461 799 q 528 602 528 690 q 462 412 528 482 q 278 332 396 342 q 422 196 339 236 q 639 155 505 155 l 675 -5 q 387 35 504 -5 q 188 165 271 75 q 37 410 104 256 l 127 522 q 237 482 187 482 q 313 515 286 482 q 340 604 340 547 q 317 694 340 643 q 253 799 293 746 l -26 799 l -26 951 l 1382 951 l 1382 799 l 1208 799 z "},"ग":{"ha":915,"x_min":-26,"x_max":943,"o":"m 770 799 l 770 0 l 582 0 l 582 799 l 343 799 l 343 415 q 317 264 343 315 q 241 212 292 212 q 155 251 201 212 q 77 345 109 289 q 45 447 45 400 q 155 524 45 524 l 155 799 l -26 799 l -26 951 l 943 951 l 943 799 l 770 799 z "},"घ":{"ha":980,"x_min":-28,"x_max":1008,"o":"m 835 799 l 835 0 l 647 0 l 647 176 q 532 108 593 130 q 397 86 472 86 q 178 151 267 86 q 90 350 90 215 q 168 521 90 458 q 92 675 92 583 q 105 740 92 707 q 146 799 119 774 l -28 799 l -28 951 l 1008 951 l 1008 799 l 835 799 m 399 239 q 647 393 545 239 l 647 799 l 375 799 q 269 673 269 760 q 310 581 269 618 q 397 587 356 587 q 486 579 439 587 l 503 425 q 407 435 467 435 q 314 409 347 435 q 281 336 281 383 q 313 264 281 290 q 399 239 345 239 z "},"ङ":{"ha":996,"x_min":-28,"x_max":1023,"o":"m 1023 799 l 697 799 l 697 566 l 367 566 q 339 559 349 566 q 330 536 330 553 q 390 464 330 465 q 479 476 407 464 q 603 493 579 493 q 745 441 693 493 q 796 297 796 390 q 755 155 796 216 q 640 59 714 93 q 468 25 566 25 q 208 85 314 25 q 25 277 102 146 l 153 351 q 255 245 211 282 q 345 193 300 208 q 453 178 390 178 q 565 203 522 178 q 608 281 608 229 q 591 325 608 310 q 547 340 574 340 q 489 330 538 340 q 370 311 395 311 q 253 343 304 311 q 172 432 201 375 q 143 561 143 489 q 198 675 143 633 q 347 718 253 718 l 510 718 l 510 799 l -28 799 l -28 951 l 1023 951 l 1023 799 m 854 648 q 929 618 899 648 q 960 543 960 587 q 929 469 960 500 q 854 437 899 437 q 780 469 812 437 q 749 543 749 500 q 780 618 749 588 q 854 648 811 648 z "},"च":{"ha":991,"x_min":-28,"x_max":1019,"o":"m 846 799 l 846 0 l 659 0 l 659 184 q 493 142 585 142 q 337 176 406 142 q 230 271 268 210 q 192 410 192 332 q 216 532 192 477 l 43 532 l 43 685 l 465 685 l 493 532 q 409 499 439 532 q 379 410 379 467 q 413 326 379 357 q 507 294 447 294 q 659 367 599 294 l 659 799 l -28 799 l -28 951 l 1019 951 l 1019 799 l 846 799 z "},"छ":{"ha":1038,"x_min":-29,"x_max":1067,"o":"m 832 722 q 936 632 897 694 q 974 486 974 570 q 908 265 974 360 q 722 117 843 170 q 439 65 602 65 q 180 139 269 65 q 90 350 90 212 q 112 444 90 400 q 174 519 134 488 q 113 598 135 553 q 92 696 92 644 q 114 799 92 747 l -29 799 l -29 951 l 1067 951 l 1067 799 l 832 799 l 832 722 m 310 799 q 269 688 270 750 q 315 581 269 629 q 397 587 357 587 q 432 586 425 587 l 458 432 q 406 435 425 435 q 312 411 343 435 q 281 336 281 387 q 322 250 281 282 q 440 218 364 218 q 630 253 549 218 q 756 349 711 288 q 802 492 802 411 q 741 589 802 589 q 700 574 714 589 q 685 538 685 559 q 741 440 685 489 l 648 346 q 550 440 587 385 q 513 550 513 496 q 550 671 513 624 q 659 733 587 718 l 659 799 l 310 799 z "},"ज":{"ha":1166,"x_min":-28,"x_max":1194,"o":"m 1021 799 l 1021 0 l 833 0 l 833 532 l 636 532 q 703 363 703 446 q 636 202 703 263 q 460 142 570 142 q 270 190 346 142 q 141 337 195 237 q 40 608 87 437 l 220 653 q 330 384 273 473 q 453 294 387 294 q 497 310 478 294 q 517 355 517 326 q 497 426 517 387 q 418 532 478 464 l 484 685 l 833 685 l 833 799 l -28 799 l -28 951 l 1194 951 l 1194 799 l 1021 799 z "},"झ":{"ha":1187,"x_min":-28,"x_max":1215,"o":"m 1042 799 l 1042 0 l 854 0 l 854 311 q 758 304 806 304 l 737 304 l 737 297 q 504 25 737 75 l 628 -125 l 510 -227 l 309 14 q 136 54 188 19 q 83 170 83 89 q 113 248 83 212 q 205 283 142 283 q 301 251 250 283 q 392 165 351 218 q 507 192 464 168 q 550 281 550 216 q 533 325 550 310 q 489 340 515 340 q 431 330 479 340 q 311 311 336 311 q 195 343 246 311 q 114 432 143 375 q 85 561 85 489 q 140 677 85 635 q 289 720 195 720 l 465 720 l 465 799 l -28 799 l -28 951 l 1215 951 l 1215 799 l 1042 799 m 653 799 l 653 566 l 309 567 q 272 536 273 567 q 332 464 272 465 q 421 476 349 464 q 545 493 521 493 q 629 478 592 493 q 754 463 684 463 q 854 468 787 463 l 854 799 l 653 799 z "},"ञ":{"ha":1151,"x_min":-41,"x_max":1179,"o":"m 1006 799 l 1006 0 l 818 0 l 818 343 q 732 335 778 335 q 672 339 701 335 q 574 193 650 245 q 379 142 498 142 q 20 357 146 142 l 134 436 q 234 330 178 366 q 363 294 290 294 q 459 326 425 294 q 493 414 493 357 q 452 504 493 475 q 350 533 411 533 q 280 524 317 533 q 212 497 243 514 l 160 635 q 371 688 249 688 q 561 637 477 688 q 671 490 646 587 q 722 488 704 488 q 818 496 772 488 l 818 799 l -41 799 l -41 951 l 1179 951 l 1179 799 l 1006 799 z "},"ट":{"ha":777,"x_min":-28,"x_max":806,"o":"m 446 532 q 320 491 364 532 q 277 374 277 450 q 327 241 277 288 q 471 195 376 195 q 554 208 512 195 q 663 256 596 221 l 732 118 q 457 39 610 39 q 253 83 343 39 q 113 207 163 127 q 62 387 62 286 q 156 608 62 530 q 425 685 250 685 l 468 685 l 468 799 l -28 799 l -28 951 l 806 951 l 806 799 l 654 799 l 654 532 l 446 532 z "},"ठ":{"ha":852,"x_min":-41,"x_max":895,"o":"m 647 654 q 759 520 719 597 q 799 359 799 443 q 703 123 799 208 q 433 39 607 39 q 235 79 322 39 q 101 192 149 119 q 53 359 53 265 q 152 606 53 526 q 460 685 250 685 l 460 799 l -41 799 l -41 951 l 895 951 l 895 799 l 647 799 l 647 654 m 433 192 q 561 240 510 192 q 611 359 611 288 q 592 455 611 414 q 532 532 572 497 l 464 532 q 294 490 349 532 q 240 359 240 449 q 290 235 240 277 q 433 192 339 192 z "},"ड":{"ha":857,"x_min":-28,"x_max":885,"o":"m 367 566 q 339 559 349 566 q 330 536 330 553 q 390 464 330 465 q 479 476 407 464 q 603 493 579 493 q 745 441 693 493 q 796 297 796 390 q 755 155 796 216 q 640 59 714 93 q 468 25 566 25 q 208 85 314 25 q 25 277 102 146 l 153 351 q 255 245 211 282 q 345 193 300 208 q 453 178 390 178 q 565 203 522 178 q 608 281 608 229 q 591 325 608 310 q 547 340 574 340 q 489 330 538 340 q 370 311 395 311 q 253 343 304 311 q 172 432 201 375 q 143 561 143 489 q 198 675 143 633 q 347 718 253 718 l 510 718 l 510 799 l -28 799 l -28 951 l 885 951 l 885 799 l 697 799 l 697 566 l 367 566 z "},"ढ":{"ha":833,"x_min":-28,"x_max":861,"o":"m 441 532 q 302 486 353 532 q 252 359 252 440 q 359 192 252 226 q 340 283 340 238 q 397 416 340 370 q 561 463 454 463 q 719 408 658 463 q 779 262 779 353 q 692 88 779 150 q 441 26 606 26 q 243 68 329 26 q 111 185 158 110 q 64 359 64 261 q 164 600 64 515 q 449 685 265 685 l 479 685 l 479 799 l -28 799 l -28 951 l 861 951 l 861 799 l 665 799 l 665 532 l 441 532 m 561 330 q 521 315 534 330 q 507 271 507 300 q 526 186 507 226 q 590 219 568 195 q 612 275 612 243 q 561 330 612 331 z "},"ण":{"ha":1062,"x_min":-28,"x_max":1090,"o":"m 917 799 l 917 0 l 729 0 l 729 799 l 616 799 l 616 532 q 542 344 616 415 q 345 273 468 273 q 146 344 221 273 q 72 532 72 415 l 72 799 l -28 799 l -28 951 l 1090 951 l 1090 799 l 917 799 m 345 427 q 408 458 387 427 q 429 541 429 489 l 429 799 l 260 799 l 260 541 q 280 458 260 489 q 345 427 301 427 z "},"त":{"ha":899,"x_min":-28,"x_max":926,"o":"m 753 799 l 753 0 l 566 0 l 566 468 l 403 468 q 293 435 332 468 q 254 342 254 401 q 266 242 254 285 q 314 144 278 200 l 363 69 l 216 -24 l 151 85 q 66 351 66 227 q 142 550 66 479 q 353 621 218 621 l 566 621 l 566 799 l -28 799 l -28 951 l 926 951 l 926 799 l 753 799 z "},"थ":{"ha":1083,"x_min":58,"x_max":1111,"o":"m 937 799 l 937 0 l 750 0 l 750 220 q 622 154 689 177 q 490 131 554 131 q 219 220 319 131 q 85 488 119 310 q 301 584 236 532 q 367 715 367 636 q 352 779 367 757 q 309 802 336 802 q 262 783 279 802 q 245 732 245 765 q 268 657 245 690 l 94 607 q 58 736 58 656 q 126 895 58 836 q 309 954 193 954 q 488 890 422 954 q 554 715 554 825 q 488 525 554 610 q 315 401 422 440 q 376 315 329 346 q 492 283 424 283 q 636 327 567 283 q 750 446 705 371 l 750 799 l 576 799 l 576 951 l 1111 951 l 1111 799 l 937 799 z "},"द":{"ha":766,"x_min":-41,"x_max":808,"o":"m 383 532 q 278 496 318 532 q 239 397 239 461 q 284 274 239 319 q 406 228 329 229 q 400 273 400 249 q 427 344 400 315 q 505 374 453 374 q 601 351 555 374 q 673 294 646 329 q 700 221 700 258 q 640 129 700 164 l 778 -64 l 633 -158 l 472 83 q 404 81 427 81 q 228 120 309 81 q 99 232 147 160 q 52 397 52 304 q 135 620 52 554 q 387 685 218 685 l 444 685 l 444 799 l -41 799 l -41 951 l 808 951 l 808 799 l 631 799 l 631 532 l 383 532 z "},"ध":{"ha":1145,"x_min":86,"x_max":1174,"o":"m 1000 799 l 1000 0 l 812 0 l 812 221 q 628 119 725 152 q 415 86 532 86 q 180 157 267 86 q 94 350 94 228 q 189 530 94 467 q 113 621 140 569 q 86 730 86 673 q 162 892 86 830 q 361 954 237 954 q 492 927 435 954 q 583 852 550 900 q 615 743 615 804 q 581 623 615 685 l 415 659 q 443 732 443 697 q 423 781 443 762 q 363 800 403 800 q 294 779 318 800 q 271 722 271 757 q 292 650 271 688 q 350 583 313 612 q 415 587 380 587 q 521 576 469 587 l 538 422 q 425 435 481 435 q 322 409 359 435 q 285 336 285 383 q 321 268 285 294 q 416 241 357 241 q 631 296 519 241 q 812 433 743 350 l 812 799 l 639 799 l 639 951 l 1174 951 l 1174 799 l 1000 799 z "},"न":{"ha":904,"x_min":-28,"x_max":932,"o":"m 758 799 l 758 0 l 571 0 l 571 370 l 300 370 q 274 242 292 281 q 214 203 257 203 q 129 244 168 203 q 67 340 90 285 q 45 432 45 396 q 72 505 45 488 q 164 522 100 522 l 571 522 l 571 799 l -28 799 l -28 951 l 932 951 l 932 799 l 758 799 z "},"ऩ":{"ha":904,"x_min":-28,"x_max":932,"o":"m 758 799 l 758 0 l 571 0 l 571 370 l 300 370 q 274 242 292 281 q 214 203 257 203 q 129 244 168 203 q 67 340 90 285 q 45 432 45 396 q 72 505 45 488 q 164 522 100 522 l 571 522 l 571 799 l -28 799 l -28 951 l 932 951 l 932 799 l 758 799 m 204 140 q 279 110 248 140 q 310 35 310 79 q 279 -39 310 -8 q 204 -71 248 -71 q 129 -39 159 -71 q 98 35 98 -8 q 129 110 98 79 q 204 140 160 140 z "},"प":{"ha":868,"x_min":-28,"x_max":896,"o":"m 722 799 l 722 0 l 534 0 l 534 302 q 462 265 500 276 q 374 254 424 254 q 219 289 288 254 q 113 387 151 323 q 74 532 74 450 l 74 799 l -28 799 l -28 951 l 896 951 l 896 799 l 722 799 m 261 799 l 261 532 q 294 441 261 476 q 387 407 328 407 q 465 424 430 407 q 534 482 500 441 l 534 799 l 261 799 z "},"फ":{"ha":1247,"x_min":-28,"x_max":1275,"o":"m 722 625 q 900 685 794 685 q 1111 613 1035 685 q 1187 412 1187 541 q 1107 213 1187 285 q 882 142 1026 142 l 846 143 l 832 298 q 871 294 853 294 q 965 326 930 294 q 1000 412 1000 357 q 970 500 1000 469 q 886 532 940 532 q 794 504 833 532 q 722 416 754 476 l 722 0 l 534 0 l 534 302 q 462 265 500 276 q 374 254 424 254 q 219 289 288 254 q 113 387 151 323 q 74 532 74 450 l 74 799 l -28 799 l -28 951 l 1275 951 l 1275 799 l 722 799 l 722 625 m 387 407 q 465 424 431 407 q 534 482 500 441 l 534 799 l 261 799 l 261 532 q 294 441 261 476 q 387 407 328 407 z "},"ब":{"ha":847,"x_min":-66,"x_max":875,"o":"m 701 799 l 701 0 l 514 0 l 514 203 q 322 142 435 142 q 111 214 187 142 q 35 414 35 286 q 119 616 35 547 q 335 685 203 685 q 421 673 388 685 l 439 519 q 349 532 390 532 q 314 529 336 532 l 468 361 q 514 437 494 393 l 514 799 l -66 799 l -66 951 l 875 951 l 875 799 l 701 799 m 222 414 q 252 326 222 357 q 336 294 282 294 q 375 298 357 294 l 228 456 q 222 414 222 439 z "},"भ":{"ha":1108,"x_min":33,"x_max":1136,"o":"m 962 799 l 962 0 l 775 0 l 775 370 l 511 370 q 486 262 507 294 q 422 231 464 231 q 329 258 375 231 q 254 333 283 286 q 225 432 225 379 q 250 505 225 478 q 323 534 275 532 l 323 730 q 309 781 323 762 q 268 800 294 800 q 233 786 244 800 q 221 750 221 772 q 232 713 221 730 q 264 685 243 696 l 197 555 q 76 633 119 579 q 33 761 33 686 q 95 906 33 854 q 269 958 157 958 q 394 930 338 958 q 481 853 450 903 q 513 742 513 803 l 511 522 l 775 522 l 775 799 l 602 799 l 602 951 l 1136 951 l 1136 799 l 962 799 z "},"म":{"ha":949,"x_min":8,"x_max":978,"o":"m 804 799 l 804 0 l 616 0 l 616 370 l 339 370 q 250 210 331 210 q 158 241 204 210 q 83 323 113 273 q 53 422 53 372 q 76 494 53 471 q 151 521 98 517 l 151 799 l 8 799 l 8 951 l 978 951 l 978 799 l 804 799 m 339 799 l 339 522 l 616 522 l 616 799 l 339 799 z "},"य":{"ha":965,"x_min":-28,"x_max":993,"o":"m 819 799 l 819 0 l 632 0 l 632 191 q 421 131 528 131 q 231 179 314 131 q 99 312 147 227 q 45 507 50 397 q 185 573 134 531 q 236 665 236 615 q 176 799 236 734 l -28 799 l -28 951 l 993 951 l 993 799 l 819 799 m 375 799 q 424 654 424 735 q 379 511 424 572 q 252 418 335 450 q 326 317 277 351 q 436 283 375 283 q 535 310 485 283 q 632 383 586 336 l 632 799 l 375 799 z "},"र":{"ha":598,"x_min":-28,"x_max":627,"o":"m 456 799 q 522 602 522 690 q 469 426 522 494 q 317 339 415 358 l 519 57 l 370 -47 l 31 410 l 122 522 q 232 482 182 482 q 308 515 281 482 q 335 604 335 547 q 311 694 335 643 q 248 799 288 746 l -28 799 l -28 951 l 627 951 l 627 799 l 456 799 z "},"ऱ":{"ha":598,"x_min":-28,"x_max":627,"o":"m 456 799 q 522 602 522 690 q 469 426 522 494 q 317 339 415 358 l 519 57 l 370 -47 l 31 410 l 122 522 q 232 482 182 482 q 308 515 281 482 q 335 604 335 547 q 311 694 335 643 q 248 799 288 746 l -28 799 l -28 951 l 627 951 l 627 799 l 456 799 m 104 -132 q 30 -101 62 -132 q -1 -26 -1 -71 q 30 48 -1 16 q 104 79 62 79 q 180 48 149 79 q 210 -26 210 17 q 180 -101 210 -71 q 104 -132 149 -132 z "},"ल":{"ha":1114,"x_min":-28,"x_max":1141,"o":"m 968 799 l 968 0 l 781 0 l 781 532 l 758 532 q 684 514 713 532 q 621 449 654 496 q 536 304 587 403 l 390 382 l 425 449 q 374 513 401 495 q 306 532 346 532 q 250 503 273 532 q 227 432 227 473 q 273 278 227 357 q 440 79 319 199 l 317 -45 q 142 152 201 69 q 61 300 82 235 q 40 443 40 366 q 74 568 40 512 q 168 654 109 624 q 301 685 228 685 q 427 661 376 685 q 517 586 478 637 q 621 663 566 640 q 758 685 676 685 l 781 684 l 781 799 l -28 799 l -28 951 l 1141 951 l 1141 799 l 968 799 z "},"ळ":{"ha":1205,"x_min":-28,"x_max":1234,"o":"m 930 675 q 1085 573 1026 651 q 1143 389 1143 494 q 1104 230 1143 298 q 993 123 1065 161 q 827 85 921 85 q 704 108 767 85 q 587 170 640 131 q 490 105 546 125 q 353 85 433 85 q 203 123 269 85 q 100 229 138 161 q 62 380 62 297 q 101 539 62 471 q 213 647 140 608 q 379 685 285 685 q 503 662 440 685 q 616 599 566 639 q 743 673 667 653 l 743 799 l -28 799 l -28 951 l 1234 951 l 1234 799 l 930 799 l 930 675 m 367 237 q 451 288 414 237 q 526 453 488 338 q 379 532 458 532 q 285 491 319 532 q 250 380 250 450 q 281 276 250 315 q 367 237 313 237 m 827 237 q 921 278 886 237 q 956 389 956 319 q 924 493 956 454 q 839 532 893 532 q 754 481 791 532 q 677 313 717 431 q 827 237 745 237 z "},"ऴ":{"ha":1205,"x_min":-28,"x_max":1234,"o":"m 930 675 q 1085 573 1026 651 q 1143 389 1143 494 q 1104 230 1143 298 q 993 123 1065 161 q 827 85 921 85 q 704 108 767 85 q 587 170 640 131 q 490 105 546 125 q 353 85 433 85 q 203 123 269 85 q 100 229 138 161 q 62 380 62 297 q 101 539 62 471 q 213 647 140 608 q 379 685 285 685 q 503 662 440 685 q 616 599 566 639 q 743 673 667 653 l 743 799 l -28 799 l -28 951 l 1234 951 l 1234 799 l 930 799 l 930 675 m 367 237 q 451 288 414 237 q 526 453 488 338 q 379 532 458 532 q 285 491 319 532 q 250 380 250 450 q 281 276 250 315 q 367 237 313 237 m 827 237 q 921 278 886 237 q 956 389 956 319 q 924 493 956 454 q 839 532 893 532 q 754 481 791 532 q 677 313 717 431 q 827 237 745 237 m 602 -146 q 527 -115 559 -146 q 496 -41 496 -85 q 527 34 496 2 q 602 65 559 65 q 677 34 646 65 q 707 -41 707 3 q 677 -116 707 -85 q 602 -146 646 -146 z "},"व":{"ha":872,"x_min":-41,"x_max":900,"o":"m 726 799 l 726 0 l 539 0 l 539 203 q 347 142 460 142 q 136 214 212 142 q 60 414 60 286 q 144 616 60 547 q 359 685 228 685 q 446 673 412 685 l 464 519 q 374 532 416 532 q 282 501 317 532 q 248 414 248 471 q 277 326 248 357 q 361 294 307 294 q 463 330 420 294 q 539 437 505 366 l 539 799 l -41 799 l -41 951 l 900 951 l 900 799 l 726 799 z "},"श":{"ha":1147,"x_min":56,"x_max":1175,"o":"m 653 647 q 595 424 653 528 q 443 262 538 321 l 611 65 l 492 -32 l 289 208 q 249 205 264 205 q 104 242 152 205 q 56 351 56 278 q 90 427 56 399 q 178 456 123 456 q 321 395 247 456 q 428 499 391 435 q 465 650 465 564 q 437 762 465 722 q 357 803 408 803 q 297 783 318 803 q 275 732 275 764 q 359 640 275 668 l 309 504 q 146 591 205 528 q 87 741 87 654 q 158 900 87 844 q 357 956 229 956 q 575 874 497 956 q 653 647 653 793 m 1002 799 l 1002 0 l 814 0 l 814 799 l 640 799 l 640 951 l 1175 951 l 1175 799 l 1002 799 z "},"ष":{"ha":854,"x_min":-41,"x_max":882,"o":"m 708 799 l 708 0 l 521 0 l 521 302 q 448 265 486 276 q 359 254 410 254 q 205 289 273 254 q 99 387 138 323 q 60 532 60 450 l 60 799 l -41 799 l -41 951 l 882 951 l 882 799 l 708 799 m 314 799 l 521 582 l 521 799 l 314 799 m 248 532 q 281 441 248 476 q 374 407 314 407 q 469 435 427 407 l 248 672 l 248 532 z "},"स":{"ha":1078,"x_min":-28,"x_max":1105,"o":"m 932 799 l 932 0 l 745 0 l 745 309 q 582 283 664 283 q 326 325 448 283 l 519 57 l 370 -47 l 31 410 l 122 522 q 232 482 182 482 q 308 515 281 482 q 335 604 335 547 q 311 694 335 643 q 248 799 288 746 l -28 799 l -28 951 l 1105 951 l 1105 799 l 932 799 m 456 799 q 522 602 522 690 q 482 446 522 510 q 582 439 535 439 q 745 460 669 439 l 745 799 l 456 799 z "},"ह":{"ha":777,"x_min":-28,"x_max":806,"o":"m 336 532 q 299 519 311 532 q 286 485 286 507 q 314 419 286 454 q 416 431 366 430 q 613 377 538 431 q 688 235 688 323 q 654 121 688 171 q 547 31 621 71 l 452 136 q 489 184 478 164 q 500 224 500 204 q 476 263 500 248 q 416 278 452 278 q 327 247 361 278 q 293 170 293 216 q 536 -11 293 22 l 518 -158 q 209 -51 313 -133 q 106 170 106 32 q 168 338 106 268 q 107 434 128 382 q 86 536 86 485 q 132 646 86 607 q 260 685 178 685 l 492 685 l 492 799 l -28 799 l -28 951 l 806 951 l 806 799 l 679 799 l 679 532 l 336 532 z "},"ऺ":{"ha":0,"x_min":56,"x_max":229,"o":"m 56 928 l 56 1192 l 229 1156 l 229 928 l 56 928 z "},"ऻ":{"ha":479,"x_min":-28,"x_max":507,"o":"m 334 799 l 334 0 l 146 0 l 146 799 l -28 799 l -28 951 l 146 951 l 146 1118 l 334 1118 l 334 951 l 507 951 l 507 799 l 334 799 z "},"़":{"ha":0,"x_min":69,"x_max":281,"o":"m 175 -268 q 101 -237 132 -268 q 69 -163 69 -207 q 101 -89 69 -120 q 175 -57 132 -57 q 250 -88 220 -57 q 281 -163 281 -119 q 250 -238 281 -208 q 175 -268 220 -268 z "},"ऽ":{"ha":744,"x_min":24,"x_max":685,"o":"m 685 296 q 606 101 685 171 q 386 31 526 31 q 182 81 275 31 q 24 227 90 132 l 155 321 q 375 197 247 197 q 463 225 429 197 q 497 296 497 253 q 467 381 497 347 q 366 444 436 415 q 195 554 248 489 q 142 720 142 619 q 222 890 142 828 q 446 951 302 951 l 660 951 l 660 799 l 446 799 q 369 778 397 799 q 342 721 342 757 q 376 643 342 678 q 486 575 411 607 q 638 460 592 526 q 685 296 685 395 z "},"ा":{"ha":479,"x_min":-28,"x_max":507,"o":"m 334 799 l 334 0 l 146 0 l 146 799 l -28 799 l -28 951 l 507 951 l 507 799 l 334 799 z "},"ि":{"ha":448,"x_min":-43,"x_max":932,"o":"m 450 1190 q 326 1161 368 1190 q 283 1076 283 1132 q 306 951 283 1006 l 492 951 l 492 799 l 318 799 l 318 0 l 131 0 l 131 799 l -43 799 l -43 951 l 125 951 q 96 1099 96 1031 q 188 1282 96 1214 q 439 1350 279 1350 q 687 1296 575 1350 q 932 1114 799 1242 l 793 1025 q 616 1153 696 1115 q 450 1190 536 1190 z "},"ी":{"ha":479,"x_min":-482,"x_max":507,"o":"m 334 799 l 334 0 l 146 0 l 146 799 l -28 799 l -28 951 l 149 951 q -8 1132 90 1067 q -220 1192 -98 1192 q -285 1172 -267 1192 q -302 1128 -302 1153 q -286 1067 -302 1104 l -435 1023 q -468 1091 -454 1051 q -482 1162 -482 1131 q -417 1301 -482 1253 q -253 1350 -351 1350 q -74 1329 -144 1350 q 69 1265 -3 1308 q 228 1127 163 1210 q 330 951 293 1044 l 507 951 l 507 799 l 334 799 z "},"ु":{"ha":0,"x_min":28,"x_max":510,"o":"m 302 61 q 449 12 389 61 q 510 -117 510 -37 q 451 -254 510 -203 q 293 -304 392 -304 q 151 -275 221 -304 q 28 -195 81 -245 l 110 -103 q 271 -171 182 -171 q 337 -156 312 -171 q 363 -114 363 -140 q 315 -74 363 -74 q 232 -107 275 -74 l 139 1 q 213 46 170 31 q 302 61 256 61 z "},"ू":{"ha":0,"x_min":28,"x_max":510,"o":"m 235 -304 q 88 -255 149 -304 q 28 -126 28 -205 q 87 11 28 -40 q 244 61 146 61 q 387 32 316 61 q 510 -49 457 3 l 428 -140 q 267 -72 356 -73 q 200 -87 225 -72 q 175 -129 175 -103 q 222 -170 175 -169 q 306 -136 262 -170 l 399 -244 q 325 -289 368 -273 q 235 -304 282 -304 z "},"ृ":{"ha":0,"x_min":46,"x_max":476,"o":"m 476 -289 q 257 -375 370 -375 q 135 -343 183 -375 q 67 -265 87 -311 q 46 -170 46 -218 q 119 -17 46 -73 q 335 39 192 39 l 378 -96 q 259 -110 306 -96 q 212 -170 212 -125 q 228 -209 212 -193 q 273 -225 243 -225 q 330 -213 302 -225 q 408 -167 357 -201 l 476 -289 z "},"ॄ":{"ha":0,"x_min":56,"x_max":450,"o":"m 282 -375 q 414 -345 336 -375 l 450 -476 q 285 -510 355 -509 q 119 -462 183 -510 q 56 -340 56 -414 q 93 -235 56 -285 q 56 -132 56 -196 q 119 -12 56 -60 q 285 36 183 36 q 450 3 361 36 l 414 -127 q 282 -97 336 -97 q 235 -106 250 -97 q 220 -135 220 -115 q 238 -167 220 -157 q 293 -176 256 -176 q 370 -171 329 -176 l 370 -288 q 279 -294 317 -294 q 231 -292 261 -294 q 220 -329 220 -311 q 236 -363 220 -351 q 282 -375 252 -375 z "},"ॅ":{"ha":0,"x_min":32,"x_max":550,"o":"m 550 1234 q 458 1067 518 1118 q 293 1015 397 1015 q 125 1067 187 1015 q 32 1231 62 1118 l 155 1268 q 210 1179 176 1207 q 293 1152 243 1152 q 376 1179 343 1152 q 431 1268 410 1207 l 550 1234 z "},"ॆ":{"ha":0,"x_min":-28,"x_max":624,"o":"m 121 1353 q 178 1270 157 1295 q 223 1237 199 1246 q 304 1215 248 1227 l 347 1206 q 545 1113 482 1174 q 624 936 607 1051 l 447 936 q 419 1005 435 982 q 374 1043 404 1028 q 282 1072 343 1057 q 136 1112 182 1095 q 51 1169 89 1129 q -28 1291 14 1208 l 121 1353 z "},"े":{"ha":0,"x_min":-52,"x_max":427,"o":"m 93 1348 l 427 930 l 232 930 l -52 1260 l 93 1348 z "},"ै":{"ha":0,"x_min":45,"x_max":619,"o":"m 436 930 l 45 1235 l 153 1348 l 425 1111 l 326 1337 l 475 1397 l 619 930 l 436 930 z "},"ॉ":{"ha":479,"x_min":-28,"x_max":507,"o":"m 334 799 l 334 0 l 146 0 l 146 799 l -28 799 l -28 951 l 507 951 l 507 799 l 334 799 m 497 1234 q 405 1067 465 1118 q 240 1015 345 1015 q 72 1067 134 1015 q -21 1231 9 1118 l 102 1268 q 157 1179 123 1207 q 240 1152 190 1152 q 323 1179 290 1152 q 378 1268 357 1207 l 497 1234 z "},"ॊ":{"ha":479,"x_min":-322,"x_max":507,"o":"m 334 799 l 334 0 l 146 0 l 146 799 l -28 799 l -28 951 l 507 951 l 507 799 l 334 799 m -174 1353 q -117 1270 -138 1295 q -71 1237 -96 1246 q 10 1215 -47 1227 l 53 1206 q 250 1113 188 1174 q 330 936 313 1051 l 153 936 q 125 1005 140 982 q 79 1043 110 1028 q -12 1072 49 1057 q -159 1112 -112 1095 q -243 1169 -205 1129 q -322 1291 -281 1208 l -174 1353 z "},"ो":{"ha":479,"x_min":-140,"x_max":507,"o":"m 334 799 l 334 0 l 146 0 l 146 799 l -28 799 l -28 951 l 507 951 l 507 799 l 334 799 m 4 1348 l 338 930 l 143 930 l -140 1260 l 4 1348 z "},"ौ":{"ha":479,"x_min":-267,"x_max":507,"o":"m 334 799 l 334 0 l 146 0 l 146 799 l -28 799 l -28 951 l 507 951 l 507 799 l 334 799 m 125 930 l -267 1235 l -159 1348 l 114 1111 l 15 1337 l 163 1397 l 308 930 l 125 930 z "},"्":{"ha":0,"x_min":40,"x_max":425,"o":"m 40 -155 l 180 -31 l 425 -336 l 338 -422 l 40 -155 z "},"ॎ":{"ha":464,"x_min":131,"x_max":492,"o":"m 318 799 l 318 0 l 131 0 l 131 951 l 492 951 l 492 799 l 318 799 z "},"ॏ":{"ha":479,"x_min":-408,"x_max":507,"o":"m 334 799 l 334 0 l 146 0 l 146 799 l -28 799 l -28 951 l 134 951 q 85 993 111 982 q 16 1004 60 1004 q -66 999 -3 1004 q -175 991 -159 992 q -290 1015 -240 991 q -408 1104 -340 1039 l -288 1210 q -201 1145 -231 1161 q -135 1129 -171 1129 l 68 1129 q -4 1160 43 1143 q -133 1210 -92 1190 q -207 1262 -175 1229 q -267 1354 -239 1295 l -113 1407 q -74 1346 -92 1366 q -35 1317 -57 1326 q 36 1291 -14 1307 l 77 1276 q 258 1155 200 1232 q 321 951 315 1079 l 507 951 l 507 799 l 334 799 z "},"ॐ":{"ha":1398,"x_min":22,"x_max":1341,"o":"m 907 943 q 833 975 864 943 q 802 1048 802 1006 q 833 1124 802 1093 q 907 1154 864 1154 q 982 1124 951 1154 q 1013 1048 1013 1093 q 982 975 1013 1006 q 907 943 951 943 m 903 734 q 735 786 798 734 q 642 950 672 838 l 765 987 q 819 899 786 926 q 903 871 852 871 q 986 899 953 871 q 1040 987 1019 926 l 1160 953 q 1067 786 1128 838 q 903 734 1007 734 m 1048 699 q 1262 629 1183 699 q 1341 443 1341 559 q 1264 248 1341 319 q 1055 176 1187 176 q 903 211 966 176 q 796 318 839 245 l 911 412 q 982 348 949 368 q 1055 329 1015 329 q 1127 360 1100 329 q 1154 443 1154 392 q 1125 517 1154 489 q 1048 546 1096 546 q 983 529 1014 546 q 907 475 953 511 q 797 400 847 426 q 676 371 747 374 q 684 310 683 339 q 603 103 684 176 q 385 31 522 31 q 184 80 277 31 q 22 233 92 129 l 154 321 q 374 197 245 197 q 461 228 427 197 q 496 310 496 258 q 470 393 496 355 q 401 456 444 431 q 239 414 335 428 l 197 564 q 364 622 317 589 q 411 711 411 654 q 384 775 411 751 q 300 799 357 799 q 242 791 268 799 q 190 773 216 783 q 153 758 163 762 l 104 901 q 322 951 200 951 q 478 917 416 951 q 570 827 541 882 q 599 713 599 772 q 549 557 599 623 q 656 517 612 517 q 712 533 685 517 q 785 585 739 549 q 909 669 852 639 q 1048 699 966 699 z "},"॑":{"ha":0,"x_min":28,"x_max":201,"o":"m 28 985 l 28 1361 l 201 1361 l 201 985 l 28 985 z "},"॒":{"ha":0,"x_min":28,"x_max":578,"o":"m 578 -233 l 28 -233 l 28 -94 l 578 -94 l 578 -233 z "},"॓":{"ha":0,"x_min":28,"x_max":351,"o":"m 114 1317 l 351 1019 l 275 970 l 28 1255 l 114 1317 z "},"॔":{"ha":0,"x_min":28,"x_max":351,"o":"m 265 1315 l 351 1254 l 104 968 l 28 1018 l 265 1315 z "},"ॕ":{"ha":0,"x_min":69,"x_max":619,"o":"m 619 985 l 69 985 l 69 1124 l 619 1124 l 619 985 m 618 1379 q 526 1213 586 1264 q 361 1161 465 1161 q 193 1213 255 1161 q 100 1377 130 1264 l 223 1414 q 277 1325 244 1353 q 361 1297 311 1297 q 444 1325 411 1297 q 498 1414 477 1353 l 618 1379 z "},"ॖ":{"ha":0,"x_min":35,"x_max":604,"o":"m 604 -77 q 499 -235 572 -179 q 322 -292 427 -292 q 140 -237 214 -292 q 35 -79 66 -182 l 171 -41 q 231 -125 192 -96 q 322 -155 271 -155 q 413 -125 374 -155 q 473 -41 453 -96 l 604 -77 z "},"ॗ":{"ha":0,"x_min":35,"x_max":604,"o":"m 604 -296 q 499 -455 572 -399 q 322 -511 427 -511 q 140 -456 214 -511 q 35 -299 66 -401 l 171 -261 q 231 -345 192 -315 q 322 -375 271 -375 q 413 -345 374 -375 q 473 -261 453 -315 l 604 -296 m 604 -49 q 499 -208 572 -151 q 322 -264 427 -264 q 140 -209 214 -264 q 35 -52 66 -154 l 171 -14 q 231 -98 192 -68 q 322 -127 271 -127 q 413 -98 374 -127 q 473 -14 453 -68 l 604 -49 z "},"क़":{"ha":1225,"x_min":-41,"x_max":1267,"o":"m 705 629 q 889 685 782 685 q 1100 613 1024 685 q 1177 412 1177 541 q 1092 210 1177 277 q 872 142 1007 142 q 790 153 823 142 l 772 307 q 863 294 829 295 q 954 325 920 294 q 989 412 989 355 q 959 500 989 469 q 875 532 929 532 q 779 500 819 532 q 705 406 739 468 l 705 0 l 518 0 l 518 197 q 336 142 444 142 q 125 214 201 142 q 49 414 49 286 q 133 616 49 547 q 349 685 216 685 q 435 673 401 685 l 453 519 q 363 532 406 532 q 271 501 306 532 q 236 414 236 471 q 266 326 236 357 q 350 294 296 294 q 446 325 406 294 q 518 418 486 355 l 518 799 l -41 799 l -41 951 l 1267 951 l 1267 799 l 705 799 l 705 629 m 321 -118 q 247 -87 278 -118 q 215 -13 215 -57 q 247 61 215 30 q 321 93 278 93 q 396 62 366 93 q 427 -13 427 31 q 396 -88 427 -58 q 321 -118 366 -118 z "},"ख़":{"ha":1354,"x_min":-26,"x_max":1382,"o":"m 1208 799 l 1208 0 l 1021 0 l 1021 229 q 839 170 936 170 q 683 202 751 170 q 576 292 614 235 q 538 424 538 350 q 631 625 538 560 q 846 685 714 685 q 939 677 865 685 l 957 524 q 863 533 916 533 q 758 498 796 533 q 725 424 725 471 q 759 349 725 376 q 852 322 793 322 q 1021 418 948 322 l 1021 799 l 461 799 q 528 602 528 690 q 462 412 528 482 q 278 332 396 342 q 422 196 339 236 q 639 155 505 155 l 675 -5 q 387 35 504 -5 q 188 165 271 75 q 37 410 104 256 l 127 522 q 237 482 187 482 q 313 515 286 482 q 340 604 340 547 q 317 694 340 643 q 253 799 293 746 l -26 799 l -26 951 l 1382 951 l 1382 799 l 1208 799 m 279 -215 q 205 -184 237 -215 q 174 -110 174 -154 q 205 -36 174 -67 q 279 -4 237 -4 q 355 -35 324 -4 q 385 -110 385 -66 q 355 -185 385 -155 q 279 -215 324 -215 z "},"ग़":{"ha":915,"x_min":-26,"x_max":943,"o":"m 770 799 l 770 0 l 582 0 l 582 799 l 343 799 l 343 415 q 317 264 343 315 q 241 212 292 212 q 155 251 201 212 q 77 345 109 289 q 45 447 45 400 q 155 524 45 524 l 155 799 l -26 799 l -26 951 l 943 951 l 943 799 l 770 799 m 240 -35 q 166 -4 197 -35 q 134 71 134 26 q 166 145 134 113 q 240 176 197 176 q 315 145 285 176 q 346 71 346 114 q 315 -4 346 26 q 240 -35 285 -35 z "},"ज़":{"ha":1166,"x_min":-28,"x_max":1194,"o":"m 1021 799 l 1021 0 l 833 0 l 833 532 l 636 532 q 703 363 703 446 q 636 202 703 263 q 460 142 570 142 q 270 190 346 142 q 141 337 195 237 q 40 608 87 437 l 220 653 q 330 384 273 473 q 453 294 387 294 q 497 310 478 294 q 517 355 517 326 q 497 426 517 387 q 418 532 478 464 l 484 685 l 833 685 l 833 799 l -28 799 l -28 951 l 1194 951 l 1194 799 l 1021 799 m 418 -104 q 343 -73 375 -104 q 312 1 312 -43 q 343 76 312 44 q 418 107 375 107 q 493 76 463 107 q 524 1 524 45 q 493 -74 524 -43 q 418 -104 463 -104 z "},"ड़":{"ha":857,"x_min":-28,"x_max":960,"o":"m 367 566 q 339 559 349 566 q 330 536 330 553 q 390 464 330 465 q 479 476 407 464 q 603 493 579 493 q 745 441 693 493 q 796 297 796 390 q 755 155 796 216 q 640 59 714 93 q 468 25 566 25 q 208 85 314 25 q 25 277 102 146 l 153 351 q 255 245 211 282 q 345 193 300 208 q 453 178 390 178 q 565 203 522 178 q 608 281 608 229 q 591 325 608 310 q 547 340 574 340 q 489 330 538 340 q 370 311 395 311 q 253 343 304 311 q 172 432 201 375 q 143 561 143 489 q 198 675 143 633 q 347 718 253 718 l 510 718 l 510 799 l -28 799 l -28 951 l 885 951 l 885 799 l 697 799 l 697 566 l 367 566 m 854 437 q 780 468 811 437 q 748 543 748 498 q 780 617 748 585 q 854 648 811 648 q 929 617 899 648 q 960 543 960 586 q 929 468 960 498 q 854 437 899 437 z "},"ढ़":{"ha":833,"x_min":-28,"x_max":861,"o":"m 441 532 q 302 486 353 532 q 252 359 252 440 q 359 192 252 226 q 340 283 340 238 q 397 416 340 370 q 561 463 454 463 q 719 408 658 463 q 779 262 779 353 q 692 88 779 150 q 441 26 606 26 q 243 68 329 26 q 111 185 158 110 q 64 359 64 261 q 164 600 64 515 q 449 685 265 685 l 479 685 l 479 799 l -28 799 l -28 951 l 861 951 l 861 799 l 665 799 l 665 532 l 441 532 m 561 330 q 521 315 534 330 q 507 271 507 300 q 526 186 507 226 q 590 219 568 195 q 612 275 612 243 q 561 330 612 331 m 439 -268 q 365 -237 396 -268 q 333 -163 333 -207 q 365 -89 333 -120 q 439 -57 396 -57 q 514 -88 484 -57 q 545 -163 545 -119 q 514 -238 545 -208 q 439 -268 484 -268 z "},"फ़":{"ha":1247,"x_min":-28,"x_max":1275,"o":"m 722 625 q 900 685 794 685 q 1111 613 1035 685 q 1187 412 1187 541 q 1107 213 1187 285 q 882 142 1026 142 l 846 143 l 832 298 q 871 294 853 294 q 965 326 930 294 q 1000 412 1000 357 q 970 500 1000 469 q 886 532 940 532 q 794 504 833 532 q 722 416 754 476 l 722 0 l 534 0 l 534 302 q 462 265 500 276 q 374 254 424 254 q 219 289 288 254 q 113 387 151 323 q 74 532 74 450 l 74 799 l -28 799 l -28 951 l 1275 951 l 1275 799 l 722 799 l 722 625 m 387 407 q 465 424 431 407 q 534 482 500 441 l 534 799 l 261 799 l 261 532 q 294 441 261 476 q 387 407 328 407 m 322 -44 q 248 -14 279 -44 q 216 61 216 17 q 248 135 216 104 q 322 167 279 167 q 397 136 367 167 q 428 61 428 104 q 397 -14 428 16 q 322 -44 367 -44 z "},"य़":{"ha":965,"x_min":-28,"x_max":993,"o":"m 819 799 l 819 0 l 632 0 l 632 191 q 421 131 528 131 q 231 179 314 131 q 99 312 147 227 q 45 507 50 397 q 185 573 134 531 q 236 665 236 615 q 176 799 236 734 l -28 799 l -28 951 l 993 951 l 993 799 l 819 799 m 375 799 q 424 654 424 735 q 379 511 424 572 q 252 418 335 450 q 326 317 277 351 q 436 283 375 283 q 535 310 485 283 q 632 383 586 336 l 632 799 l 375 799 m 225 -114 q 151 -83 182 -114 q 119 -9 119 -53 q 151 65 119 34 q 225 97 182 97 q 300 66 270 97 q 331 -9 331 35 q 300 -84 331 -54 q 225 -114 270 -114 z "},"ॠ":{"ha":1267,"x_min":-28,"x_max":1296,"o":"m 726 526 q 802 538 768 529 q 876 566 836 547 q 927 681 887 637 q 1026 725 968 725 q 1116 696 1082 725 q 1150 624 1150 668 q 1128 556 1150 591 q 1068 493 1107 522 q 1129 368 1076 421 q 1218 343 1175 360 l 1182 212 q 1050 243 1104 243 q 1003 234 1018 243 q 987 205 987 225 q 1005 174 987 183 q 1061 164 1023 164 q 1137 170 1097 164 l 1137 53 q 1047 46 1084 46 q 999 49 1029 46 q 987 11 988 29 q 1003 -23 987 -12 q 1050 -35 1019 -35 q 1182 -4 1104 -35 l 1218 -136 q 1053 -170 1122 -170 q 887 -122 951 -170 q 823 0 823 -74 q 861 106 823 56 q 823 208 824 144 q 850 292 823 254 q 926 351 878 329 q 897 408 911 376 q 726 374 812 382 l 726 0 l 539 0 l 539 267 l 144 45 l 65 195 l 488 429 q 449 463 481 433 l 424 485 q 371 525 392 513 q 325 538 350 538 q 243 521 288 538 q 110 458 199 504 l 49 597 l 86 615 q 219 671 165 651 q 325 690 272 690 q 437 670 391 690 q 521 614 482 650 l 539 596 l 539 799 l -28 799 l -28 951 l 1296 951 l 1296 799 l 726 799 l 726 526 z "},"ॡ":{"ha":1114,"x_min":-28,"x_max":1141,"o":"m 968 29 q 1061 3 1008 22 l 1025 -127 q 893 -97 947 -97 q 846 -106 861 -97 q 831 -135 831 -115 q 849 -167 831 -157 q 904 -176 867 -176 q 981 -171 940 -176 l 981 -288 q 890 -294 928 -294 q 842 -292 872 -294 q 831 -329 831 -311 q 847 -363 831 -351 q 893 -375 863 -375 q 1025 -345 947 -375 l 1061 -476 q 896 -510 966 -509 q 730 -462 794 -510 q 667 -340 667 -414 q 704 -235 667 -285 q 667 -132 667 -195 q 697 -44 667 -83 q 781 16 728 -5 l 781 532 l 758 532 q 684 514 713 532 q 621 449 654 496 q 536 304 587 403 l 390 382 l 425 449 q 374 513 401 495 q 306 532 346 532 q 250 503 273 532 q 227 432 227 473 q 273 278 227 357 q 440 79 319 199 l 317 -45 q 142 152 201 69 q 61 300 82 235 q 40 443 40 366 q 74 568 40 512 q 168 654 109 624 q 301 685 228 685 q 427 661 376 685 q 517 586 478 637 q 621 663 566 640 q 758 685 676 685 l 781 684 l 781 799 l -28 799 l -28 951 l 1141 951 l 1141 799 l 968 799 l 968 29 z "},"ॢ":{"ha":0,"x_min":17,"x_max":689,"o":"m 689 -382 q 581 -407 629 -407 q 459 -371 504 -407 q 414 -273 414 -335 q 430 -197 414 -223 q 479 -144 447 -171 q 515 -108 505 -123 q 526 -68 526 -93 q 517 -43 526 -52 q 490 -35 507 -35 q 434 -64 456 -35 q 412 -140 412 -94 l 273 -140 q 257 -65 273 -96 q 212 -35 240 -35 q 177 -49 190 -35 q 164 -90 164 -64 q 182 -195 164 -139 q 235 -306 200 -250 l 106 -370 q 17 -81 17 -200 q 66 45 17 0 q 200 90 115 90 q 342 16 294 90 q 498 90 396 91 q 626 48 578 90 q 673 -61 673 5 q 651 -146 673 -117 q 590 -204 629 -176 q 553 -236 564 -224 q 542 -267 542 -249 q 556 -296 542 -285 q 596 -307 571 -307 q 667 -292 629 -307 l 689 -382 z "},"ॣ":{"ha":0,"x_min":3,"x_max":697,"o":"m 697 -464 q 574 -490 631 -490 q 460 -460 502 -490 q 418 -379 418 -431 q 458 -292 418 -330 q 418 -210 418 -258 q 430 -156 418 -174 q 467 -121 443 -138 q 494 -97 486 -107 q 503 -65 503 -86 q 493 -43 503 -52 q 467 -35 484 -35 q 410 -64 432 -35 q 389 -140 389 -94 l 260 -140 q 243 -65 260 -96 q 199 -35 227 -35 q 163 -49 176 -35 q 150 -90 150 -64 q 168 -195 150 -139 q 221 -306 186 -250 l 92 -370 q 3 -81 3 -200 q 52 45 3 0 q 186 90 102 90 q 323 22 275 90 q 475 90 379 90 q 602 48 554 90 q 650 -61 650 5 q 631 -127 650 -106 q 579 -167 612 -149 q 554 -183 562 -176 q 546 -200 546 -191 q 558 -221 546 -212 q 596 -229 571 -229 q 642 -225 620 -229 l 656 -321 q 585 -329 621 -329 l 559 -328 q 549 -358 549 -343 q 600 -390 549 -390 q 677 -371 633 -390 l 697 -464 z "},"।":{"ha":448,"x_min":131,"x_max":318,"o":"m 131 -66 l 131 956 l 318 956 l 318 -66 l 131 -66 z "},"॥":{"ha":768,"x_min":131,"x_max":637,"o":"m 131 -66 l 131 956 l 318 956 l 318 -66 l 131 -66 m 450 -66 l 450 956 l 637 956 l 637 -66 l 450 -66 z "},"०":{"ha":791,"x_min":49,"x_max":742,"o":"m 396 127 q 217 171 296 127 q 93 291 138 214 q 49 467 49 368 q 93 642 49 565 q 217 763 138 720 q 396 806 296 806 q 574 763 496 806 q 697 643 653 720 q 742 467 742 566 q 697 291 742 368 q 574 171 653 214 q 396 127 496 127 m 396 298 q 510 346 465 298 q 554 467 554 393 q 510 588 554 541 q 396 635 465 635 q 281 588 327 635 q 236 467 236 541 q 281 346 236 393 q 396 298 326 298 z "},"१":{"ha":791,"x_min":107,"x_max":648,"o":"m 245 503 q 144 596 180 539 q 107 717 107 653 q 181 886 107 824 q 380 949 254 949 q 517 919 457 949 q 610 836 576 889 q 643 714 643 782 q 587 548 643 642 q 437 372 532 454 l 578 269 q 648 102 648 218 q 632 -21 648 59 l 446 18 q 460 93 459 64 q 445 149 460 123 q 395 200 431 174 l 183 351 l 354 519 q 431 617 407 571 q 456 714 456 664 q 433 773 456 750 q 374 796 410 796 q 317 774 339 796 q 294 717 294 753 q 343 621 294 656 l 245 503 z "},"२":{"ha":791,"x_min":56,"x_max":697,"o":"m 697 636 q 632 446 697 532 q 463 326 567 361 l 652 18 l 504 -54 l 286 309 q 142 351 189 315 q 94 453 94 386 q 133 539 94 507 q 235 571 172 571 q 306 550 275 571 q 372 476 338 529 q 510 636 510 501 q 468 756 510 714 q 347 799 425 799 q 86 739 240 799 l 56 886 q 353 951 197 951 q 535 913 457 951 q 655 803 612 875 q 697 636 697 732 z "},"३":{"ha":791,"x_min":66,"x_max":692,"o":"m 692 380 q 636 220 692 283 q 476 134 581 157 l 596 4 l 468 -98 l 267 118 q 115 159 163 123 q 66 262 66 195 q 101 346 66 314 q 191 378 135 378 q 271 356 237 378 q 354 272 306 334 q 465 304 425 275 q 505 380 505 334 q 444 489 505 447 q 235 456 357 460 l 199 603 q 400 650 330 615 q 471 736 471 685 q 364 799 471 798 q 144 750 282 799 l 93 892 q 355 951 220 951 q 575 892 493 951 q 657 730 657 833 q 597 576 657 640 q 692 380 692 497 z "},"४":{"ha":791,"x_min":57,"x_max":734,"o":"m 734 869 q 665 665 732 725 l 518 534 l 575 486 q 649 392 629 439 q 669 289 669 345 q 634 174 669 225 q 536 93 599 122 q 396 64 473 64 q 256 93 318 64 q 158 174 193 122 q 122 289 122 225 q 142 392 122 345 q 216 486 163 439 l 273 534 l 126 665 q 57 869 60 725 l 57 920 l 244 905 l 244 867 q 257 786 244 824 q 292 729 271 747 l 396 640 l 500 729 q 534 785 521 747 q 547 867 547 823 l 547 905 l 734 920 l 734 869 m 347 382 q 310 302 310 350 q 333 240 310 264 q 396 216 357 216 q 458 240 435 216 q 482 302 482 264 q 444 382 482 350 l 396 425 l 347 382 z "},"५":{"ha":791,"x_min":29,"x_max":786,"o":"m 485 321 q 363 302 424 302 q 120 387 210 302 q 29 614 29 471 q 90 801 29 707 q 253 965 150 896 l 382 875 q 261 748 305 819 q 216 611 216 677 q 253 496 216 536 q 357 456 290 456 q 422 464 387 456 q 400 525 406 504 q 395 570 395 546 q 423 643 395 616 q 500 669 452 669 q 588 648 546 669 q 655 591 629 627 q 681 517 681 555 q 631 407 681 457 l 786 60 l 633 -12 l 485 321 z "},"६":{"ha":791,"x_min":106,"x_max":803,"o":"m 488 98 l 452 97 q 212 166 304 97 q 119 357 119 236 q 200 546 119 472 q 106 730 106 611 q 189 892 106 833 q 404 950 272 950 q 619 913 509 950 l 561 768 q 401 799 471 799 q 319 780 347 799 q 292 730 292 761 q 312 669 292 692 q 385 634 332 646 q 534 621 437 623 l 567 621 l 589 468 l 524 469 q 383 481 436 472 q 306 357 305 441 q 338 280 306 308 q 432 250 370 253 q 470 336 433 306 q 576 366 507 366 q 653 347 614 366 q 717 295 692 328 q 742 222 742 262 q 723 162 742 186 q 673 126 704 138 l 803 -49 l 671 -165 l 488 98 z "},"७":{"ha":791,"x_min":11,"x_max":771,"o":"m 507 399 q 317 488 382 424 q 253 652 253 553 q 311 798 253 745 q 468 851 368 851 q 628 807 559 851 q 734 680 697 762 q 771 486 771 597 q 684 229 771 322 q 447 135 597 135 q 220 207 319 135 q 66 406 121 278 q 11 700 11 534 q 40 936 11 819 l 220 892 q 197 692 197 810 q 228 483 197 575 q 313 339 258 390 q 437 288 368 288 q 545 342 505 288 q 585 490 585 397 q 558 642 585 585 q 488 699 532 699 q 451 684 464 699 q 437 643 437 669 q 463 585 437 611 q 528 553 488 559 l 507 399 z "},"८":{"ha":791,"x_min":97,"x_max":720,"o":"m 437 643 q 283 416 283 515 q 325 322 283 357 q 437 288 367 288 q 667 338 545 288 l 720 195 q 436 134 566 134 q 260 170 338 134 q 140 270 183 205 q 97 416 97 335 q 151 584 97 500 q 319 761 205 668 l 545 946 l 661 827 l 437 643 z "},"९":{"ha":791,"x_min":82,"x_max":700,"o":"m 582 296 q 677 179 654 222 q 700 77 700 136 q 671 -22 696 25 l 484 16 q 503 82 503 58 q 484 143 503 113 q 412 228 465 174 l 214 432 q 113 566 144 503 q 82 696 82 629 q 157 883 82 814 q 359 951 232 951 q 562 881 487 951 q 637 690 637 810 q 587 533 637 602 q 450 433 536 465 l 582 296 m 359 799 q 294 771 318 799 q 269 696 269 743 q 323 566 269 633 q 419 604 389 574 q 450 690 450 635 q 426 770 450 741 q 359 799 401 799 z "},"॰":{"ha":663,"x_min":58,"x_max":607,"o":"m 332 693 q 470 656 407 693 q 570 556 533 619 q 607 418 607 493 q 570 280 607 342 q 470 181 533 218 q 332 144 407 144 q 194 181 256 144 q 95 281 132 218 q 58 418 58 343 q 95 556 58 493 q 195 656 132 619 q 332 693 257 693 m 334 524 q 259 493 290 524 q 228 418 228 463 q 258 345 228 375 q 334 314 289 314 q 409 345 378 314 q 439 418 439 375 q 408 493 439 463 q 334 524 378 524 z "},"ॱ":{"ha":369,"x_min":97,"x_max":272,"o":"m 184 787 q 122 813 147 787 q 97 875 97 839 q 123 937 97 911 q 184 962 149 962 q 246 937 220 962 q 272 875 272 911 q 247 813 272 839 q 184 787 221 787 z "},"ॲ":{"ha":1193,"x_min":11,"x_max":1221,"o":"m 1047 799 l 1047 0 l 860 0 l 860 406 q 710 390 786 390 q 659 393 692 390 q 672 310 672 352 q 592 103 672 176 q 374 31 511 31 q 174 80 267 31 q 11 233 81 129 l 143 321 q 363 197 235 197 q 450 228 416 197 q 485 310 485 258 q 463 386 485 350 q 406 446 441 421 q 269 414 343 426 l 228 564 q 394 622 347 589 q 441 711 441 654 q 414 775 441 751 q 330 799 387 799 q 273 791 298 799 q 220 773 248 783 q 183 758 193 762 l 135 901 q 353 951 231 951 q 509 917 447 951 q 600 827 571 882 q 629 713 629 772 q 574 550 629 617 q 710 534 639 534 q 860 554 793 534 l 860 799 l 686 799 l 686 951 l 1221 951 l 1221 799 l 1047 799 m 1211 1234 q 1119 1067 1179 1118 q 954 1015 1059 1015 q 786 1067 848 1015 q 693 1231 724 1118 l 817 1268 q 871 1179 838 1207 q 954 1152 904 1152 q 1038 1179 1004 1152 q 1092 1268 1071 1207 l 1211 1234 z "},"ॳ":{"ha":1162,"x_min":22,"x_max":1206,"o":"m 1032 799 l 1032 0 l 844 0 l 844 410 q 679 390 764 390 l 669 390 q 684 310 683 354 q 603 103 684 176 q 385 31 522 31 q 184 80 277 31 q 22 233 92 129 l 154 321 q 374 197 245 197 q 461 228 427 197 q 496 310 496 258 q 470 393 496 355 q 401 456 444 431 q 239 414 335 429 l 197 564 q 364 622 317 589 q 411 711 411 654 q 384 775 411 751 q 300 799 357 799 q 242 791 268 799 q 190 773 216 783 q 153 758 163 762 l 104 901 q 322 951 200 951 q 478 917 416 951 q 570 827 541 882 q 599 713 599 772 q 543 550 599 617 q 679 534 608 534 q 844 559 776 534 l 844 799 l 671 799 l 671 951 l 844 951 l 844 1118 l 1032 1118 l 1032 951 l 1206 951 l 1206 799 l 1032 799 z "},"ॴ":{"ha":1672,"x_min":11,"x_max":1700,"o":"m 1527 799 l 1527 0 l 1339 0 l 1339 799 l 1047 799 l 1047 0 l 860 0 l 860 406 q 710 390 786 390 q 659 393 692 390 q 672 310 672 352 q 592 103 672 176 q 374 31 511 31 q 174 80 267 31 q 11 233 81 129 l 143 321 q 363 197 235 197 q 450 228 416 197 q 485 310 485 258 q 463 386 485 350 q 406 446 441 421 q 269 414 343 426 l 228 564 q 394 622 347 589 q 441 711 441 654 q 414 775 441 751 q 330 799 387 799 q 273 791 298 799 q 220 773 248 783 q 183 758 193 762 l 135 901 q 353 951 231 951 q 509 917 447 951 q 600 827 571 882 q 629 713 629 772 q 574 550 629 617 q 710 534 639 534 q 860 554 793 534 l 860 799 l 686 799 l 686 951 l 1339 951 l 1339 1118 l 1527 1118 l 1527 951 l 1700 951 l 1700 799 l 1527 799 z "},"ॵ":{"ha":1672,"x_min":11,"x_max":1700,"o":"m 1527 799 l 1527 0 l 1339 0 l 1339 799 l 1047 799 l 1047 0 l 860 0 l 860 406 q 710 390 786 390 q 659 393 692 390 q 672 310 672 352 q 592 103 672 176 q 374 31 511 31 q 174 80 267 31 q 11 233 81 129 l 143 321 q 363 197 235 197 q 450 228 416 197 q 485 310 485 258 q 463 386 485 350 q 406 446 441 421 q 269 414 343 426 l 228 564 q 394 622 347 589 q 441 711 441 654 q 414 775 441 751 q 330 799 387 799 q 273 791 298 799 q 220 773 248 783 q 183 758 193 762 l 135 901 q 353 951 231 951 q 509 917 447 951 q 600 827 571 882 q 629 713 629 772 q 574 550 629 617 q 710 534 639 534 q 860 554 793 534 l 860 799 l 686 799 l 686 951 l 1326 951 q 1278 993 1304 982 q 1208 1004 1253 1004 q 1126 999 1190 1004 q 1018 991 1034 992 q 903 1015 953 991 q 785 1104 852 1039 l 905 1210 q 992 1145 962 1161 q 1059 1129 1022 1129 l 1261 1129 q 1189 1160 1236 1143 q 1060 1210 1101 1190 q 986 1262 1018 1229 q 926 1354 954 1295 l 1080 1407 q 1119 1346 1101 1366 q 1158 1317 1136 1326 q 1229 1291 1179 1307 l 1270 1276 q 1451 1155 1393 1232 q 1514 951 1508 1079 l 1700 951 l 1700 799 l 1527 799 z "},"ॶ":{"ha":1193,"x_min":11,"x_max":1239,"o":"m 1047 799 l 1047 0 l 860 0 l 860 406 q 710 390 786 390 q 659 393 692 390 q 672 310 672 352 q 592 103 672 176 q 374 31 511 31 q 174 80 267 31 q 11 233 81 129 l 143 321 q 363 197 235 197 q 450 228 416 197 q 485 310 485 258 q 463 386 485 350 q 406 446 441 421 q 269 414 343 426 l 228 564 q 394 622 347 589 q 441 711 441 654 q 414 775 441 751 q 330 799 387 799 q 273 791 298 799 q 220 773 248 783 q 183 758 193 762 l 135 901 q 353 951 231 951 q 509 917 447 951 q 600 827 571 882 q 629 713 629 772 q 574 550 629 617 q 710 534 639 534 q 860 554 793 534 l 860 799 l 686 799 l 686 951 l 1221 951 l 1221 799 l 1047 799 m 1239 -77 q 1134 -235 1207 -179 q 957 -292 1061 -292 q 775 -237 848 -292 q 669 -79 701 -182 l 806 -41 q 866 -125 827 -96 q 957 -155 905 -155 q 1048 -125 1008 -155 q 1108 -41 1088 -96 l 1239 -77 z "},"ॷ":{"ha":1193,"x_min":11,"x_max":1242,"o":"m 659 393 q 672 310 672 351 q 592 103 672 176 q 374 31 511 31 q 174 80 267 31 q 11 233 81 129 l 143 321 q 363 197 235 197 q 450 228 416 197 q 485 310 485 258 q 463 386 485 350 q 406 446 441 421 q 269 414 343 426 l 228 564 q 394 622 347 589 q 441 711 441 654 q 414 775 441 751 q 330 799 387 799 q 273 791 298 799 q 220 773 248 783 q 183 758 193 762 l 135 901 q 353 951 231 951 q 509 917 447 951 q 600 827 571 882 q 629 713 629 772 q 574 550 629 617 q 710 534 639 534 q 860 554 793 534 l 860 799 l 686 799 l 686 951 l 1221 951 l 1221 799 l 1047 799 l 1047 0 l 860 0 l 860 406 q 710 390 786 390 q 659 393 692 390 m 960 -127 q 1051 -98 1011 -127 q 1111 -14 1090 -68 l 1242 -49 q 1137 -208 1210 -152 q 960 -264 1064 -264 q 778 -209 851 -264 q 672 -52 704 -154 l 808 -14 q 869 -98 829 -68 q 960 -127 908 -127 m 960 -375 q 1051 -345 1011 -375 q 1111 -261 1090 -315 l 1242 -296 q 1137 -455 1210 -399 q 960 -511 1064 -511 q 778 -456 851 -511 q 672 -298 704 -401 l 808 -261 q 869 -345 829 -315 q 960 -375 908 -375 z "},"ॹ":{"ha":1166,"x_min":-28,"x_max":1194,"o":"m 1021 799 l 1021 0 l 833 0 l 833 532 l 636 532 q 703 363 703 446 q 636 202 703 263 q 460 142 570 142 q 270 190 346 142 q 141 337 195 237 q 40 608 87 437 l 220 653 q 330 384 273 473 q 453 294 387 294 q 497 310 478 294 q 517 355 517 326 q 497 426 517 387 q 418 532 478 464 l 484 685 l 833 685 l 833 799 l -28 799 l -28 951 l 1194 951 l 1194 799 l 1021 799 m 429 -339 q 355 -308 387 -339 q 323 -233 323 -276 q 355 -158 323 -189 q 429 -127 387 -127 q 505 -158 474 -127 q 535 -233 535 -189 q 505 -308 535 -276 q 429 -339 474 -339 m 278 -111 q 204 -80 235 -111 q 172 -5 172 -48 q 204 70 172 39 q 278 100 235 100 q 353 70 323 100 q 384 -5 384 39 q 353 -80 384 -48 q 278 -111 323 -111 m 581 -111 q 506 -80 538 -111 q 475 -5 475 -48 q 506 70 475 39 q 581 100 538 100 q 656 70 625 100 q 686 -5 686 39 q 656 -80 686 -48 q 581 -111 625 -111 z "},"ॺ":{"ha":965,"x_min":-28,"x_max":993,"o":"m 819 799 l 819 0 l 632 0 l 632 191 q 421 131 528 131 q 231 179 314 131 q 99 312 147 227 q 45 507 50 397 q 185 573 134 531 q 236 665 236 615 q 176 799 236 734 l -28 799 l -28 951 l 993 951 l 993 799 l 819 799 m 385 799 l 632 541 l 632 799 l 385 799 m 252 418 q 326 317 277 351 q 436 283 375 283 q 523 303 477 283 q 610 361 568 323 l 411 574 q 252 418 376 467 z "},"ॻ":{"ha":905,"x_min":-26,"x_max":949,"o":"m 775 799 l 775 -153 l 65 -153 l 65 0 l 587 0 l 587 799 l 343 799 l 343 415 q 317 264 343 315 q 241 212 292 212 q 155 251 201 212 q 77 345 109 289 q 45 447 45 400 q 155 524 45 524 l 155 799 l -26 799 l -26 951 l 949 951 l 949 799 l 775 799 z "},"ॼ":{"ha":1152,"x_min":-26,"x_max":1196,"o":"m 1022 799 l 1022 -153 l 94 -153 l 94 0 l 835 0 l 835 532 l 637 532 q 704 363 704 446 q 637 202 704 263 q 461 142 571 142 q 272 190 347 142 q 142 337 196 237 q 41 608 89 437 l 221 653 q 331 384 274 473 q 454 294 389 294 q 499 310 479 294 q 518 355 518 326 q 499 426 518 387 q 419 532 479 464 l 485 685 l 835 685 l 835 799 l -26 799 l -26 951 l 1196 951 l 1196 799 l 1022 799 z "},"ॽ":{"ha":755,"x_min":69,"x_max":707,"o":"m 379 951 q 551 918 476 951 q 666 824 625 885 q 707 684 707 762 q 630 489 707 578 q 418 347 554 400 l 418 0 l 218 0 l 218 452 q 507 684 507 515 q 474 770 507 741 q 378 800 440 800 q 262 779 326 800 q 136 722 199 758 l 69 864 q 219 928 138 905 q 379 951 300 951 z "},"ॾ":{"ha":865,"x_min":-25,"x_max":888,"o":"m 370 566 q 342 559 351 566 q 334 536 334 553 q 393 464 334 465 q 482 476 410 464 q 606 493 582 493 q 747 441 696 493 q 799 297 799 390 q 758 155 799 216 q 643 59 717 93 q 471 25 568 25 q 211 85 317 25 q 28 277 104 146 l 155 351 q 258 245 214 282 q 348 193 302 208 q 456 178 393 178 q 568 203 525 178 q 611 281 611 229 q 594 325 611 310 q 550 340 576 340 q 492 330 541 340 q 372 311 397 311 q 256 343 307 311 q 175 432 204 375 q 146 561 146 489 q 201 675 146 633 q 350 718 256 718 l 513 718 l 513 799 l -25 799 l -25 951 l 888 951 l 888 799 l 700 799 l 700 566 l 370 566 m 786 0 l 786 -153 l 81 -153 l 81 0 l 786 0 z "},"ॿ":{"ha":891,"x_min":-24,"x_max":935,"o":"m 761 799 l 761 -153 l 83 -153 l 83 0 l 574 0 l 574 218 q 364 142 484 142 q 208 176 277 142 q 101 271 139 210 q 62 410 62 332 q 145 613 62 542 q 382 685 228 685 q 411 684 406 685 l 429 529 q 393 532 404 532 q 364 530 372 532 l 522 358 q 574 432 546 385 l 574 799 l -24 799 l -24 951 l 935 951 l 935 799 l 761 799 m 250 410 q 284 326 250 357 q 378 294 318 294 q 414 297 389 294 l 260 461 q 250 410 250 440 z "},"Ẁ":{"ha":1411,"x_min":18,"x_max":1393,"o":"m 554 1340 l 771 1117 l 714 1047 l 464 1221 l 554 1340 m 754 515 q 737 599 746 549 q 722 676 728 650 l 705 768 l 689 676 q 674 599 684 650 q 657 515 665 549 l 538 0 l 257 0 l 18 985 l 229 985 l 335 522 q 374 359 357 420 l 411 196 l 486 522 l 593 985 l 818 985 l 925 522 l 1000 196 q 1039 359 1023 296 l 1076 522 l 1182 985 l 1393 985 l 1154 0 l 873 0 l 754 515 z "},"ẁ":{"ha":1156,"x_min":14,"x_max":1143,"o":"m 418 1084 l 635 861 l 578 791 l 328 965 l 418 1084 m 619 306 q 602 383 608 351 q 591 436 596 415 l 579 503 q 559 414 575 489 q 538 306 555 393 l 458 0 l 210 0 l 14 728 l 215 728 l 292 404 q 329 240 304 354 q 336 206 332 224 q 345 168 340 187 q 406 404 387 335 l 496 728 l 661 728 l 750 404 q 772 325 762 361 q 789 260 782 288 q 812 168 817 155 q 865 406 829 237 l 942 728 l 1143 728 l 946 0 l 697 0 l 619 306 z "},"Ẃ":{"ha":1411,"x_min":18,"x_max":1393,"o":"m 615 1117 l 832 1340 l 922 1221 l 672 1047 l 615 1117 m 754 515 q 737 599 746 549 q 722 676 728 650 l 705 768 l 689 676 q 674 599 684 650 q 657 515 665 549 l 538 0 l 257 0 l 18 985 l 229 985 l 335 522 q 374 359 357 420 l 411 196 l 486 522 l 593 985 l 818 985 l 925 522 l 1000 196 q 1039 359 1023 296 l 1076 522 l 1182 985 l 1393 985 l 1154 0 l 873 0 l 754 515 z "},"ẃ":{"ha":1156,"x_min":14,"x_max":1143,"o":"m 479 861 l 696 1084 l 786 965 l 536 791 l 479 861 m 619 306 q 602 383 608 351 q 591 436 596 415 l 579 503 q 559 414 575 489 q 538 306 555 393 l 458 0 l 210 0 l 14 728 l 215 728 l 292 404 q 329 240 304 354 q 336 206 332 224 q 345 168 340 187 q 406 404 387 335 l 496 728 l 661 728 l 750 404 q 772 325 762 361 q 789 260 782 288 q 812 168 817 155 q 865 406 829 237 l 942 728 l 1143 728 l 946 0 l 697 0 l 619 306 z "},"Ẅ":{"ha":1411,"x_min":18,"x_max":1393,"o":"m 481 1251 l 650 1251 l 650 1088 l 481 1088 l 481 1251 m 768 1251 l 936 1251 l 936 1088 l 768 1088 l 768 1251 m 754 515 q 737 599 746 549 q 722 676 728 650 l 705 768 l 689 676 q 674 599 684 650 q 657 515 665 549 l 538 0 l 257 0 l 18 985 l 229 985 l 335 522 q 374 359 357 420 l 411 196 l 486 522 l 593 985 l 818 985 l 925 522 l 1000 196 q 1039 359 1023 296 l 1076 522 l 1182 985 l 1393 985 l 1154 0 l 873 0 l 754 515 z "},"ẅ":{"ha":1156,"x_min":14,"x_max":1143,"o":"m 346 996 l 515 996 l 515 832 l 346 832 l 346 996 m 633 996 l 802 996 l 802 832 l 633 832 l 633 996 m 619 306 q 602 383 608 351 q 591 436 596 415 l 579 503 q 559 414 575 489 q 538 306 555 393 l 458 0 l 210 0 l 14 728 l 215 728 l 292 404 q 329 240 304 354 q 336 206 332 224 q 345 168 340 187 q 406 404 387 335 l 496 728 l 661 728 l 750 404 q 772 325 762 361 q 789 260 782 288 q 812 168 817 155 q 865 406 829 237 l 942 728 l 1143 728 l 946 0 l 697 0 l 619 306 z "},"Ỳ":{"ha":863,"x_min":0,"x_max":864,"o":"m 275 1340 l 492 1117 l 435 1047 l 184 1221 l 275 1340 m 349 742 q 392 635 366 705 q 427 542 418 566 l 437 542 q 472 635 446 566 q 515 742 498 705 l 636 985 l 864 985 l 538 382 l 538 0 l 325 0 l 325 382 l 0 985 l 229 985 l 349 742 z "},"ỳ":{"ha":751,"x_min":3,"x_max":750,"o":"m 452 861 l 395 791 l 144 965 l 235 1084 l 452 861 m 278 4 l 3 728 l 201 728 l 283 504 q 361 241 314 420 l 379 172 l 400 253 q 471 507 440 418 l 550 728 l 750 728 l 351 -318 l 161 -318 l 278 4 z "},"‌":{"ha":0,"x_min":0,"x_max":158,"o":"m 0 -339 l 0 1050 l 158 1050 l 158 -339 l 0 -339 z "},"‍":{"ha":0,"x_min":0,"x_max":354,"o":"m 158 933 l 158 -339 l 0 -339 l 0 1050 l 354 1050 l 354 933 l 158 933 z "},"–":{"ha":875,"x_min":90,"x_max":785,"o":"m 90 519 l 785 519 l 785 372 l 90 372 l 90 519 z "},"—":{"ha":1222,"x_min":90,"x_max":1132,"o":"m 90 519 l 1132 519 l 1132 372 l 90 372 l 90 519 z "},"‗":{"ha":833,"x_min":90,"x_max":747,"o":"m 90 -53 l 747 -53 l 747 -201 l 90 -201 l 90 -53 m 90 -260 l 747 -260 l 747 -410 l 90 -410 l 90 -260 z "},"‘":{"ha":386,"x_min":65,"x_max":304,"o":"m 304 814 l 304 618 l 65 618 l 65 781 l 164 1013 l 298 1013 l 229 814 l 304 814 z "},"’":{"ha":386,"x_min":68,"x_max":309,"o":"m 309 850 l 208 618 l 74 618 l 144 817 l 68 817 l 68 1013 l 309 1013 l 309 850 z "},"‚":{"ha":344,"x_min":89,"x_max":256,"o":"m 89 210 l 256 210 l 241 -183 l 103 -183 l 89 210 z "},"‛":{"ha":397,"x_min":72,"x_max":311,"o":"m 236 818 l 306 619 l 171 619 l 72 851 l 72 1013 l 311 1013 l 311 818 l 236 818 z "},"“":{"ha":690,"x_min":65,"x_max":608,"o":"m 304 814 l 304 618 l 65 618 l 65 781 l 164 1013 l 298 1013 l 229 814 l 304 814 m 608 814 l 608 618 l 370 618 l 370 781 l 467 1013 l 603 1013 l 532 814 l 608 814 z "},"”":{"ha":690,"x_min":68,"x_max":612,"o":"m 309 850 l 210 618 l 74 618 l 144 817 l 68 817 l 68 1013 l 309 1013 l 309 850 m 612 850 l 513 618 l 378 618 l 449 817 l 372 817 l 372 1013 l 612 1013 l 612 850 z "},"„":{"ha":690,"x_min":68,"x_max":612,"o":"m 309 25 l 210 -207 l 74 -207 l 144 -8 l 68 -8 l 68 187 l 309 187 l 309 25 m 612 25 l 513 -207 l 378 -207 l 449 -8 l 372 -8 l 372 187 l 612 187 l 612 25 z "},"†":{"ha":696,"x_min":-11,"x_max":707,"o":"m 268 1075 l 428 1075 l 428 729 l 707 729 l 707 586 l 428 586 l 428 -268 l 268 -268 l 268 586 l -11 586 l -11 729 l 268 729 l 268 1075 z "},"‡":{"ha":737,"x_min":9,"x_max":728,"o":"m 289 586 l 9 586 l 9 729 l 289 729 l 289 1075 l 449 1075 l 449 729 l 728 729 l 728 586 l 449 586 l 449 195 l 728 195 l 728 52 l 449 52 l 449 -268 l 289 -268 l 289 52 l 9 52 l 9 195 l 289 195 l 289 586 z "},"•":{"ha":548,"x_min":46,"x_max":503,"o":"m 46 458 q 77 574 46 521 q 159 657 107 627 q 273 688 211 688 q 389 657 336 688 q 472 574 441 627 q 503 458 503 521 q 472 343 503 396 q 389 260 441 290 q 273 229 336 229 q 159 260 211 229 q 77 343 107 290 q 46 458 46 396 z "},"…":{"ha":1104,"x_min":93,"x_max":1011,"o":"m 93 207 l 307 207 l 307 0 l 93 0 l 93 207 m 446 207 l 660 207 l 660 0 l 446 0 l 446 207 m 798 207 l 1011 207 l 1011 0 l 798 0 l 798 207 z "},"‰":{"ha":1915,"x_min":32,"x_max":1883,"o":"m 325 -1 l 926 1039 l 1034 978 l 433 -64 l 325 -1 m 32 669 q 278 985 33 985 q 461 903 397 985 q 525 669 525 822 q 461 433 525 515 q 278 351 397 351 q 32 669 33 351 m 376 669 q 353 828 376 778 q 278 878 329 878 q 203 828 227 878 q 179 669 179 778 q 203 509 179 558 q 278 460 227 460 q 353 509 330 460 q 376 669 376 558 m 835 307 q 1080 623 835 623 q 1263 541 1200 623 q 1326 307 1326 460 q 1263 71 1326 153 q 1080 -11 1200 -11 q 835 307 835 -11 m 1390 307 q 1636 623 1391 623 q 1820 541 1756 623 q 1883 307 1883 460 q 1820 71 1883 153 q 1636 -11 1756 -11 q 1390 307 1391 -11 m 1179 307 q 1156 465 1179 415 q 1080 515 1132 515 q 1005 465 1029 515 q 982 307 982 415 q 1006 146 982 196 q 1080 97 1029 97 q 1156 146 1132 97 q 1179 307 1179 196 m 1736 307 q 1712 465 1736 415 q 1636 515 1687 515 q 1561 465 1585 515 q 1537 307 1537 415 q 1562 147 1537 197 q 1636 97 1586 97 q 1712 147 1688 97 q 1736 307 1736 197 z "},"′":{"ha":374,"x_min":56,"x_max":345,"o":"m 140 985 l 345 985 l 192 606 l 56 606 l 140 985 z "},"″":{"ha":647,"x_min":56,"x_max":616,"o":"m 140 985 l 345 985 l 192 606 l 56 606 l 140 985 m 412 985 l 616 985 l 464 606 l 328 606 l 412 985 z "},"‹":{"ha":511,"x_min":62,"x_max":428,"o":"m 425 123 l 306 28 l 62 368 l 307 708 l 428 614 l 250 368 l 425 123 z "},"›":{"ha":511,"x_min":77,"x_max":441,"o":"m 441 368 l 199 28 l 78 123 l 253 368 l 77 614 l 197 708 l 441 368 z "},"‼":{"ha":732,"x_min":85,"x_max":648,"o":"m 85 1028 l 294 1028 l 269 297 l 110 297 l 85 1028 m 437 1028 l 648 1028 l 623 297 l 463 297 l 437 1028 m 86 174 l 294 174 l 294 -9 l 86 -9 l 86 174 m 440 174 l 647 174 l 647 -9 l 440 -9 l 440 174 z "},"‾":{"ha":833,"x_min":90,"x_max":747,"o":"m 90 1166 l 747 1166 l 747 1018 l 90 1018 l 90 1166 z "},"⁄":{"ha":245,"x_min":-232,"x_max":478,"o":"m -232 -1 l 370 1039 l 478 978 l -123 -64 l -232 -1 z "},"₣":{"ha":794,"x_min":11,"x_max":771,"o":"m 705 449 l 378 449 l 378 283 l 564 283 l 564 154 l 378 154 l 378 0 l 165 0 l 165 154 l 11 154 l 11 283 l 165 283 l 165 985 l 771 985 l 771 825 l 378 825 l 378 608 l 705 608 l 705 449 z "},"₤":{"ha":785,"x_min":62,"x_max":761,"o":"m 380 338 q 332 228 364 279 q 260 142 300 176 l 750 151 l 750 0 l 75 0 l 75 122 q 184 338 161 212 l 62 338 l 62 440 l 193 440 q 182 533 192 489 l 62 533 l 62 637 l 153 637 q 140 732 140 688 q 182 877 140 815 q 301 972 224 939 q 481 1006 378 1006 q 661 963 587 1006 q 761 844 734 921 l 615 783 q 570 838 603 818 q 488 857 536 857 q 381 822 420 857 q 343 725 343 786 q 358 637 343 689 l 600 637 l 600 533 l 386 533 q 396 440 395 487 l 600 440 l 600 338 l 380 338 z "},"₨":{"ha":1547,"x_min":113,"x_max":1506,"o":"m 322 0 l 113 0 l 113 985 l 450 985 q 733 906 635 985 q 832 677 832 828 q 785 517 832 585 q 650 412 737 449 l 865 0 l 639 0 l 458 375 l 322 375 l 322 0 m 441 528 q 577 565 533 528 q 621 677 621 602 q 577 792 621 755 q 441 828 533 828 l 322 828 l 322 528 l 441 528 m 1251 742 q 1492 694 1354 742 l 1449 558 q 1334 591 1377 582 q 1259 600 1292 600 q 1177 581 1207 600 q 1147 528 1147 561 q 1176 478 1147 496 q 1261 443 1204 460 q 1387 401 1341 420 q 1470 337 1434 382 q 1506 214 1506 292 q 1426 46 1506 106 q 1207 -14 1346 -14 q 928 45 1061 -14 l 978 182 q 1106 141 1057 153 q 1194 129 1156 129 q 1276 149 1249 129 q 1304 207 1304 170 q 1272 262 1304 244 q 1169 300 1240 279 q 1058 340 1103 319 q 982 406 1014 361 q 950 524 950 450 q 1030 684 950 627 q 1251 742 1109 742 z "},"₹":{"ha":598,"x_min":-28,"x_max":627,"o":"m 456 799 q 522 602 522 690 q 469 426 522 494 q 317 339 415 358 l 519 57 l 370 -47 l 40 399 l 31 410 l 122 522 q 232 482 182 482 q 298 505 272 482 q 332 570 325 528 l -25 570 l -25 722 l 297 722 q 248 799 273 764 l -28 799 l -28 951 l 627 951 l 627 799 l 456 799 z "},"℅":{"ha":1079,"x_min":11,"x_max":1068,"o":"m 163 -1 l 764 1039 l 872 978 l 271 -64 l 163 -1 m 11 743 q 78 926 11 861 q 264 991 144 991 q 407 956 338 991 l 374 859 q 278 886 322 886 q 192 849 222 886 q 161 743 161 811 q 193 638 161 675 q 283 600 225 600 q 386 625 330 600 l 410 525 q 335 500 375 509 q 261 492 296 492 q 76 557 140 492 q 11 743 11 623 m 572 244 q 637 429 572 364 q 819 493 701 493 q 1003 429 939 493 q 1068 244 1068 364 q 1003 59 1068 125 q 819 -7 937 -7 q 637 59 701 -7 q 572 244 572 125 m 918 244 q 894 353 918 318 q 819 387 869 387 q 746 352 770 387 q 722 244 722 317 q 747 135 722 170 q 819 100 771 100 q 894 135 869 100 q 918 244 918 171 z "},"№":{"ha":1586,"x_min":113,"x_max":1564,"o":"m 1317 993 q 1499 928 1435 993 q 1564 743 1564 863 q 1499 558 1564 624 q 1317 493 1435 493 q 1133 558 1198 493 q 1068 743 1068 624 q 1133 928 1068 863 q 1317 993 1197 993 m 764 0 l 458 436 q 306 682 410 505 l 306 0 l 113 0 l 113 985 l 281 985 l 581 557 q 739 307 637 476 l 739 985 l 933 985 l 933 0 l 764 0 m 1317 599 q 1415 743 1415 599 q 1391 852 1415 817 q 1317 886 1367 886 q 1242 851 1267 886 q 1218 743 1218 817 q 1317 599 1218 599 z "},"™":{"ha":987,"x_min":0,"x_max":986,"o":"m 389 888 l 261 888 l 261 510 l 127 510 l 127 888 l 0 888 l 0 985 l 389 985 l 389 888 m 921 985 l 986 510 l 861 510 l 825 787 l 743 510 l 644 510 l 561 787 l 526 510 l 400 510 l 465 985 l 597 985 l 694 710 l 789 985 l 921 985 z "},"℮":{"ha":1055,"x_min":26,"x_max":1050,"o":"m 539 904 q 795 842 677 904 q 981 674 913 781 q 1050 443 1050 568 l 1050 432 l 221 432 q 214 427 214 432 l 214 175 q 227 146 214 161 q 368 46 286 82 q 541 11 449 11 q 723 51 637 11 q 869 163 808 92 l 945 163 q 767 31 874 79 q 539 -17 660 -17 q 283 45 400 -17 q 96 213 165 107 q 26 443 26 318 q 96 674 26 568 q 283 842 165 781 q 539 904 400 904 m 541 876 q 370 841 450 876 q 228 743 289 806 q 214 711 214 730 l 214 464 q 221 457 214 457 l 857 457 q 864 464 864 457 l 864 717 q 850 747 864 734 q 709 842 789 808 q 541 876 629 876 z "},"⅓":{"ha":1101,"x_min":4,"x_max":1072,"o":"m 147 -1 l 747 1039 l 856 978 l 254 -64 l 147 -1 m 319 972 l 319 363 l 165 363 l 165 854 l 26 821 l 4 903 l 227 986 l 319 972 m 661 121 q 796 98 736 98 q 884 119 853 98 q 916 175 916 139 q 789 257 916 257 l 736 257 l 736 361 l 783 361 q 869 382 839 361 q 899 441 899 403 q 874 492 899 475 q 804 509 850 509 q 665 482 742 509 l 643 586 q 833 618 736 618 q 995 574 933 618 q 1057 456 1057 530 q 1025 365 1057 400 q 932 315 993 329 q 1036 263 1000 302 q 1072 165 1072 225 q 1005 36 1072 82 q 814 -9 939 -9 q 643 18 720 -9 l 661 121 z "},"⅔":{"ha":1194,"x_min":20,"x_max":1165,"o":"m 240 -1 l 842 1039 l 949 978 l 347 -64 l 240 -1 m 210 983 q 370 930 310 983 q 431 787 431 876 q 399 664 431 720 q 283 536 367 608 l 205 469 q 443 490 314 471 l 443 363 l 29 363 l 21 461 l 121 550 q 237 668 204 616 q 271 777 271 720 q 243 843 271 819 q 167 867 216 867 q 41 838 109 867 l 20 946 q 210 983 118 983 m 755 121 q 890 98 829 98 q 978 119 947 98 q 1008 175 1008 139 q 882 257 1008 257 l 831 257 l 831 361 l 876 361 q 962 382 932 361 q 993 441 993 403 q 968 492 993 475 q 897 509 943 509 q 760 482 835 509 l 737 586 q 926 618 830 618 q 1090 574 1028 618 q 1152 456 1152 530 q 1120 365 1152 400 q 1026 315 1088 329 q 1129 263 1093 302 q 1165 165 1165 225 q 1099 36 1165 82 q 908 -9 1032 -9 q 737 18 812 -9 l 755 121 z "},"⅛":{"ha":1162,"x_min":4,"x_max":1136,"o":"m 147 -1 l 747 1039 l 856 978 l 254 -64 l 147 -1 m 319 972 l 319 363 l 165 363 l 165 854 l 26 821 l 4 903 l 227 986 l 319 972 m 652 165 q 679 251 652 212 q 760 317 707 290 q 695 372 718 339 q 672 460 672 406 q 732 580 672 535 q 893 625 791 625 q 1054 579 995 625 q 1114 457 1114 533 q 1014 321 1114 374 q 1103 259 1071 294 q 1136 164 1136 224 q 1070 35 1136 83 q 895 -14 1004 -14 q 716 34 781 -14 q 652 165 652 82 m 982 452 q 958 502 982 482 q 893 521 933 521 q 829 502 853 521 q 804 452 804 484 q 833 394 804 416 q 917 354 863 372 q 982 452 982 395 m 999 170 q 980 218 999 199 q 935 249 961 237 q 859 277 909 260 q 804 226 821 250 q 787 171 787 201 q 817 112 787 134 q 895 90 846 90 q 970 113 941 90 q 999 170 999 135 z "},"⅜":{"ha":1261,"x_min":20,"x_max":1235,"o":"m 245 -1 l 846 1039 l 954 978 l 353 -64 l 245 -1 m 37 484 q 172 461 111 461 q 260 481 229 461 q 290 538 290 501 q 165 619 290 620 l 113 619 l 113 724 l 158 724 q 244 744 214 724 q 275 804 275 765 q 250 854 275 838 q 179 871 225 871 q 41 843 117 871 l 20 949 q 210 981 113 981 q 371 937 309 981 q 433 818 433 893 q 401 727 433 762 q 309 677 370 692 q 411 626 375 664 q 447 528 447 587 q 380 398 447 444 q 191 353 314 353 q 102 360 148 353 q 20 380 56 367 l 37 484 m 750 165 q 778 251 750 212 q 859 317 806 290 q 794 372 817 339 q 771 460 771 406 q 831 580 771 535 q 991 625 890 625 q 1153 579 1093 625 q 1213 457 1213 533 q 1112 321 1213 374 q 1202 259 1169 294 q 1235 164 1235 224 q 1169 35 1235 83 q 993 -14 1103 -14 q 814 34 879 -14 q 750 165 750 82 m 1080 452 q 1056 502 1080 482 q 991 521 1032 521 q 927 502 951 521 q 903 452 903 484 q 932 394 903 416 q 1015 354 961 372 q 1080 452 1080 395 m 1097 170 q 1079 218 1097 199 q 1034 249 1060 237 q 957 277 1008 260 q 903 226 920 250 q 886 171 886 201 q 916 112 886 134 q 993 90 945 90 q 1068 113 1039 90 q 1097 170 1097 135 z "},"⅝":{"ha":1279,"x_min":24,"x_max":1253,"o":"m 264 -1 l 865 1039 l 972 978 l 371 -64 l 264 -1 m 49 497 q 200 467 134 467 q 284 491 254 467 q 314 564 314 515 q 290 624 314 604 q 224 644 265 644 q 118 618 171 644 l 52 668 l 81 978 l 440 978 l 440 867 l 191 867 l 176 732 q 281 749 236 749 q 416 700 364 749 q 468 570 468 652 q 401 413 468 470 q 221 355 335 355 q 24 393 123 355 l 49 497 m 770 165 q 798 251 770 212 q 876 317 825 290 q 812 372 835 339 q 789 460 789 406 q 848 580 789 535 q 1010 625 908 625 q 1172 579 1112 625 q 1232 457 1232 533 q 1131 321 1232 374 q 1221 260 1189 296 q 1253 164 1253 224 q 1187 35 1253 83 q 1011 -14 1121 -14 q 834 34 899 -14 q 770 165 770 82 m 1099 452 q 1074 502 1099 484 q 1010 521 1050 521 q 946 502 970 521 q 922 452 922 484 q 951 394 922 416 q 1035 354 979 372 q 1099 452 1099 394 m 1117 170 q 1098 218 1117 199 q 1054 249 1079 237 q 977 277 1028 260 q 922 226 939 250 q 905 171 905 201 q 935 112 905 134 q 1011 90 964 90 q 1087 113 1057 90 q 1117 170 1117 135 z "},"⅞":{"ha":1250,"x_min":9,"x_max":1223,"o":"m 235 -1 l 836 1039 l 943 978 l 342 -64 l 235 -1 m 454 888 l 210 363 l 60 363 l 300 864 l 9 864 l 9 981 l 431 981 l 454 888 m 741 165 q 768 251 741 212 q 847 317 796 290 q 783 372 806 339 q 760 460 760 406 q 819 580 760 535 q 981 625 879 625 q 1143 579 1082 625 q 1203 457 1203 533 q 1101 321 1203 374 q 1192 260 1160 296 q 1223 164 1223 224 q 1158 35 1223 83 q 983 -14 1093 -14 q 805 34 869 -14 q 741 165 741 82 m 1069 452 q 1045 502 1069 484 q 981 521 1021 521 q 917 502 941 521 q 893 452 893 484 q 922 394 893 416 q 1006 354 950 372 q 1069 452 1069 394 m 1088 170 q 1069 218 1088 199 q 1024 249 1050 237 q 947 277 999 260 q 893 226 910 250 q 876 171 876 201 q 905 112 876 134 q 983 90 935 90 q 1059 113 1029 90 q 1088 170 1088 135 z "},"←":{"ha":773,"x_min":24,"x_max":749,"o":"m 749 444 l 212 444 l 481 176 l 403 97 l 24 476 l 24 524 l 403 903 l 481 823 l 212 555 l 749 555 l 749 444 z "},"↑":{"ha":836,"x_min":16,"x_max":821,"o":"m 473 138 l 363 138 l 363 673 l 94 406 l 16 484 l 395 863 l 441 863 l 821 484 l 742 406 l 473 673 l 473 138 z "},"→":{"ha":773,"x_min":25,"x_max":750,"o":"m 293 176 l 561 444 l 25 444 l 25 555 l 561 555 l 293 823 l 371 903 l 750 524 l 750 476 l 371 97 l 293 176 z "},"↓":{"ha":833,"x_min":14,"x_max":819,"o":"m 440 138 l 393 138 l 14 517 l 93 595 l 361 326 l 361 863 l 472 863 l 472 326 l 741 595 l 819 517 l 440 138 z "},"↕":{"ha":833,"x_min":14,"x_max":821,"o":"m 393 -29 l 14 350 l 93 428 l 361 160 l 361 696 l 363 696 l 363 785 l 94 517 l 16 595 l 395 974 l 441 974 l 821 595 l 742 517 l 473 785 l 473 249 l 472 249 l 472 160 l 741 428 l 819 350 l 440 -29 l 393 -29 z "},"∂":{"ha":805,"x_min":77,"x_max":722,"o":"m 77 350 q 113 533 77 454 q 218 655 150 612 q 375 699 286 699 q 468 681 424 699 q 546 632 513 664 q 472 808 524 747 q 345 868 421 868 q 246 850 292 868 q 153 793 200 832 l 94 850 q 205 963 142 924 q 342 1003 269 1003 q 542 935 456 1003 q 675 741 628 867 q 722 447 722 615 q 637 104 722 222 q 389 -14 553 -14 q 160 84 244 -14 q 77 350 77 182 m 564 461 q 499 539 546 509 q 397 570 452 570 q 278 511 321 570 q 235 350 235 453 q 278 179 235 244 q 390 114 321 114 q 522 190 480 114 q 564 431 564 267 l 564 461 z "},"∏":{"ha":1127,"x_min":140,"x_max":987,"o":"m 350 831 l 350 -207 l 140 -207 l 140 985 l 987 985 l 987 -207 l 778 -207 l 778 831 l 350 831 z "},"∑":{"ha":811,"x_min":62,"x_max":757,"o":"m 754 985 l 754 832 l 283 832 l 596 399 l 281 -54 l 757 -54 l 757 -207 l 62 -207 l 62 -71 l 385 395 l 62 847 l 62 985 l 754 985 z "},"−":{"ha":846,"x_min":131,"x_max":715,"o":"m 131 496 l 715 496 l 715 355 l 131 355 l 131 496 z "},"√":{"ha":903,"x_min":28,"x_max":860,"o":"m 485 176 l 689 1055 l 860 1055 l 590 0 l 383 0 l 199 541 l 72 484 l 28 606 l 315 722 l 485 176 z "},"∞":{"ha":1319,"x_min":85,"x_max":1235,"o":"m 85 433 q 119 566 85 507 q 217 657 154 624 q 357 690 279 690 q 512 649 431 690 q 663 534 593 607 q 817 648 733 605 q 975 690 901 690 q 1163 620 1090 690 q 1235 433 1235 549 q 1198 301 1235 359 q 1097 210 1161 243 q 950 176 1032 176 q 810 219 890 176 q 656 332 729 261 q 500 219 582 261 q 358 176 419 176 q 160 247 235 176 q 85 433 85 318 m 570 433 q 460 517 515 486 q 363 549 404 549 q 280 517 311 549 q 249 433 249 485 q 283 349 249 380 q 372 318 317 318 q 465 348 414 318 q 570 433 517 378 m 1069 433 q 1038 517 1069 485 q 958 549 1007 549 q 865 519 918 549 q 751 433 811 489 q 856 349 806 379 q 943 318 907 318 q 1036 349 1002 318 q 1069 433 1069 379 z "},"∫":{"ha":570,"x_min":28,"x_max":542,"o":"m 57 -151 q 98 -164 71 -158 q 143 -171 126 -171 q 218 -85 227 -171 l 147 802 l 146 823 q 203 960 146 911 q 359 1010 260 1010 q 467 999 415 1010 q 542 972 519 989 l 514 857 q 470 871 498 864 q 425 878 441 878 q 350 790 342 878 l 421 -96 l 422 -119 q 366 -255 422 -205 q 210 -304 310 -304 q 103 -293 154 -304 q 28 -265 52 -282 l 57 -151 z "},"≈":{"ha":855,"x_min":66,"x_max":790,"o":"m 66 532 q 176 637 114 597 q 293 676 237 676 q 353 667 326 676 q 425 639 379 659 q 490 611 461 621 q 550 602 518 602 q 704 679 624 602 l 785 591 q 675 488 737 526 q 558 447 614 449 q 498 457 528 447 q 432 485 469 467 q 359 513 387 505 q 301 522 332 522 q 147 444 224 522 l 66 532 m 71 222 q 180 327 118 288 q 297 367 241 367 q 359 358 330 367 q 429 329 387 349 q 497 302 471 311 q 554 293 524 293 q 708 370 629 293 l 790 282 q 680 177 741 217 q 564 138 619 138 q 505 147 533 138 q 436 175 476 157 q 364 203 390 195 q 307 212 338 212 q 153 135 228 212 l 71 222 z "},"≠":{"ha":833,"x_min":82,"x_max":754,"o":"m 296 315 l 401 497 l 82 497 l 82 637 l 482 637 l 574 794 l 663 742 l 602 637 l 754 637 l 754 497 l 521 497 l 415 315 l 754 315 l 754 175 l 335 175 l 240 11 l 151 64 l 214 175 l 82 175 l 82 315 l 296 315 z "},"≤":{"ha":887,"x_min":66,"x_max":793,"o":"m 290 587 l 790 404 l 790 249 l 68 521 l 68 656 l 790 929 l 790 774 l 290 587 m 66 199 l 793 199 l 793 60 l 66 60 l 66 199 z "},"≥":{"ha":887,"x_min":94,"x_max":821,"o":"m 819 656 l 819 521 l 96 249 l 96 404 l 597 587 l 96 774 l 96 929 l 819 656 m 94 199 l 821 199 l 821 60 l 94 60 l 94 199 z "},"◌":{"ha":895,"x_min":43,"x_max":852,"o":"m 447 812 q 486 797 471 812 q 501 758 501 782 q 485 721 501 737 q 447 705 469 705 q 409 721 425 705 q 393 758 393 737 q 409 797 393 782 q 447 812 425 812 m 272 766 q 311 751 296 766 q 326 713 326 736 q 311 674 326 690 q 272 659 296 659 q 235 673 250 659 q 218 713 218 690 q 234 751 218 736 q 272 766 250 766 m 623 766 q 661 751 646 766 q 676 713 676 736 q 661 674 676 690 q 623 659 646 659 q 585 673 600 659 q 568 713 568 690 q 584 751 568 736 q 623 766 600 766 m 144 639 q 183 624 168 639 q 199 585 199 608 q 183 546 199 562 q 144 530 168 530 q 106 546 121 530 q 90 585 90 562 q 106 624 90 608 q 144 639 122 639 m 751 639 q 790 624 775 639 q 806 585 806 608 q 790 546 806 562 q 751 530 775 530 q 714 546 729 530 q 697 585 697 563 q 713 623 697 607 q 751 639 729 639 m 97 463 q 136 447 121 463 q 151 408 151 432 q 136 370 151 386 q 97 354 121 354 q 58 371 73 354 q 43 408 43 387 q 59 447 43 432 q 97 463 75 463 m 799 463 q 837 447 822 463 q 852 408 852 432 q 837 370 852 386 q 799 354 822 354 q 760 371 775 354 q 745 408 744 387 q 761 447 745 432 q 799 463 777 463 m 144 288 q 183 272 168 288 q 199 233 199 257 q 183 195 199 211 q 144 179 168 179 q 106 195 121 179 q 90 233 90 213 q 106 272 90 257 q 144 288 122 288 m 751 288 q 790 272 775 288 q 806 233 806 257 q 790 195 806 211 q 751 179 775 179 q 714 195 729 179 q 697 233 697 214 q 713 272 697 256 q 751 288 729 288 m 272 160 q 311 144 296 160 q 326 106 326 129 q 310 66 326 82 q 272 50 294 50 q 235 68 250 50 q 218 106 218 83 q 234 145 218 130 q 272 160 250 160 m 623 160 q 661 144 646 160 q 676 106 676 129 q 660 66 676 82 q 623 50 644 50 q 585 68 600 50 q 568 106 568 83 q 584 145 568 130 q 623 160 600 160 m 447 111 q 486 96 471 111 q 501 57 501 81 q 486 19 501 35 q 447 3 471 3 q 408 20 423 3 q 393 57 393 35 q 409 96 393 81 q 447 111 425 111 z "},"꣠":{"ha":373,"x_min":12,"x_max":361,"o":"m 187 1307 q 314 1262 267 1307 q 361 1137 361 1217 q 314 1015 361 1059 q 187 970 267 970 q 60 1015 108 970 q 12 1139 12 1060 q 60 1262 12 1217 q 187 1307 109 1307 m 187 1196 q 132 1139 132 1196 q 147 1096 132 1111 q 187 1080 161 1080 q 241 1137 241 1080 q 187 1196 241 1196 z "}}}
